<?xml version="1.0" standalone="no"?>
<!DOCTYPE svg PUBLIC "-//W3C//DTD SVG 20010904//EN"
 "http://www.w3.org/TR/2001/REC-SVG-20010904/DTD/svg10.dtd">
<svg version="1.0" xmlns="http://www.w3.org/2000/svg"
 width="720.000000pt" height="941.000000pt" viewBox="0 0 720.000000 941.000000"
 preserveAspectRatio="xMidYMid meet">

<g transform="translate(0.000000,941.000000) scale(0.100000,-0.100000)"
fill="#000000" stroke="none">
<path d="M6110 9132 c0 -25 19 -48 110 -134 60 -58 113 -102 116 -99 4 3 4 0
0 -7 -8 -14 -29 1 -138 100 -47 43 -64 53 -66 41 -7 -28 18 -59 114 -147 52
-47 89 -86 81 -86 -7 0 -29 16 -48 36 -18 20 -53 49 -76 65 l-43 30 0 -25 c0
-18 20 -42 76 -92 41 -37 80 -77 86 -88 8 -15 1 -12 -23 10 -19 17 -45 40 -58
50 -13 11 -32 28 -44 39 l-20 20 6 -32 c5 -23 28 -53 79 -102 40 -38 70 -72
67 -75 -3 -3 -30 17 -60 46 -49 46 -54 49 -57 30 -3 -16 12 -36 50 -72 29 -27
60 -50 68 -50 8 0 -5 -11 -29 -25 -28 -16 -58 -25 -87 -25 -91 0 -144 -46
-144 -125 0 -93 82 -141 193 -112 26 7 27 10 27 67 0 59 0 60 -27 59 -16 0
-44 -7 -63 -14 l-35 -13 38 -1 c36 -1 38 -3 35 -28 -4 -33 -34 -41 -77 -23
-24 10 -28 17 -30 59 -2 45 6 60 34 61 3 0 22 7 42 15 20 8 38 14 40 11 2 -2
-10 -9 -27 -16 -16 -7 -30 -16 -30 -21 0 -7 11 -5 100 24 19 6 38 10 43 9 4
-1 7 1 7 5 0 5 12 9 28 10 65 4 189 53 245 97 31 24 69 47 84 51 21 5 24 8 12
16 -11 7 -8 9 11 9 l25 1 -25 14 c-14 8 -37 14 -52 15 -35 0 -82 -21 -67 -30
6 -4 7 -10 2 -13 -5 -3 -42 36 -83 86 -109 133 -161 187 -292 303 -113 100
-118 103 -118 76z m587 -438 c-3 -3 -12 -4 -19 -1 -8 3 -5 6 6 6 11 1 17 -2
13 -5z"/>
<path d="M442 9128 c-17 -17 -17 -241 1 -236 8 3 13 35 15 103 2 64 7 102 15
107 7 4 56 8 110 8 79 0 97 3 97 15 0 12 -19 15 -113 15 -75 0 -117 -4 -125
-12z"/>
<path d="M2524 9039 c-11 -6 -29 -24 -38 -40 -36 -62 7 -139 81 -145 21 -2 52
-7 70 -13 38 -11 49 -4 27 20 -12 13 -13 22 -5 38 14 25 14 77 0 103 -11 21
-67 48 -96 47 -10 0 -27 -5 -39 -10z m80 -55 c30 -30 9 -84 -33 -84 -58 0 -53
98 6 100 6 0 19 -7 27 -16z"/>
<path d="M2709 9049 c-6 -23 -8 -189 -2 -190 5 0 15 -2 24 -4 12 -2 19 6 23
26 7 36 23 37 38 4 11 -25 41 -41 57 -30 6 3 3 18 -7 34 -15 28 -15 31 1 49
22 24 22 54 -1 82 -14 18 -32 24 -75 28 -32 2 -57 3 -58 1z m96 -69 c0 -18
-33 -26 -47 -12 -6 6 -7 15 -3 22 10 16 50 8 50 -10z"/>
<path d="M3024 9043 c-62 -12 -89 -110 -44 -158 41 -43 140 -40 140 4 0 17 -5
19 -34 14 -47 -7 -76 11 -76 47 0 35 29 54 72 48 30 -5 50 15 32 32 -12 11
-64 18 -90 13z"/>
<path d="M3416 9042 c-3 -3 -6 -16 -6 -29 0 -19 -5 -23 -30 -23 -37 0 -70 -31
-70 -65 0 -36 45 -79 73 -71 12 3 35 6 50 6 l28 0 -3 92 c-3 76 -6 92 -20 94
-9 1 -19 -1 -22 -4z m-8 -116 c2 -10 -1 -23 -7 -29 -15 -15 -46 16 -37 38 8
21 40 15 44 -9z"/>
<path d="M3760 9037 c-28 -14 -39 -59 -19 -83 6 -8 29 -17 50 -20 25 -4 39
-12 39 -21 0 -11 -11 -14 -47 -11 -43 3 -48 1 -45 -17 5 -27 2 -25 60 -28 42
-2 56 2 74 20 18 19 20 27 12 50 -7 21 -20 30 -57 41 -59 17 -61 32 -2 32 33
0 45 4 45 15 0 32 -64 45 -110 22z"/>
<path d="M4467 9044 c-4 -4 -7 -18 -7 -31 0 -19 -5 -23 -30 -23 -63 0 -91 -70
-46 -115 19 -19 32 -23 72 -21 l49 3 0 94 c0 77 -3 94 -15 97 -9 1 -19 0 -23
-4z m-7 -118 c0 -31 -18 -43 -36 -24 -19 18 -8 48 17 48 13 0 19 -7 19 -24z"/>
<path d="M6566 9034 c-10 -26 -7 -49 11 -90 21 -49 23 -58 13 -73 -4 -8 -12 6
-20 33 -7 26 -19 46 -26 46 -18 0 -18 -24 2 -89 8 -29 13 -55 10 -58 -3 -3 -8
0 -10 8 -22 61 -27 70 -37 63 -20 -12 -3 -81 32 -123 18 -23 36 -41 41 -41 4
0 22 29 40 64 l31 64 -37 106 c-21 58 -39 106 -41 106 -2 0 -6 -7 -9 -16z"/>
<path d="M3935 9022 c-6 -4 -17 -20 -25 -36 -12 -23 -12 -30 -2 -33 6 -3 12
-15 12 -27 0 -36 28 -66 61 -66 22 0 29 5 29 19 0 10 -9 21 -20 24 -12 3 -20
14 -20 26 0 14 6 21 20 21 13 0 20 7 20 19 0 10 -9 21 -20 24 -11 3 -20 12
-20 21 0 17 -18 21 -35 8z"/>
<path d="M537 9013 c-16 -4 -17 -22 -15 -251 l3 -247 155 0 155 0 3 34 c2 19
1 44 -2 57 -6 23 -10 24 -101 24 l-95 0 0 195 0 195 -42 -1 c-24 -1 -51 -3
-61 -6z"/>
<path d="M1672 9012 c-9 -7 -12 -64 -10 -253 l3 -244 58 -3 57 -3 -2 253 -3
253 -45 3 c-25 1 -51 -2 -58 -6z"/>
<path d="M710 8951 l0 -60 98 -3 97 -3 3 -92 3 -93 60 0 60 0 -3 153 -3 152
-157 3 -158 3 0 -60z"/>
<path d="M1090 8955 l0 -55 190 0 190 0 0 -40 0 -40 -190 0 -190 0 0 -155 0
-156 58 3 57 3 3 93 c1 50 6 92 10 92 4 -1 52 -43 107 -95 l99 -95 83 0 c46 0
83 4 83 9 0 5 -4 11 -9 13 -15 6 -181 161 -181 170 0 4 45 8 100 8 l100 0 0
150 0 150 -255 0 -255 0 0 -55z"/>
<path d="M1850 8855 l0 -155 171 0 170 0 -3 -32 -3 -33 -155 -2 c-85 -2 -163
-3 -173 -3 -16 0 -18 -8 -15 -57 l3 -58 253 -3 252 -2 0 155 0 155 -137 2
c-218 3 -198 -1 -201 36 l-3 32 170 0 171 0 0 60 0 60 -250 0 -250 0 0 -155z"/>
<path d="M3177 8979 c-68 -39 -17 -142 61 -124 36 7 48 20 57 57 14 54 -65 98
-118 67z m60 -40 c16 -16 5 -39 -18 -39 -12 0 -19 7 -19 18 0 31 17 41 37 21z"/>
<path d="M3510 8970 c-29 -29 -26 -74 6 -99 41 -32 115 -24 101 11 -3 10 -15
13 -36 10 -19 -2 -31 0 -31 7 0 6 18 11 41 11 40 0 41 1 35 28 -13 53 -77 71
-116 32z m62 -32 c-9 -9 -15 -9 -24 0 -9 9 -7 12 12 12 19 0 21 -3 12 -12z"/>
<path d="M4050 8969 c0 -18 4 -20 25 -15 14 4 31 3 38 -1 7 -5 -3 -10 -27 -13
-45 -6 -67 -31 -50 -57 8 -13 27 -19 73 -21 l61 -3 0 49 c0 61 -20 82 -78 82
-36 0 -42 -3 -42 -21z m65 -69 c-3 -5 -13 -10 -21 -10 -8 0 -14 5 -14 10 0 6
9 10 21 10 11 0 17 -4 14 -10z"/>
<path d="M4207 8983 c-4 -3 -7 -33 -7 -65 0 -55 1 -58 24 -58 22 0 25 5 28 43
4 60 31 58 38 -3 4 -37 9 -45 25 -45 17 0 20 8 23 47 5 72 -8 88 -72 88 -29 0
-56 -3 -59 -7z"/>
<path d="M4557 8983 c-19 -18 -6 -35 23 -31 17 3 33 1 36 -4 3 -4 -6 -8 -20
-8 -42 0 -56 -10 -56 -41 0 -34 22 -48 70 -44 19 2 41 4 48 4 8 1 12 19 12 56
0 43 -4 56 -19 65 -22 11 -84 14 -94 3z m63 -83 c0 -5 -7 -10 -15 -10 -8 0
-15 5 -15 10 0 6 7 10 15 10 8 0 15 -4 15 -10z"/>
<path d="M4710 8925 c0 -66 7 -79 34 -69 11 4 16 19 16 46 0 31 4 41 20 45 11
3 20 13 20 23 0 13 -9 17 -45 18 l-45 0 0 -63z"/>
<path d="M715 8821 c-3 -2 -5 -31 -5 -63 l0 -58 60 0 60 0 0 64 0 64 -55 -1
c-31 -1 -58 -3 -60 -6z m90 -56 c0 -15 -8 -21 -32 -23 -30 -3 -33 -1 -33 23 0
24 3 26 33 23 24 -2 32 -8 32 -23z"/>
<path d="M4807 8723 c-4 -3 -7 -15 -7 -25 0 -23 38 -25 47 -2 8 21 -24 43 -40
27z"/>
<path d="M2484 8707 c-3 -8 -4 -49 -2 -93 3 -73 5 -79 26 -82 18 -3 22 1 22
21 0 20 6 25 36 30 74 12 99 76 48 116 -32 25 -121 30 -130 8z m101 -57 c0 -8
-10 -16 -22 -18 -18 -3 -23 2 -23 18 0 16 5 21 23 18 12 -2 22 -10 22 -18z"/>
<path d="M3098 8704 c-2 -9 -2 -52 0 -95 l4 -79 52 0 c39 0 57 5 69 18 17 19
22 68 9 88 -11 17 -50 35 -70 32 -12 -2 -18 5 -20 25 -4 30 -38 39 -44 11z
m90 -107 c4 -20 -25 -34 -40 -19 -15 15 -1 44 19 40 10 -2 19 -11 21 -21z"/>
<path d="M4280 8625 c0 -95 0 -95 25 -95 23 0 25 3 25 51 l0 52 41 -52 c23
-29 49 -51 60 -51 17 0 19 8 19 95 0 95 0 95 -25 95 -23 0 -25 -3 -25 -52 l0
-53 -37 53 c-26 37 -43 52 -60 52 -22 0 -23 -2 -23 -95z"/>
<path d="M5380 8626 l0 -96 25 0 26 0 -3 93 c-3 87 -4 92 -25 95 -22 3 -23 1
-23 -92z"/>
<path d="M2687 8650 c-36 -29 -38 -82 -3 -105 31 -21 101 -17 101 5 0 10 -12
17 -35 19 l-35 5 40 5 c36 5 40 9 37 31 -6 52 -62 74 -105 40z m53 -30 c0 -5
-7 -10 -16 -10 -8 0 -12 5 -9 10 3 6 10 10 16 10 5 0 9 -4 9 -10z"/>
<path d="M2840 8662 c-5 -2 -10 -33 -10 -68 0 -57 2 -64 19 -64 16 0 20 8 23
43 2 34 7 42 23 42 16 0 21 -8 23 -42 3 -38 6 -43 28 -43 22 0 24 4 24 45 0
38 3 45 20 45 17 0 20 -7 20 -45 0 -41 2 -45 25 -45 24 0 25 3 25 55 0 47 -3
57 -24 70 -19 13 -29 14 -46 5 -12 -6 -30 -8 -43 -3 -22 8 -89 11 -107 5z"/>
<path d="M3293 8664 c-7 -3 -13 -14 -13 -23 0 -14 6 -17 30 -13 17 2 30 0 30
-6 0 -6 -17 -12 -37 -14 -31 -2 -39 -7 -41 -26 -6 -39 15 -52 79 -52 l59 0 0
44 c0 27 -7 52 -17 65 -18 21 -67 35 -90 25z m45 -92 c2 -7 -3 -12 -12 -12 -9
0 -16 7 -16 16 0 17 22 14 28 -4z"/>
<path d="M3430 8660 c-10 -6 -8 -20 9 -64 26 -70 26 -86 1 -86 -23 0 -27 -25
-6 -33 42 -16 71 17 114 131 15 38 17 52 7 55 -18 7 -37 -8 -51 -40 l-12 -28
-13 32 c-14 36 -29 45 -49 33z"/>
<path d="M3617 8663 c-30 -8 -16 -39 16 -35 15 2 27 -1 27 -7 0 -5 -14 -11
-31 -13 -39 -4 -59 -30 -43 -55 8 -14 27 -19 73 -20 l61 -2 0 47 c0 27 -6 56
-12 65 -14 18 -61 29 -91 20z m48 -83 c3 -6 -1 -13 -10 -16 -19 -8 -30 0 -20
15 8 14 22 14 30 1z"/>
<path d="M3793 8662 l-43 -3 0 -65 c0 -62 1 -64 25 -64 23 0 25 4 25 40 0 34
4 42 25 50 23 9 34 35 18 42 -5 2 -27 2 -50 0z"/>
<path d="M3898 8663 c-30 -8 -21 -33 11 -33 17 0 32 -4 36 -9 3 -5 -8 -9 -24
-9 -35 1 -61 -17 -61 -42 0 -28 22 -39 83 -39 l57 0 0 37 c0 56 -9 78 -36 91
-26 11 -36 12 -66 4z m47 -83 c3 -6 -1 -13 -10 -16 -19 -8 -30 0 -20 15 8 14
22 14 30 1z"/>
<path d="M4034 8661 c-2 -2 -4 -33 -4 -68 0 -61 1 -63 25 -63 23 0 25 4 25 46
0 38 3 45 18 42 12 -2 18 -15 20 -46 3 -37 6 -42 28 -42 22 0 24 4 24 48 0 69
-16 86 -80 87 -28 0 -54 -2 -56 -4z"/>
<path d="M4523 8663 c-14 -3 -23 -12 -23 -23 0 -16 5 -18 29 -14 16 4 32 1 35
-5 5 -7 -5 -11 -27 -11 -45 0 -64 -22 -49 -55 10 -22 17 -24 72 -24 l60 1 0
48 c0 46 -17 80 -40 80 -5 0 -14 2 -22 4 -7 2 -23 1 -35 -1z m37 -88 c0 -8 -7
-15 -15 -15 -16 0 -20 12 -8 23 11 12 23 8 23 -8z"/>
<path d="M4659 8652 c-29 -24 -20 -48 23 -67 l33 -14 -33 -1 c-26 0 -33 -4
-30 -17 4 -22 82 -31 104 -12 20 16 18 58 -3 65 -10 3 -27 10 -38 15 -17 8
-16 9 8 6 20 -3 27 0 27 13 0 33 -55 40 -91 12z"/>
<path d="M4807 8663 c-4 -3 -7 -35 -7 -70 0 -61 1 -64 23 -61 20 3 22 10 25
62 2 41 -1 62 -10 67 -16 11 -23 11 -31 2z"/>
<path d="M4895 8645 c-30 -30 -31 -54 -4 -89 40 -51 129 -23 129 42 0 33 -8
45 -37 61 -34 17 -62 13 -88 -14z m75 -45 c0 -24 -29 -38 -40 -20 -12 19 -1
40 21 40 12 0 19 -7 19 -20z"/>
<path d="M5054 8661 c-2 -2 -4 -33 -4 -68 0 -61 1 -63 25 -63 23 0 25 4 25 46
0 38 3 45 18 42 12 -2 18 -15 20 -46 3 -34 7 -42 23 -42 17 0 19 7 19 59 0 35
-5 63 -12 67 -12 8 -107 12 -114 5z"/>
<path d="M5255 8663 c-45 -12 -40 -46 5 -36 18 3 30 1 30 -5 0 -6 -17 -12 -37
-14 -31 -2 -39 -7 -41 -26 -6 -37 14 -50 73 -50 57 1 64 7 59 48 -1 14 -3 35
-3 47 -1 14 -11 24 -32 32 -18 6 -32 10 -33 10 -1 -1 -10 -4 -21 -6z m38 -88
c1 -5 -6 -11 -15 -13 -11 -2 -18 3 -18 13 0 17 30 18 33 0z"/>
<path d="M914 8631 c-2 -2 -4 -60 -4 -128 l0 -123 60 0 60 0 0 124 0 124 -56
4 c-31 1 -58 1 -60 -1z"/>
<path d="M2410 8530 c0 -120 0 -120 -129 -120 -56 0 -91 -4 -91 -10 0 -7 43
-10 123 -8 l122 3 3 118 c2 100 0 117 -13 117 -12 0 -15 -17 -15 -100z"/>
<path d="M6572 8423 l3 -118 27 -3 c27 -3 27 -2 30 63 l3 67 48 -66 c41 -55
53 -66 78 -66 l29 0 0 108 c0 111 -7 132 -42 132 -14 0 -18 -11 -20 -72 l-3
-72 -44 60 c-51 69 -68 84 -93 84 -17 0 -18 -9 -16 -117z"/>
<path d="M6435 8500 c-19 -8 -19 -9 2 -9 28 -1 45 -30 32 -54 -7 -11 -22 -17
-44 -17 -33 0 -35 2 -35 35 0 36 -10 42 -44 29 -13 -5 -16 -23 -16 -95 l0 -89
30 0 c27 0 30 3 30 34 0 33 1 34 50 38 62 6 90 29 90 74 0 51 -9 64 -44 63
-17 0 -40 -4 -51 -9z"/>
<path d="M2485 7550 c0 -117 2 -130 18 -130 17 0 21 9 17 44 -1 10 1 29 4 42
10 40 39 28 74 -31 22 -37 40 -55 53 -55 25 0 25 0 -13 59 l-31 51 21 23 c22
23 29 71 14 93 -14 22 -52 34 -104 34 l-53 0 0 -130z m99 90 c18 -6 26 -17 26
-33 0 -32 -18 -47 -57 -47 -32 0 -33 2 -33 38 0 54 12 62 64 42z"/>
<path d="M2775 7671 c-3 -6 -14 -34 -25 -63 -10 -29 -30 -83 -44 -120 -25 -67
-25 -68 -5 -68 13 0 25 11 35 35 8 19 20 36 27 36 73 8 93 0 102 -41 5 -23 12
-30 31 -30 l24 0 -22 58 c-12 31 -33 89 -48 127 -19 53 -31 71 -47 73 -12 2
-24 -2 -28 -7z m47 -91 l16 -50 -38 0 -38 0 16 50 c9 28 19 50 22 50 3 0 13
-22 22 -50z"/>
<path d="M2982 7670 c-12 -5 -27 -21 -34 -35 -17 -38 3 -71 59 -98 33 -15 49
-29 51 -45 4 -29 -34 -45 -80 -31 -18 5 -34 9 -35 9 -2 0 -3 -9 -3 -20 0 -24
36 -35 87 -27 91 15 101 105 15 140 -46 18 -66 41 -58 63 5 13 16 16 56 12 43
-4 50 -3 50 12 0 27 -61 38 -108 20z"/>
<path d="M3165 7595 c40 -73 45 -90 41 -130 -3 -42 -2 -46 18 -43 18 3 21 10
22 54 0 39 9 67 42 127 40 75 41 77 18 77 -17 0 -28 -11 -46 -51 -13 -28 -28
-52 -32 -55 -4 -3 -20 20 -35 50 -22 45 -32 56 -51 56 -23 0 -23 -2 23 -85z"/>
<path d="M3403 7618 c-11 -35 -32 -93 -46 -130 l-26 -68 24 0 c18 0 25 7 30
30 7 30 27 47 55 44 8 -1 25 -2 37 -3 16 -1 27 -12 37 -36 10 -24 22 -35 35
-35 20 0 19 2 -6 68 -14 37 -35 95 -46 130 -19 55 -24 62 -47 62 -23 0 -28 -7
-47 -62z m69 -38 l16 -50 -38 0 -38 0 16 50 c9 28 19 50 22 50 3 0 13 -22 22
-50z"/>
<path d="M3610 7678 c-1 -2 -2 -60 -3 -130 -3 -117 -1 -128 15 -128 18 0 22
10 18 39 -1 8 1 29 5 48 6 33 7 33 59 33 61 0 65 -4 61 -73 -2 -43 0 -48 19
-45 20 3 21 9 21 128 0 117 -1 125 -20 125 -17 0 -19 -6 -16 -52 l2 -53 -65 0
-66 0 0 55 c0 42 -3 55 -15 55 -8 0 -15 -1 -15 -2z"/>
<path d="M4021 7667 c-44 -22 -66 -64 -65 -121 0 -67 22 -102 73 -117 47 -14
111 -4 111 16 0 11 -13 14 -50 14 -59 -2 -86 16 -93 64 -6 44 10 95 34 108 11
6 39 9 62 7 32 -2 43 1 45 13 5 28 -73 39 -117 16z"/>
<path d="M4197 7673 c-3 -5 -4 -63 -4 -130 l0 -123 74 0 c57 0 73 3 73 14 0
11 -15 16 -52 18 -57 3 -66 14 -54 64 6 21 12 24 51 24 33 0 45 4 45 15 0 11
-12 15 -50 15 -46 0 -50 2 -50 24 0 48 9 56 61 56 37 0 49 4 49 15 0 12 -14
15 -69 15 -39 0 -72 -3 -74 -7z"/>
<path d="M4400 7550 l0 -130 75 0 c57 0 75 3 75 14 0 16 -27 29 -41 20 -5 -3
-23 -3 -39 1 l-30 7 0 109 c0 102 -1 109 -20 109 -19 0 -20 -7 -20 -130z"/>
<path d="M4600 7550 l0 -130 76 0 c66 0 75 2 72 18 -3 14 -12 16 -56 14 l-52
-4 0 116 c0 109 -1 116 -20 116 -19 0 -20 -7 -20 -130z"/>
<path d="M0 5833 l0 -1547 360 359 360 360 0 832 0 832 108 3 107 3 -305 230
c-168 126 -359 270 -424 320 -65 49 -139 105 -162 123 l-44 32 0 -1547z"/>
<path d="M2008 7073 c-4 -79 1 -143 13 -143 5 0 9 35 9 78 l0 77 51 -77 c29
-43 55 -78 60 -78 10 0 15 59 11 138 -5 86 -21 78 -24 -14 l-3 -75 -49 75
c-26 42 -52 76 -56 76 -5 0 -10 -26 -12 -57z"/>
<path d="M2210 7118 c-1 -7 -3 -52 -6 -100 -5 -75 -3 -88 10 -88 12 0 16 15
18 73 l3 72 29 -73 c16 -40 34 -71 39 -69 6 2 24 39 41 82 l31 80 3 -82 c4
-119 22 -104 22 18 0 86 -2 100 -16 97 -9 -2 -30 -37 -48 -82 -37 -89 -35 -90
-76 22 -13 35 -28 62 -36 62 -8 0 -14 -6 -14 -12z"/>
<path d="M2450 7030 c0 -60 4 -100 10 -100 6 0 10 40 10 100 0 60 -4 100 -10
100 -6 0 -10 -40 -10 -100z"/>
<path d="M2524 7030 l1 -102 49 5 c64 6 86 31 86 97 0 66 -22 91 -87 97 l-50
5 1 -102z m100 58 c9 -12 16 -41 16 -65 0 -46 -25 -73 -67 -73 -22 0 -23 3
-23 80 l0 80 29 0 c20 0 35 -8 45 -22z"/>
<path d="M2920 7030 c0 -60 4 -100 10 -100 6 0 10 40 10 100 0 60 -4 100 -10
100 -6 0 -10 -40 -10 -100z"/>
<path d="M2997 7054 c1 -44 2 -89 2 -101 1 -19 7 -23 30 -23 77 0 118 51 101
125 -12 52 -30 67 -87 72 l-48 5 2 -78z m95 39 c12 -11 18 -30 18 -61 0 -54
-21 -82 -62 -82 l-28 0 0 80 0 80 27 0 c14 0 35 -7 45 -17z"/>
<path d="M3208 7113 c-45 -18 -50 -35 -8 -26 l30 6 0 -82 c0 -47 4 -81 10 -81
6 0 10 40 10 100 0 55 -1 100 -2 99 -2 0 -20 -7 -40 -16z"/>
<path d="M3350 7110 c-16 -16 -20 -33 -20 -80 0 -64 21 -100 58 -100 43 0 57
24 57 100 0 59 -3 74 -19 86 -27 19 -52 18 -76 -6z m70 -19 c5 -11 10 -38 10
-61 0 -69 -34 -102 -68 -68 -16 16 -16 120 0 136 18 18 46 14 58 -7z"/>
<path d="M3512 7114 c-12 -8 -22 -22 -22 -30 0 -21 17 -17 23 7 4 16 12 20 34
17 47 -5 43 -46 -11 -107 -25 -29 -46 -56 -46 -61 0 -13 117 -13 125 -1 3 6
-16 11 -44 13 l-50 3 40 45 c21 24 39 47 39 51 0 4 3 14 6 22 7 19 -29 57 -54
57 -10 0 -28 -7 -40 -16z"/>
<path d="M3685 7067 c-55 -85 -55 -87 -1 -87 42 0 46 -2 46 -25 0 -14 5 -25
10 -25 6 0 10 11 10 25 0 16 6 25 15 25 8 0 15 5 15 10 0 6 -7 10 -15 10 -12
0 -15 14 -15 65 0 83 -13 83 -65 2z m45 -22 c0 -43 -1 -45 -30 -45 -16 0 -30
2 -30 5 0 7 52 85 56 85 2 0 4 -20 4 -45z"/>
<path d="M3825 7110 c-10 -11 -15 -23 -12 -27 4 -4 13 1 20 11 8 11 23 17 38
14 19 -2 24 -9 24 -33 0 -22 -5 -31 -20 -33 -33 -6 -42 -22 -12 -22 31 0 52
-36 35 -57 -14 -18 -57 -16 -64 2 -8 19 -24 19 -24 0 0 -35 69 -46 100 -15 24
24 25 43 4 65 -13 12 -14 19 -5 28 6 6 11 23 11 39 0 47 -62 65 -95 28z"/>
<path d="M3985 7110 c-10 -11 -15 -23 -12 -27 4 -4 13 1 20 11 8 11 23 17 38
14 19 -2 24 -9 24 -33 0 -22 -5 -31 -20 -33 -33 -6 -42 -22 -12 -22 31 0 52
-36 35 -57 -14 -18 -57 -16 -64 2 -8 19 -24 19 -24 0 0 -35 69 -46 100 -15 24
24 25 43 4 65 -13 12 -14 19 -5 28 6 6 11 23 11 39 0 47 -62 65 -95 28z"/>
<path d="M4150 7110 c-23 -23 -24 -33 -9 -61 7 -15 7 -24 -1 -34 -18 -22 -7
-58 23 -75 24 -13 30 -13 55 0 32 18 40 51 17 74 -15 14 -15 18 -1 37 16 23
12 47 -12 67 -23 18 -49 15 -72 -8z m65 -35 c0 -38 -37 -48 -55 -15 -14 27 4
52 34 48 16 -2 21 -10 21 -33z m6 -71 c19 -23 -1 -49 -37 -49 -20 0 -30 6 -32
18 -8 40 43 63 69 31z"/>
<path d="M4333 7115 c-39 -17 -44 -34 -8 -27 l25 4 0 -81 c0 -47 4 -81 10 -81
6 0 10 40 10 100 0 55 -1 100 -2 100 -2 -1 -18 -7 -35 -15z"/>
<path d="M4472 7114 c-12 -8 -22 -22 -22 -30 0 -21 17 -17 23 6 3 14 14 20 31
20 53 0 47 -55 -13 -115 -57 -57 -53 -65 24 -65 76 0 88 18 16 22 l-50 3 40
45 c21 24 39 47 39 51 0 4 3 14 6 22 7 19 -29 57 -54 57 -10 0 -28 -7 -40 -16z"/>
<path d="M4653 7115 c-39 -17 -44 -34 -8 -27 l25 4 0 -81 c0 -47 4 -81 10 -81
6 0 10 40 10 100 0 55 -1 100 -2 100 -2 -1 -18 -7 -35 -15z"/>
<path d="M4820 7117 c-51 -26 -67 -113 -29 -161 23 -30 45 -33 77 -10 28 20
30 74 3 98 -15 13 -28 16 -52 11 -33 -7 -33 -7 -18 16 9 13 26 28 37 34 12 5
22 13 22 17 0 11 -11 10 -40 -5z m38 -89 c29 -29 3 -84 -35 -76 -25 5 -40 52
-23 72 15 19 41 21 58 4z"/>
<path d="M4950 7111 c0 -10 -3 -32 -6 -50 -6 -30 -6 -31 31 -28 44 2 61 -17
51 -56 -8 -32 -49 -38 -65 -10 -11 21 -26 11 -18 -11 10 -24 54 -30 82 -12 52
34 19 127 -40 112 -27 -7 -28 -4 -19 32 5 18 13 22 45 22 22 0 39 5 39 10 0 6
-22 10 -50 10 -42 0 -50 -3 -50 -19z"/>
<path d="M5112 7114 c-15 -10 -22 -25 -22 -49 0 -44 25 -69 62 -61 19 4 28 1
28 -8 0 -15 -32 -46 -48 -46 -6 0 -14 -5 -18 -11 -11 -19 48 -1 70 21 15 15
20 34 20 76 1 47 -3 59 -23 75 -28 23 -40 24 -69 3z m65 -33 c17 -35 0 -63
-35 -59 -21 2 -28 9 -30 31 -7 55 41 75 65 28z"/>
<path d="M2775 7071 c-6 -11 9 -23 19 -14 9 9 7 23 -3 23 -6 0 -12 -4 -16 -9z"/>
<path d="M2775 6949 c-4 -6 -5 -13 -2 -16 7 -7 27 6 27 18 0 12 -17 12 -25 -2z"/>
<path d="M1080 6070 l0 -240 240 0 240 0 0 240 0 240 -240 0 -240 0 0 -240z
m410 0 l0 -170 -170 0 -170 0 0 170 0 170 170 0 170 0 0 -170z"/>
<path d="M1224 6171 c-2 -2 -4 -49 -4 -103 l0 -98 100 0 100 0 0 103 0 102
-96 0 c-53 0 -98 -2 -100 -4z"/>
<path d="M1630 6211 l0 -100 33 -3 32 -3 3 -67 3 -68 -36 0 -35 0 0 -175 0
-175 -70 0 -70 0 0 -35 c0 -33 2 -35 35 -35 33 0 35 -2 35 -35 0 -33 -2 -35
-36 -35 -34 0 -35 -1 -32 -32 3 -29 7 -33 36 -36 31 -3 32 -2 32 32 0 34 2 36
35 36 l35 0 0 -65 0 -64 -32 -6 c-18 -3 -64 -5 -103 -3 l-70 3 -3 102 -3 102
-32 3 c-28 3 -32 7 -35 36 -3 29 -6 32 -37 32 l-33 0 -1 -135 c-1 -102 2 -135
11 -136 7 -1 39 0 71 1 l57 2 0 -36 0 -36 105 0 105 0 0 -35 0 -35 -70 0 -70
0 0 -35 c0 -33 2 -35 35 -35 33 0 35 -2 35 -35 0 -33 -2 -35 -35 -35 -33 0
-35 -2 -35 -35 0 -33 -2 -35 -35 -35 -33 0 -35 2 -35 35 0 33 -2 35 -35 35
-33 0 -35 2 -35 35 0 33 -2 35 -33 35 -32 0 -34 2 -33 33 1 29 4 32 34 35 29
3 32 6 32 38 l0 34 -65 0 c-62 0 -65 1 -65 25 0 24 -25 45 -54 45 -12 0 -16
-10 -16 -35 0 -33 -2 -35 -35 -35 -33 0 -35 -2 -35 -34 0 -32 3 -35 33 -38 28
-3 32 -7 35 -35 3 -28 7 -32 35 -35 28 -3 32 -7 35 -35 3 -29 7 -33 32 -33 19
0 30 -6 32 -17 8 -35 -3 -53 -33 -53 -16 0 -29 -6 -30 -12 -1 -7 -2 -22 -3
-33 -1 -15 -9 -21 -33 -23 -30 -3 -33 -6 -33 -38 0 -32 -2 -34 -35 -34 -33 0
-35 -2 -35 -36 0 -34 1 -35 33 -32 28 3 32 7 35 36 3 29 6 32 38 32 l35 0 -3
-67 -3 -68 -32 -3 c-28 -3 -32 -7 -35 -35 -3 -28 -7 -32 -35 -35 -30 -3 -33
-6 -33 -35 l0 -32 64 -3 65 -3 7 35 c5 31 10 36 35 36 26 0 29 3 29 35 l0 35
140 0 140 0 0 35 c0 33 -2 35 -35 35 -33 0 -35 2 -35 35 l0 35 105 0 105 0 0
-70 0 -70 70 0 70 0 0 -35 0 -35 -245 0 -245 0 0 -35 c0 -33 -2 -35 -35 -35
-32 0 -35 -2 -35 -30 0 -28 3 -30 35 -30 33 0 35 -2 35 -35 l0 -35 -99 0 -100
0 -3 33 c-3 28 -7 32 -35 35 -32 3 -33 2 -33 -32 0 -34 2 -36 35 -36 33 0 35
-2 35 -35 l0 -35 65 0 65 0 1 -40 c0 -22 0 -68 1 -102 l0 -63 -31 -3 c-31 -3
-31 -3 -31 -63 0 -32 0 -62 0 -66 -1 -5 14 -10 32 -13 28 -4 32 -9 33 -35 0
-26 4 -30 33 -33 31 -3 32 -2 32 32 0 35 -1 36 -36 36 l-35 0 2 70 2 70 33 0
33 0 3 68 3 67 33 3 32 3 0 -70 0 -71 70 0 70 0 0 -35 0 -35 -70 0 -71 0 3
-67 3 -68 32 -3 c28 -3 32 -7 35 -35 3 -28 7 -32 36 -35 29 -3 32 -6 32 -38 0
-32 -2 -34 -35 -34 -32 0 -35 -2 -35 -30 0 -23 -5 -30 -19 -30 -50 0 -51 -4
-51 -146 l0 -134 70 0 70 0 0 -35 c0 -33 -2 -35 -35 -35 -33 0 -35 -2 -35 -35
0 -33 -2 -35 -35 -35 -33 0 -35 2 -35 35 l0 34 -67 3 -68 3 -3 68 -3 67 36 0
c33 0 35 2 35 35 0 33 -2 35 -36 35 -28 0 -35 -4 -33 -17 4 -44 -1 -53 -30
-53 -26 0 -30 -4 -33 -32 l-3 -33 -67 -3 -68 -3 0 -69 0 -69 67 -3 68 -3 0
-30 c0 -26 -4 -30 -32 -33 -28 -3 -32 -7 -35 -35 -3 -28 -7 -32 -35 -35 -30
-3 -33 -6 -33 -38 0 -34 1 -35 33 -32 28 3 32 7 35 36 3 29 6 32 38 32 32 0
34 -2 34 -35 0 -32 2 -35 30 -35 l30 0 1 63 c1 34 1 65 0 70 0 4 15 7 34 7
l35 0 0 -105 0 -105 -35 0 -35 0 0 -65 0 -65 -30 0 c-30 0 -37 -13 -31 -57 1
-9 -18 -13 -69 -13 l-70 0 0 -35 0 -35 100 0 99 0 3 -67 3 -68 33 -3 32 -3 0
105 0 106 34 0 c32 0 35 3 38 33 l3 32 138 3 137 3 0 -36 c0 -33 2 -35 35 -35
33 0 35 -2 35 -35 l0 -35 -105 0 -105 0 0 35 0 36 -67 -3 -68 -3 -3 -32 -3
-33 70 0 71 0 0 -35 0 -35 -70 0 -70 0 0 -105 0 -105 -35 0 c-33 0 -35 2 -35
35 l0 35 -65 0 -64 0 -3 68 -3 67 -32 3 c-32 3 -33 2 -33 -32 0 -34 -2 -36
-35 -36 l-35 0 0 -70 0 -70 35 0 36 0 -3 -67 -3 -68 -32 -3 -33 -3 0 -70 0
-70 33 4 c28 3 32 7 35 36 3 30 6 32 35 29 32 -3 32 -3 35 -65 l3 -63 -71 0
-70 0 0 -105 0 -105 70 0 70 0 0 35 c0 32 2 35 30 35 30 0 30 -1 31 -57 1 -32
1 -64 0 -70 -1 -8 11 -13 33 -13 32 0 35 -3 38 -32 3 -29 7 -33 36 -36 l32 -3
0 70 0 71 70 0 70 0 0 35 c0 33 2 35 35 35 l34 0 3 67 3 68 33 3 c28 3 32 7
32 31 0 24 5 29 30 33 17 3 32 2 35 0 3 -3 5 -34 5 -69 l0 -63 -35 0 c-33 0
-35 -2 -35 -34 0 -32 3 -35 33 -38 28 -3 32 -7 35 -36 l3 -32 -70 0 -71 0 0
-105 0 -105 35 0 c33 0 35 -2 35 -35 0 -33 2 -35 35 -35 l36 0 -3 -102 -3
-103 -32 -3 -33 -3 0 70 0 71 -35 0 -35 0 0 -100 0 -100 35 0 35 0 0 -70 0
-70 169 0 169 0 4 30 c5 36 2 40 -33 40 -24 0 -28 4 -31 33 -2 17 -9 33 -15
33 -7 1 -22 2 -33 3 -15 1 -20 8 -20 31 l0 30 71 0 71 0 -7 -30 c-7 -31 -3
-34 43 -30 19 1 22 -3 22 -34 0 -34 2 -36 35 -36 33 0 35 2 35 36 0 28 4 35
18 33 43 -4 52 1 52 30 0 32 12 40 47 33 16 -3 23 -12 25 -35 3 -27 7 -31 33
-31 l30 0 3 67 3 67 34 0 35 0 0 -65 c0 -67 -1 -69 -47 -65 -20 1 -23 -3 -23
-34 0 -34 -2 -36 -35 -36 -33 0 -35 2 -35 35 0 33 -2 35 -35 35 l-35 0 0 -70
0 -70 140 0 140 0 0 35 c0 33 2 35 35 35 33 0 35 -2 35 -35 0 -33 2 -35 36
-35 34 0 35 1 32 33 -3 28 -7 32 -35 35 -28 3 -32 7 -35 35 -3 28 -7 32 -35
35 l-33 3 0 135 0 134 35 0 c33 0 35 -2 35 -35 0 -33 2 -35 35 -35 l35 0 0
-70 0 -70 35 0 c33 0 35 2 35 35 l0 35 65 0 65 0 0 -64 0 -65 -32 -3 c-29 -3
-32 -7 -33 -33 0 -26 -4 -30 -32 -33 -30 -3 -33 -6 -33 -38 0 -34 1 -35 33
-32 29 3 32 6 31 36 0 30 2 32 33 32 31 0 33 2 33 35 0 34 1 36 35 33 l35 -2
0 -68 0 -68 35 0 35 0 0 99 0 100 -32 3 c-29 3 -33 7 -36 36 l-3 32 70 0 70 0
3 -32 c3 -29 7 -33 36 -36 28 -3 32 -7 32 -32 0 -25 -4 -29 -32 -32 -29 -3
-33 -7 -36 -35 -3 -32 -2 -33 32 -33 34 0 36 -2 36 -35 l0 -35 239 0 c219 0
239 1 243 18 8 35 -2 52 -33 52 l-29 0 0 100 0 100 30 0 30 0 0 -64 c0 -68 6
-76 47 -68 21 4 23 10 23 68 l0 64 70 0 70 0 0 -64 0 -65 -32 -3 -33 -3 -3
-67 -3 -68 35 0 c32 0 35 3 38 33 l3 32 68 3 67 3 0 -36 c0 -33 2 -35 35 -35
33 0 35 2 35 36 0 34 1 35 33 32 28 -3 32 -7 35 -36 l3 -33 102 3 102 3 0 30
0 30 -67 3 c-67 3 -68 3 -68 31 0 29 -15 41 -51 41 -14 0 -19 7 -19 30 0 29 0
29 68 32 l67 3 3 33 3 32 67 0 67 0 2 -36 2 -35 -67 2 -67 3 0 -35 c0 -23 4
-33 14 -31 30 6 51 -9 51 -39 l0 -29 65 0 65 0 0 36 c0 31 -3 35 -22 34 -42
-4 -47 0 -44 27 3 22 9 29 32 33 24 4 30 11 32 38 3 29 6 32 38 32 l34 0 0
-99 0 -100 -32 -3 c-29 -3 -33 -7 -36 -35 -3 -32 -2 -33 32 -33 32 0 35 3 38
33 3 28 7 32 36 35 31 3 32 2 32 -32 l0 -36 140 0 140 0 0 35 c0 33 2 35 35
35 33 0 35 -2 35 -35 l0 -35 105 0 c97 0 105 1 105 19 0 37 -12 51 -41 51
l-29 0 0 65 0 65 100 0 100 0 0 -29 c0 -26 -4 -30 -32 -33 -29 -3 -33 -7 -36
-35 -3 -32 -2 -33 32 -33 34 0 36 2 36 35 0 33 2 35 35 35 33 0 35 -2 35 -34
0 -32 -3 -35 -32 -38 -29 -3 -33 -7 -36 -35 -3 -32 -2 -33 32 -33 34 0 36 2
36 35 0 33 2 35 35 35 33 0 35 -2 35 -35 0 -33 2 -35 35 -35 l35 0 0 100 0 99
68 3 67 3 3 32 3 32 102 3 102 3 3 32 c3 30 6 33 38 33 32 0 34 -2 34 -35 0
-33 -2 -35 -35 -35 -33 0 -35 -2 -35 -35 0 -33 2 -35 35 -35 31 0 35 -3 35
-25 0 -26 -32 -47 -57 -38 -9 4 -13 -6 -13 -31 0 -35 1 -36 36 -36 35 0 36 1
32 35 -4 34 -3 35 29 35 19 0 33 -5 34 -12 0 -7 1 -38 2 -68 l2 -55 68 -3 67
-3 0 36 c0 33 -2 35 -35 35 -33 0 -35 2 -35 36 0 34 1 35 33 32 l32 -3 3 103
3 102 -36 0 c-33 0 -35 2 -35 35 0 33 2 35 35 35 l35 0 0 141 0 140 -32 -3
c-29 -3 -33 -7 -36 -36 -3 -31 -6 -33 -35 -30 -28 3 -32 7 -32 33 0 26 -4 30
-32 33 -28 3 -32 7 -35 35 l-3 32 -102 3 -103 3 0 34 c0 33 2 35 36 35 34 0
35 1 32 33 -3 28 -7 32 -33 32 l-30 1 -3 67 -3 67 36 0 c33 0 35 -2 35 -33 0
-32 2 -34 33 -33 29 1 32 4 35 34 3 29 6 32 38 32 32 0 34 -2 34 -35 0 -32 2
-35 30 -35 27 0 30 -3 30 -30 0 -28 3 -30 35 -30 33 0 35 -2 35 -34 0 -32 -3
-35 -32 -38 -30 -3 -33 -6 -34 -35 l-1 -33 69 0 68 0 0 70 c0 38 -3 69 -7 69
-5 -1 -20 -1 -35 0 -24 1 -28 5 -28 31 0 28 3 30 35 30 l35 0 0 105 0 105 -35
0 c-33 0 -35 2 -35 35 0 33 2 35 35 35 33 0 35 2 35 35 0 33 -2 35 -35 35 -33
0 -35 2 -35 35 0 33 2 35 35 35 33 0 35 2 35 35 0 33 -2 35 -35 35 -33 0 -35
2 -35 35 0 33 -2 35 -35 35 -33 0 -35 2 -35 35 l0 35 70 0 70 0 0 64 c0 36 -3
67 -8 69 -4 3 -19 3 -35 0 -22 -4 -27 -11 -27 -34 0 -27 -3 -29 -36 -29 -34 0
-36 1 -32 30 5 30 -6 40 -43 40 -14 0 -19 7 -19 30 0 27 3 30 33 30 32 0 33
-2 29 -30 -4 -29 -3 -30 32 -30 33 0 36 2 36 30 0 28 3 30 35 30 l35 0 0 105
0 105 -35 0 c-33 0 -35 2 -35 35 0 33 2 35 35 35 l35 0 0 175 0 175 -35 0
c-33 0 -35 2 -35 35 0 23 5 35 13 34 44 -6 57 1 57 31 0 28 -3 30 -35 30 -32
0 -35 -2 -35 -29 0 -32 -12 -40 -47 -33 -18 3 -23 11 -23 33 0 24 4 28 33 31
28 3 32 7 35 36 3 29 6 32 38 32 l34 0 0 105 0 105 -35 0 c-33 0 -35 2 -35 35
0 33 2 35 35 35 l35 0 0 105 0 105 -36 0 c-34 0 -35 1 -32 33 3 28 7 32 36 35
l32 3 0 380 0 379 -98 0 c-54 0 -101 2 -104 5 -2 3 -3 18 0 35 l4 30 99 0 99
0 0 100 0 100 -35 0 c-33 0 -35 2 -35 35 0 33 2 35 35 35 l35 0 0 105 0 105
-99 0 -100 0 -3 -32 c-3 -29 -7 -33 -35 -36 -28 -3 -32 -7 -35 -35 l-3 -32
-67 -3 -68 -3 0 -34 0 -35 -70 0 -70 0 0 35 c0 33 2 35 35 35 33 0 35 2 35 35
l0 35 70 0 70 0 0 35 0 35 -105 0 -105 0 0 70 0 70 -35 0 c-33 0 -35 -2 -35
-35 0 -33 -2 -35 -35 -35 l-35 0 0 70 0 70 70 0 70 0 0 35 c0 33 -2 35 -35 35
-33 0 -35 2 -35 35 l0 36 -67 -3 -68 -3 -3 -32 c-3 -32 -2 -33 32 -33 34 0 36
-2 36 -35 l0 -35 -70 0 -70 0 0 35 0 35 -170 0 -170 0 0 35 0 35 71 0 70 0 -3
32 c-3 29 -7 32 -33 33 -26 0 -30 4 -33 33 l-3 32 170 0 171 0 0 -30 c0 -16 3
-30 8 -31 4 0 19 -3 35 -5 l27 -5 0 71 0 70 -345 0 -345 0 0 -35 0 -35 -70 0
-70 0 0 35 c0 33 -2 35 -36 35 -34 0 -35 -1 -32 -32 3 -29 7 -33 36 -36 l32
-3 0 -100 0 -99 -35 0 c-33 0 -35 2 -35 35 l0 34 -67 3 c-67 3 -68 3 -67 31 0
15 -2 27 -5 27 -3 0 -49 1 -101 3 l-95 1 -3 -32 c-3 -29 -6 -32 -38 -32 l-34
0 0 64 0 65 33 3 c28 3 32 7 35 36 3 31 2 32 -32 32 -34 0 -36 -2 -36 -35 0
-33 -2 -35 -35 -35 -33 0 -35 2 -35 35 l0 35 -70 0 -70 0 0 -35 0 -35 -70 0
-70 0 0 35 c0 33 -2 35 -36 35 -34 0 -35 -1 -32 -32 3 -29 7 -33 36 -36 28 -3
32 -7 32 -32 0 -34 17 -41 90 -37 44 2 45 1 48 -30 l3 -32 -103 -3 -103 -3 -3
-32 -3 -33 70 0 71 0 0 -34 c0 -32 -3 -35 -32 -38 -29 -3 -33 -7 -36 -35 -3
-28 -7 -32 -35 -35 -28 -3 -32 -7 -35 -35 -3 -30 -6 -33 -38 -33 -32 0 -34 2
-34 35 0 32 -2 35 -30 35 -28 0 -30 3 -30 35 0 32 2 35 30 35 28 0 30 3 30 35
0 32 -2 35 -30 35 -28 0 -30 -3 -30 -35 0 -33 -2 -35 -35 -35 -33 0 -35 2 -35
34 0 32 3 35 33 38 28 3 32 7 35 35 3 28 7 32 35 35 18 2 31 6 30 11 -2 4 -3
32 -3 62 l0 55 -100 0 -100 0 0 35 0 35 -70 0 -70 0 0 -35 c0 -33 -2 -35 -35
-35 -33 0 -35 2 -35 35 l0 35 -70 0 -70 0 0 -35 c0 -33 -2 -35 -35 -35 -33 0
-35 2 -35 35 0 33 -2 35 -36 35 -34 0 -35 -1 -32 -32 3 -29 7 -33 36 -36 29
-3 32 -6 32 -37 l0 -33 58 0 c31 -1 63 -1 70 -1 8 -1 12 -21 12 -66 l0 -65 35
0 c33 0 35 -2 35 -35 0 -33 2 -35 36 -35 34 0 35 1 32 33 -3 28 -7 32 -35 35
-30 3 -33 6 -33 38 0 32 2 34 35 34 l35 0 0 65 0 65 70 0 70 0 0 -100 0 -100
-35 0 -35 0 0 -70 0 -70 -35 0 c-33 0 -35 -2 -35 -35 0 -33 -2 -35 -35 -35
-33 0 -35 2 -35 35 0 33 -2 35 -35 35 -33 0 -35 2 -35 35 0 33 -2 35 -35 35
l-35 0 0 70 c0 62 -2 70 -19 70 -37 0 -51 -12 -51 -41 l0 -29 -70 0 -70 0 0
35 c0 33 -2 35 -36 35 -31 0 -35 -3 -34 -22 4 -42 0 -48 -30 -48 -28 0 -30 3
-30 34 0 32 3 35 33 38 36 3 49 35 23 57 -25 21 -56 4 -56 -30 0 -27 -3 -29
-35 -29 -33 0 -35 -2 -35 -34 0 -32 3 -35 33 -38 l32 -3 3 -172 2 -173 34 0
33 0 -1 -67 -1 -68 -32 -3 -33 -3 0 -70 0 -69 -70 0 -70 0 0 34 c0 32 3 35 33
38 l32 3 3 138 3 137 -36 0 c-33 0 -35 2 -35 35 0 33 2 35 35 35 l35 0 0 70 0
70 -70 0 -70 0 0 35 c0 33 2 35 35 35 l35 0 0 65 0 65 -35 0 -35 0 0 70 0 70
-71 0 -70 0 3 -32 c3 -29 7 -33 36 -36 29 -3 32 -6 32 -38 0 -22 5 -34 13 -33
53 7 57 2 57 -66 l0 -65 -70 0 -70 0 0 100 0 100 -35 0 -35 0 0 -64 c0 -58 -2
-64 -23 -68 -37 -7 -47 1 -47 38 0 32 -2 34 -32 32 l-33 -3 -3 68 -3 67 -99 0
-100 0 0 -135 0 -135 -70 0 -70 0 0 35 c0 33 2 35 36 35 34 0 35 1 32 32 -3
29 -7 32 -33 33 -26 0 -30 4 -33 33 -3 29 -6 32 -38 32 -32 0 -34 2 -34 35 l0
35 -70 0 -70 0 0 -99z m480 -4 c0 -31 -3 -34 -30 -34 -16 0 -30 5 -31 11 0 6
-2 21 -3 34 -2 19 2 22 31 22 31 0 33 -2 33 -33z m1940 -66 l0 -100 33 -3 32
-3 3 -102 3 -103 -36 0 -35 0 0 -70 0 -70 -35 0 -35 0 0 70 0 70 -35 0 c-33 0
-35 -2 -35 -35 0 -33 -2 -35 -35 -35 -33 0 -35 -2 -35 -35 0 -33 2 -35 35 -35
l34 0 3 -67 3 -68 103 -3 102 -3 0 36 0 35 71 0 70 0 -3 -32 -3 -33 -67 -3
-68 -3 0 -34 0 -35 105 0 105 0 0 70 0 70 34 0 c32 0 34 2 32 33 l-1 32 68 3
67 3 0 34 c0 33 -2 35 -35 35 l-36 0 3 68 3 67 33 3 c29 3 32 6 32 38 0 32 -2
34 -36 34 -34 0 -35 1 -32 33 3 28 7 32 36 35 31 3 32 2 32 -32 0 -34 2 -36
35 -36 33 0 35 2 35 35 l0 36 138 -3 137 -3 3 -32 c3 -30 6 -33 38 -33 l34 0
0 -70 0 -70 35 0 35 0 0 71 0 70 33 -3 32 -3 0 -65 0 -65 -32 -3 c-30 -3 -33
-6 -33 -38 l0 -34 -70 0 -70 0 0 70 0 70 -35 0 -35 0 0 -70 0 -70 -70 0 -70 0
0 35 c0 33 -2 35 -35 35 -33 0 -35 2 -35 36 0 34 -1 35 -32 32 l-33 -3 -3 -67
-3 -68 36 0 c33 0 35 -2 35 -35 l0 -35 175 0 175 0 0 -140 0 -140 35 0 c33 0
35 2 35 35 l0 35 68 0 67 0 -1 -32 -1 -33 -66 -3 -67 -3 0 -64 0 -65 -35 0
-35 0 0 -70 0 -70 35 0 c33 0 35 2 35 36 0 34 1 35 33 32 28 -3 32 -7 35 -35
3 -30 6 -33 38 -33 34 0 35 -1 32 -32 -3 -31 -1 -33 30 -36 l32 -3 0 -70 0
-69 35 0 35 0 0 70 0 70 35 0 c33 0 35 2 35 35 l0 34 -102 3 -103 3 0 100 0
100 65 0 65 0 3 33 c3 29 6 32 38 32 32 0 34 2 34 35 l0 34 -67 3 -68 3 -3 33
-3 32 -65 0 -64 0 0 70 0 70 34 0 c28 0 33 -4 33 -22 1 -44 3 -48 33 -48 28 0
30 -3 30 -35 l0 -35 70 0 70 0 0 34 c0 32 -3 35 -32 38 -29 3 -33 7 -36 35
l-3 32 -67 3 -67 3 0 33 c0 30 -2 32 -32 32 -31 0 -33 2 -33 35 0 33 2 35 34
35 32 0 33 2 33 38 0 20 1 52 2 70 l1 32 65 0 65 0 0 -35 c0 -33 2 -35 35 -35
l35 0 0 -70 0 -70 35 0 c33 0 35 -2 35 -35 0 -33 2 -35 35 -35 33 0 35 2 35
35 0 33 2 35 35 35 l35 0 0 -70 0 -70 -70 0 -71 0 3 -67 3 -68 33 -3 c29 -3
32 -6 32 -38 l0 -34 -70 0 -70 0 0 -30 c0 -17 6 -31 13 -31 6 -1 50 -3 97 -4
47 -2 88 -3 93 -4 4 -1 7 -14 7 -31 0 -28 3 -30 35 -30 33 0 35 2 35 35 0 23
-5 35 -12 34 -45 -6 -58 1 -58 31 0 28 3 30 35 30 32 0 35 -2 35 -30 0 -30 6
-34 48 -30 19 1 22 -3 22 -34 0 -34 -2 -36 -35 -36 -33 0 -35 -2 -35 -35 0
-33 -2 -35 -35 -35 -33 0 -35 2 -35 35 l0 36 -102 -3 -103 -3 -3 -67 -3 -68
35 0 c32 0 35 3 38 33 3 28 7 32 36 35 31 3 32 2 32 -32 0 -34 -2 -36 -35 -36
-33 0 -35 -2 -35 -35 l0 -35 70 0 70 0 0 35 0 35 70 0 70 0 0 -35 c0 -33 -2
-35 -35 -35 -33 0 -35 -2 -35 -35 l0 -35 -140 0 -140 0 0 -35 0 -35 140 0 140
0 0 -35 0 -35 106 0 105 0 -3 -32 -3 -33 -102 -3 -103 -3 0 -34 0 -35 -140 0
-140 0 0 -35 c0 -33 2 -35 35 -35 33 0 35 -2 35 -36 0 -34 -1 -35 -32 -32 -29
3 -33 7 -36 36 -3 29 -6 32 -38 32 -32 0 -34 -2 -34 -35 l0 -35 -170 0 -170 0
0 -30 0 -30 135 0 135 0 0 -70 0 -70 35 0 35 0 0 100 c0 55 3 101 8 101 4 1
19 2 35 3 24 2 27 -1 27 -31 0 -31 2 -33 35 -33 33 0 35 -2 35 -35 0 -33 -2
-35 -35 -35 -33 0 -35 -2 -35 -35 0 -33 2 -35 35 -35 33 0 35 -2 35 -35 l0
-35 70 0 70 0 0 -35 c0 -33 2 -35 35 -35 33 0 35 2 35 35 0 33 2 35 35 35 33
0 35 -2 35 -35 0 -33 -2 -35 -35 -35 l-35 0 0 -70 0 -70 -70 0 -70 0 0 -35 0
-35 70 0 70 0 0 -35 c0 -33 2 -35 35 -35 33 0 35 2 35 35 0 33 2 35 35 35 33
0 35 2 35 35 0 33 -2 35 -35 35 -33 0 -35 2 -35 35 0 33 2 35 35 35 l35 0 0
71 0 70 33 -3 c28 -3 32 -7 35 -35 3 -30 6 -33 38 -33 32 0 34 2 34 35 0 33 2
35 34 35 30 0 34 3 31 20 -7 34 5 50 36 50 l29 0 0 -105 0 -105 -35 0 c-33 0
-35 -2 -35 -35 0 -33 2 -35 35 -35 l35 0 0 -70 0 -70 -64 0 -65 0 -3 -32 c-3
-29 -7 -33 -36 -36 -31 -3 -33 -6 -30 -35 3 -28 7 -32 33 -32 27 0 30 4 33 33
3 28 7 32 33 32 27 0 29 -3 29 -35 0 -32 -2 -35 -30 -35 -27 0 -30 -3 -30 -30
0 -27 3 -30 30 -30 l30 0 0 -70 0 -70 -29 0 c-26 0 -30 4 -33 33 -3 28 -7 32
-35 35 -32 3 -33 2 -33 -32 0 -34 -2 -36 -35 -36 -33 0 -35 -2 -35 -35 l0 -35
99 0 100 0 3 -32 c3 -29 7 -33 36 -36 29 -3 32 -6 32 -38 0 -31 -3 -34 -29
-34 -33 0 -41 -17 -41 -92 l0 -48 35 0 35 0 0 -106 0 -105 -32 3 c-29 3 -33 7
-36 36 -3 31 -6 33 -35 30 -30 -3 -32 -5 -29 -35 3 -32 2 -33 -32 -33 -34 0
-36 2 -36 35 0 33 2 35 35 35 33 0 35 2 35 35 0 33 -2 35 -35 35 l-35 0 0 70
0 70 -70 0 -70 0 0 -35 0 -35 -70 0 -70 0 0 35 c0 33 -2 35 -35 35 -33 0 -35
-2 -35 -35 0 -33 -2 -35 -35 -35 -33 0 -35 -2 -35 -35 0 -33 2 -35 35 -35 l35
0 0 -70 0 -70 -35 0 c-33 0 -35 -2 -35 -35 0 -29 -3 -34 -22 -33 -43 2 -48 -2
-48 -32 l0 -30 70 0 70 0 0 -35 0 -35 -70 0 -70 0 0 35 c0 33 -2 35 -35 35
l-35 0 0 -69 0 -70 -32 -3 c-29 -3 -33 -7 -36 -35 -3 -32 -2 -33 32 -33 32 0
35 3 38 33 l3 32 138 3 137 3 0 34 c0 33 2 35 35 35 33 0 35 -2 35 -35 l0 -34
103 -3 102 -3 3 -32 c3 -30 6 -33 38 -33 32 0 34 2 34 35 0 33 -2 35 -34 35
-32 0 -35 3 -38 33 -3 28 -7 32 -35 35 -30 3 -33 6 -33 38 0 32 2 34 34 34 32
0 35 3 38 32 3 28 7 32 33 33 27 0 30 -4 33 -32 3 -29 7 -33 33 -33 27 0 29
-3 29 -36 0 -34 -1 -35 -32 -32 -31 3 -33 5 -30 36 3 31 2 32 -32 32 -34 0
-36 -2 -36 -34 0 -32 3 -35 33 -38 28 -3 32 -7 35 -35 3 -29 7 -33 33 -33 22
0 29 -5 29 -19 0 -37 12 -51 41 -51 26 0 29 -3 29 -35 0 -33 -2 -35 -35 -35
-33 0 -35 2 -35 35 0 32 -2 35 -30 35 -25 0 -30 -4 -30 -25 0 -14 0 -28 0 -32
-1 -5 13 -10 30 -13 17 -3 31 -8 30 -12 0 -5 0 -19 0 -33 0 -21 -5 -25 -29
-25 -52 0 -49 -67 3 -72 20 -2 30 -8 28 -17 -6 -30 9 -51 39 -51 27 0 29 -3
29 -35 0 -33 -2 -35 -35 -35 -28 0 -35 -4 -35 -19 0 -37 12 -51 41 -51 25 0
29 -4 29 -29 0 -31 -20 -45 -51 -36 -13 4 -19 16 -19 36 0 26 -3 29 -30 29
-28 0 -30 3 -30 35 0 33 -2 35 -35 35 -33 0 -35 2 -35 35 0 33 -2 35 -35 35
-33 0 -35 -2 -35 -35 0 -33 -2 -35 -34 -35 -32 0 -35 -3 -38 -32 -3 -29 -7
-33 -35 -36 -32 -3 -33 -2 -33 32 0 34 2 36 35 36 33 0 35 2 35 35 0 33 -2 35
-35 35 -33 0 -35 2 -35 35 0 33 -2 35 -35 35 l-34 0 -3 -103 -3 -102 -30 0
-30 0 -3 68 -3 67 -34 0 c-33 0 -35 -2 -35 -35 0 -33 -2 -35 -36 -35 -34 0
-35 -1 -32 -32 3 -29 7 -33 35 -36 28 -3 32 -7 35 -35 l3 -32 103 -3 102 -3 0
-29 c0 -28 3 -30 35 -30 33 0 35 -2 35 -35 0 -33 -2 -35 -35 -35 -33 0 -35 2
-35 35 l0 36 -102 -3 -103 -3 -3 -33 c-3 -29 -6 -32 -38 -32 -32 0 -34 -2 -34
-35 0 -33 -2 -35 -35 -35 -33 0 -35 -2 -35 -35 0 -33 2 -35 35 -35 33 0 35 -2
35 -35 0 -33 2 -35 35 -35 33 0 35 -2 35 -35 0 -33 -2 -35 -35 -35 l-35 0 0
-140 0 -140 35 0 c33 0 35 2 35 35 0 33 2 35 35 35 l35 0 0 -70 0 -71 -67 3
-68 3 -3 33 -3 32 -205 0 -204 0 0 -69 0 -70 -27 4 c-16 2 -31 4 -35 4 -5 1
-8 30 -8 66 l0 65 -34 0 c-32 0 -35 -3 -38 -32 -3 -29 -7 -33 -35 -36 -29 -3
-33 -7 -33 -32 0 -25 4 -29 33 -32 28 -3 32 -7 35 -35 l3 -33 -70 0 -71 0 0
64 0 65 -32 3 c-29 3 -33 7 -36 36 -3 29 -6 32 -38 32 -32 0 -34 2 -34 34 0
32 -3 35 -32 38 l-33 3 -3 173 -2 173 -33 -3 c-28 -3 -32 -7 -32 -33 l-1 -30
-207 -3 -207 -2 0 35 c0 33 2 35 35 35 l35 0 0 205 0 205 -35 0 c-33 0 -35 2
-35 35 0 33 -2 35 -35 35 l-35 0 0 -70 0 -70 35 0 35 0 0 -100 0 -100 -35 0
c-33 0 -35 -2 -35 -35 l0 -35 -70 0 -70 0 0 36 c0 34 -1 35 -32 32 l-33 -3 -3
-67 -3 -68 36 0 35 0 0 -70 0 -70 -35 0 -35 0 0 70 0 70 -65 0 -65 0 0 -35 c0
-32 3 -35 29 -35 27 0 29 -3 32 -42 2 -24 3 -55 1 -71 -3 -26 -5 -27 -68 -27
l-64 0 0 -35 c0 -32 3 -35 29 -35 35 0 41 -13 41 -86 l0 -54 -35 0 -35 0 0 70
0 70 -70 0 -70 0 0 -35 c0 -33 2 -35 35 -35 l35 0 0 -70 0 -70 35 0 35 0 0
-63 c0 -35 -2 -66 -5 -69 -3 -2 -18 -3 -34 0 -25 3 -30 9 -33 36 -3 27 -7 31
-35 33 -31 1 -33 -1 -33 -33 l0 -34 -70 0 -70 0 0 100 0 100 70 0 70 0 0 35 0
35 -140 0 -140 0 0 35 0 35 140 0 140 0 0 35 0 35 -140 0 -140 0 0 70 0 70
-70 0 -70 0 0 106 0 105 -32 -3 -33 -3 -3 -102 -3 -103 -64 0 -64 0 -3 -67 -3
-68 -32 -3 c-30 -3 -33 -6 -33 -38 0 -32 2 -34 36 -34 34 0 35 -1 32 -32 -3
-29 -7 -33 -35 -36 -32 -3 -33 -2 -33 32 0 34 -2 36 -35 36 -33 0 -35 2 -35
35 0 33 2 35 35 35 33 0 35 2 35 35 0 33 -2 35 -35 35 -33 0 -35 2 -35 35 0
33 2 35 36 35 34 0 35 1 32 33 l-3 32 -67 3 -68 3 0 -71 0 -70 -70 0 -70 0 0
-35 c0 -33 -2 -35 -35 -35 l-35 0 0 -70 0 -70 35 0 c33 0 35 2 35 35 0 33 2
35 35 35 33 0 35 -2 35 -35 0 -33 -2 -35 -35 -35 -33 0 -35 -2 -35 -35 0 -33
-2 -35 -35 -35 -33 0 -35 2 -35 35 0 33 -2 35 -35 35 -33 0 -35 -2 -35 -35 l0
-35 -205 0 -205 0 0 69 0 70 33 3 32 3 3 68 3 68 67 -3 67 -3 0 -30 c0 -27 4
-30 33 -33 31 -3 32 -2 32 32 0 34 2 36 35 36 33 0 35 2 35 35 l0 35 70 0 70
0 0 35 c0 33 2 35 35 35 33 0 35 2 35 35 0 33 2 35 35 35 33 0 35 2 35 36 0
34 1 35 33 32 28 -3 32 -7 35 -35 3 -30 6 -33 38 -33 l34 0 0 100 0 100 -35 0
-35 0 0 140 0 140 -35 0 c-33 0 -35 2 -35 35 0 33 -2 35 -35 35 -33 0 -35 2
-35 35 0 33 -2 35 -35 35 l-35 0 0 -70 0 -70 35 0 35 0 0 -70 0 -70 35 0 35 0
0 -65 c0 -59 -2 -65 -23 -70 -13 -4 -27 -5 -33 -4 -5 1 -26 1 -46 0 -35 -1
-38 -3 -38 -31 0 -28 3 -30 35 -30 33 0 35 -2 35 -35 0 -33 -2 -35 -35 -35
-33 0 -35 2 -35 36 0 34 -1 35 -32 32 l-33 -3 -3 -67 -3 -67 -32 -3 c-28 -3
-32 -7 -35 -35 -3 -30 -6 -33 -38 -33 -32 0 -34 -2 -34 -35 l0 -35 -135 0
-135 0 0 35 c0 33 2 35 35 35 33 0 35 2 35 36 0 34 1 35 33 32 28 -3 32 -7 35
-35 l3 -33 65 0 64 0 0 70 0 70 -33 0 c-31 0 -33 2 -32 33 0 29 -3 32 -32 35
-32 3 -33 2 -33 -32 l0 -36 -70 0 -70 0 0 134 0 135 33 3 32 3 3 67 3 67 32 3
c28 3 32 7 35 36 l3 32 -70 0 -71 0 0 35 c0 33 2 35 36 35 34 0 35 1 32 33
l-3 32 -67 3 -68 3 0 -106 0 -105 35 0 c33 0 35 -2 35 -35 0 -33 -2 -35 -35
-35 -33 0 -35 -2 -35 -35 l0 -35 -105 0 -105 0 0 -35 c0 -33 2 -35 35 -35 32
0 35 -3 35 -29 0 -29 -14 -41 -51 -41 -14 0 -19 -7 -19 -28 0 -37 -4 -39 -40
-34 -27 4 -30 8 -30 39 0 28 -3 34 -16 29 -9 -3 -24 -6 -35 -6 -17 0 -19 -8
-19 -65 l0 -65 -70 0 -70 0 0 100 0 100 34 0 c32 0 35 -3 38 -32 3 -29 7 -33
36 -36 31 -3 32 -2 32 32 0 34 2 36 34 36 32 0 35 -3 38 -32 3 -29 7 -33 36
-36 31 -3 32 -2 32 32 0 32 -3 35 -32 38 -29 3 -33 7 -36 35 l-3 32 -102 3
-102 3 -3 67 -4 68 36 0 c32 0 35 -3 38 -32 l3 -33 68 -3 67 -3 0 36 c0 33 2
35 35 35 33 0 35 2 35 35 0 33 -2 35 -35 35 -33 0 -35 2 -35 35 0 33 2 35 35
35 33 0 35 -2 35 -35 0 -33 2 -35 35 -35 33 0 35 2 35 35 0 33 2 35 35 35 33
0 35 2 35 35 0 33 2 35 35 35 33 0 35 2 35 35 l0 35 71 0 70 0 -3 33 -3 32
-67 3 -68 3 0 34 c0 33 2 35 35 35 l35 0 0 65 0 65 -70 0 -70 0 0 35 0 35 70
0 70 0 0 35 0 35 -70 0 -70 0 0 35 c0 33 2 35 35 35 33 0 35 2 35 35 0 33 2
35 35 35 33 0 35 2 35 35 0 33 2 35 35 35 l35 0 0 -105 0 -104 68 -3 67 -3 0
-30 c0 -27 4 -30 33 -33 29 -3 32 -6 32 -37 0 -31 -3 -34 -32 -37 -26 -2 -33
-8 -32 -23 1 -11 2 -39 2 -62 2 -41 4 -43 32 -43 28 0 30 -3 30 -35 l0 -35
-64 0 -65 0 -3 33 c-3 28 -7 32 -35 35 -32 3 -33 2 -33 -32 0 -32 3 -35 33
-38 l32 -3 3 -138 3 -138 32 3 32 3 1 100 2 100 30 3 c27 3 31 8 34 35 3 28 7
32 36 35 l32 3 0 135 0 134 35 0 35 0 0 70 0 70 -135 0 -135 0 0 140 0 140 30
0 c25 0 30 -4 36 -35 5 -30 10 -35 35 -35 l29 0 0 70 0 70 -32 0 c-30 0 -33 3
-33 33 l0 32 68 3 67 3 0 99 0 100 -35 0 c-33 0 -35 -2 -35 -36 l0 -36 -65 4
-65 3 0 -32 c0 -32 6 -37 43 -34 11 2 17 -5 17 -18 0 -10 3 -26 6 -35 5 -13
-1 -16 -30 -16 -34 0 -36 -1 -36 -35 l0 -35 -140 0 -140 0 0 -70 0 -70 -35 0
-35 0 0 70 0 70 -35 0 c-33 0 -35 -2 -35 -35 0 -33 -2 -35 -35 -35 -33 0 -35
2 -35 35 0 33 2 35 35 35 33 0 35 2 35 35 0 33 -2 35 -35 35 -33 0 -35 2 -35
35 l0 35 70 0 70 0 0 65 0 65 -35 0 c-33 0 -35 2 -35 35 0 33 -2 35 -35 35
-33 0 -35 2 -35 35 0 33 2 35 35 35 33 0 35 2 35 35 0 33 2 35 35 35 33 0 35
2 35 35 0 33 -2 35 -35 35 -33 0 -35 2 -35 35 0 33 -2 35 -35 35 -33 0 -35 2
-35 35 0 33 2 35 35 35 33 0 35 -2 35 -35 0 -33 2 -35 35 -35 33 0 35 2 35 35
0 33 2 35 35 35 l35 0 0 106 0 105 33 -3 c28 -3 32 -7 35 -35 3 -30 6 -33 38
-33 l34 0 0 100 0 100 35 0 35 0 0 -65 0 -65 71 0 71 0 -7 27 c-8 32 -23 45
-47 39 -16 -4 -18 6 -18 100 l0 104 -35 0 c-33 0 -35 2 -35 34 0 32 3 35 33
38 28 3 32 7 35 36 l3 32 -105 0 -106 0 0 -35 c0 -33 2 -35 35 -35 33 0 35 -2
35 -35 0 -33 -2 -35 -35 -35 -33 0 -35 2 -35 35 0 33 -2 35 -35 35 -33 0 -35
2 -35 35 0 33 -2 35 -35 35 -33 0 -35 2 -35 35 0 33 -2 35 -35 35 -33 0 -35
-2 -35 -35 0 -33 -2 -35 -35 -35 -33 0 -35 -2 -35 -35 0 -33 -2 -35 -35 -35
-33 0 -35 -2 -35 -36 0 -34 -1 -35 -32 -32 -29 3 -33 7 -36 35 -3 28 -7 32
-35 35 -28 3 -32 7 -34 36 l-1 32 104 0 104 0 0 35 c0 33 2 35 35 35 33 0 35
2 35 35 0 33 2 35 35 35 l35 0 0 70 0 70 36 0 c34 0 35 1 32 33 -3 28 -7 32
-35 35 -30 3 -33 6 -33 38 0 34 1 35 33 32 30 -3 32 -1 35 30 3 29 6 32 38 32
32 0 34 2 34 35 l0 35 -70 0 -70 0 0 35 0 34 68 3 67 3 3 33 c3 29 6 32 38 32
32 0 34 -2 34 -35 l0 -35 100 0 c82 0 100 3 101 15 1 8 2 23 3 33 1 12 -8 18
-31 20 -30 3 -33 6 -33 38 0 32 -2 34 -35 34 l-35 0 0 70 0 70 -35 0 c-33 0
-35 2 -35 35 0 33 -2 35 -35 35 l-35 0 0 -70 0 -70 -35 0 -35 0 0 105 0 105
35 0 c33 0 35 2 35 35 0 33 2 35 35 35 33 0 35 -2 35 -35 0 -33 2 -35 35 -35
l35 0 0 -70 0 -70 35 0 35 0 0 70 0 70 30 0 c17 0 31 -3 31 -7 7 -45 9 -126 4
-160 -6 -40 -9 -43 -36 -43 -27 0 -29 -3 -29 -35 0 -32 2 -35 30 -35 30 0 37
-13 31 -57 -1 -9 18 -13 69 -13 l70 0 0 34 c0 32 -3 35 -32 38 -29 3 -33 6
-33 33 0 27 4 30 33 33 31 3 32 2 32 -32 0 -34 2 -36 35 -36 33 0 35 2 35 35
l0 35 70 0 70 0 0 70 0 70 -35 0 c-33 0 -35 -2 -35 -35 0 -33 -2 -35 -35 -35
-33 0 -35 2 -35 36 0 34 -1 35 -32 32 -29 -3 -33 -7 -36 -35 -3 -30 -6 -33
-38 -33 -34 0 -35 1 -32 33 3 28 7 32 36 35 29 3 32 6 32 38 0 32 -2 34 -35
34 -33 0 -35 2 -35 34 0 32 -3 35 -32 38 -29 3 -33 6 -33 33 l0 30 68 3 67 3
0 -36 0 -35 105 0 105 0 0 -35 0 -35 70 0 70 0 0 -35 c0 -33 2 -35 35 -35 33
0 35 -2 35 -35 0 -33 -2 -35 -35 -35 l-35 0 0 -70 0 -70 35 0 35 0 0 -70 0
-70 -35 0 -35 0 0 -71 c0 -67 1 -70 23 -69 41 4 46 0 49 -32 3 -29 6 -33 33
-33 27 0 30 -4 33 -32 3 -30 6 -33 38 -33 l34 0 0 65 0 65 36 0 c30 0 36 -3
31 -19 -6 -25 10 -50 31 -46 9 2 22 4 28 4 8 1 9 12 5 33 -6 27 -11 32 -36 33
l-30 0 0 67 0 68 68 0 67 0 0 34 c0 32 -3 35 -32 38 -29 3 -33 7 -36 36 -3 31
-2 32 32 32 32 0 35 -3 38 -32 3 -29 7 -33 36 -36 29 -3 32 -6 32 -38 0 -32 2
-34 35 -34 33 0 35 2 35 35 0 33 2 35 35 35 l35 0 0 70 0 70 -35 0 -35 0 0 70
0 70 35 0 35 0 0 -70 0 -70 140 0 140 0 0 35 c0 33 -2 35 -35 35 -33 0 -35 2
-35 36 0 34 1 35 33 32 28 -3 32 -7 35 -35 3 -30 6 -33 38 -33 32 0 34 2 34
35 0 33 2 35 35 35 l36 0 -3 -67 -3 -68 -67 -3 -68 -3 0 -34 c0 -33 2 -35 36
-35 34 0 35 -1 32 -32 -3 -29 -7 -33 -35 -36 -30 -3 -33 -6 -33 -38 0 -32 2
-34 35 -34 33 0 35 -2 35 -36 0 -34 1 -35 33 -32 20 2 33 9 33 18 1 8 2 23 3
33 1 14 11 17 66 17 l65 0 0 34 c0 32 -3 35 -32 38 -21 2 -34 9 -34 18 -1 8
-2 23 -3 33 -1 12 -10 17 -31 17 -16 0 -30 3 -31 8 -8 60 -7 62 28 62 33 0 38
-7 34 -52 -2 -14 5 -18 33 -18 34 0 36 2 36 35 l0 35 70 0 70 0 0 35 c0 33 -2
35 -35 35 -33 0 -35 2 -35 35 0 33 2 35 35 35 33 0 35 -2 35 -35 0 -33 2 -35
35 -35 33 0 35 2 35 35 0 33 2 35 35 35 33 0 35 -2 35 -35 0 -33 2 -35 35 -35
l35 0 0 105 0 105 -35 0 c-33 0 -35 -2 -35 -35 0 -33 -2 -35 -35 -35 l-35 0 0
70 0 70 35 0 35 0 0 65 0 65 35 0 35 0 0 -99z m900 70 c0 -24 -5 -31 -29 -36
-15 -3 -32 -5 -37 -4 -5 1 -24 1 -41 0 -30 -1 -33 -4 -33 -31 l0 -30 -71 0
-70 0 3 33 3 32 68 -3 67 -4 0 36 0 36 70 0 70 0 0 -29z m-552 -136 c-1 -33
-3 -35 -35 -35 -31 0 -33 2 -33 35 0 33 2 35 35 35 33 0 34 -1 33 -35z m-1388
-210 l0 -105 -102 0 -103 0 1 98 c1 53 2 100 3 105 1 4 46 7 101 7 l100 0 0
-105z m1385 -2 l0 -103 -102 0 -103 0 0 105 0 106 102 -3 103 -3 0 -102z
m1592 -330 c0 -48 3 -53 33 -53 28 0 30 -3 30 -35 0 -33 -2 -35 -36 -35 -34 0
-35 -1 -32 -32 3 -30 1 -32 -27 -33 -26 0 -30 -4 -33 -32 -3 -30 -6 -33 -38
-33 l-34 0 0 -70 0 -70 65 0 64 0 3 -67 3 -68 33 -3 c29 -3 32 -6 32 -38 0
-31 -3 -34 -29 -34 -36 0 -44 -10 -35 -45 5 -19 12 -25 35 -25 27 0 29 -3 29
-35 l0 -36 -67 3 -67 3 3 68 2 67 -105 0 -106 0 0 35 0 35 105 0 105 0 0 35 0
35 -70 0 -69 0 -3 138 -3 137 -30 0 c-26 1 -30 4 -33 33 l-3 32 70 0 71 0 0
-29 c0 -35 12 -45 46 -37 22 6 24 11 24 71 l0 65 -105 0 -105 0 0 35 0 35 139
0 c125 0 138 -2 138 -17z m-67 -778 l0 -35 65 0 65 0 0 -35 c0 -33 -2 -35 -35
-35 -27 0 -35 -4 -34 -17 1 -27 12 -48 27 -49 6 -1 19 -2 27 -2 10 -1 15 -13
15 -32 l0 -30 -65 0 -65 0 0 -35 c0 -32 3 -35 29 -35 22 0 30 -5 33 -23 7 -35
-1 -47 -32 -47 -25 0 -29 4 -32 33 -3 28 -7 32 -35 35 -30 3 -33 6 -33 38 0
32 2 34 35 34 32 0 35 2 35 30 0 30 -8 35 -52 31 -14 -2 -18 5 -18 33 0 34 -2
36 -35 36 -33 0 -35 2 -35 34 0 32 3 35 33 38 28 3 32 7 35 36 3 29 6 32 38
32 32 0 34 -2 34 -35z m-4290 -270 l0 -105 -105 0 -105 0 0 100 0 99 103 4
c56 1 103 4 105 5 1 1 2 -45 2 -103z m4150 -5 l0 -100 -105 0 -105 0 0 100 0
100 105 0 105 0 0 -100z m-4080 -1105 c0 -33 -2 -35 -35 -35 -33 0 -35 2 -35
35 0 33 2 35 35 35 33 0 35 -2 35 -35z m-140 -70 c0 -33 -2 -35 -35 -35 -33 0
-35 2 -35 35 0 33 2 35 35 35 33 0 35 -2 35 -35z m70 -204 l0 -100 -101 -3
c-55 -2 -103 -1 -105 1 -2 2 -4 49 -4 103 l0 98 105 0 105 0 0 -99z m4150 1
c0 -54 -2 -101 -4 -103 -2 -2 -50 -3 -105 -1 l-101 3 0 100 0 99 105 0 105 0
0 -98z m-4012 -130 c6 -38 -3 -49 -37 -44 -26 4 -31 9 -31 32 0 30 12 40 45
37 13 -1 21 -11 23 -25z m-418 -77 c0 -33 -2 -35 -35 -35 -33 0 -35 2 -35 35
0 33 2 35 35 35 33 0 35 -2 35 -35z m-132 -832 c3 -32 2 -33 -32 -33 -35 0
-36 1 -36 36 0 34 1 35 33 32 28 -3 32 -7 35 -35z m342 2 c0 -33 -2 -35 -35
-35 -32 0 -35 3 -35 28 0 16 3 32 7 35 3 4 19 7 35 7 25 0 28 -3 28 -35z
m-140 -70 c0 -33 -2 -35 -35 -35 -32 0 -35 3 -35 28 0 16 3 32 7 35 3 4 19 7
35 7 25 0 28 -3 28 -35z m4220 0 l0 -35 140 0 140 0 0 -35 0 -35 -175 0 -175
0 0 35 0 35 -70 0 -70 0 0 35 0 35 105 0 105 0 0 -35z m-3870 -140 c0 -33 2
-35 35 -35 33 0 35 -2 35 -35 0 -33 -2 -35 -35 -35 -33 0 -35 2 -35 35 0 33
-2 35 -35 35 -33 0 -35 2 -35 35 0 33 2 35 35 35 33 0 35 -2 35 -35z m2140 0
c0 -33 2 -35 35 -35 33 0 35 -2 35 -35 0 -33 2 -35 35 -35 33 0 35 2 35 35 0
33 2 35 35 35 l35 0 0 -105 0 -105 -105 0 -105 0 0 -35 c0 -33 -2 -35 -35 -35
l-35 0 0 70 0 69 -67 3 -68 3 -3 33 -3 32 70 0 71 0 0 -35 0 -35 70 0 70 0 0
35 c0 33 -2 35 -35 35 -33 0 -35 2 -35 35 0 33 -2 35 -35 35 -33 0 -35 2 -35
35 0 33 2 35 35 35 33 0 35 -2 35 -35z m2071 25 c1 -5 2 -20 3 -32 1 -18 8
-24 34 -26 l32 -3 0 -70 0 -70 -32 3 c-30 3 -33 6 -33 36 l0 32 -67 0 -68 0 0
35 c0 33 2 35 36 35 33 0 35 2 34 28 -1 15 -2 30 -1 35 2 11 61 8 62 -3z
m-2971 -165 l0 -106 -102 3 -102 3 -1 102 0 103 103 0 102 0 0 -105z m1384 0
l0 -100 -102 -3 -102 -3 0 106 0 106 102 -3 103 -3 -1 -100z m1384 3 l-3 -103
-102 -3 -103 -3 0 106 0 105 105 0 106 0 -3 -102z m-2078 -144 c0 -34 -1 -35
-32 -32 -28 3 -32 7 -35 36 -4 31 -3 32 31 32 35 0 36 -1 36 -36z m2350 1 c0
-32 -3 -35 -29 -35 -29 0 -41 14 -41 51 0 15 7 19 35 19 33 0 35 -2 35 -35z
m-2002 -67 c-3 -29 -7 -33 -35 -36 -29 -3 -33 -7 -33 -33 0 -27 -3 -29 -35
-29 -32 0 -35 2 -35 30 0 28 3 30 35 30 33 0 35 2 35 35 0 33 2 35 36 35 34 0
35 -1 32 -32z m1932 -1 c0 -29 -3 -33 -30 -35 -28 -2 -30 0 -30 33 0 32 2 35
30 35 27 0 30 -3 30 -33z m-3800 -66 c0 -35 -4 -38 -40 -33 -25 4 -30 9 -30
32 0 24 5 29 28 32 37 5 42 1 42 -31z m3870 1 c0 -37 -4 -39 -40 -34 -23 3
-30 9 -30 26 0 30 8 36 42 36 24 0 28 -4 28 -28z m-4212 -69 c3 -32 2 -33 -32
-33 -35 0 -36 1 -36 36 0 34 1 35 33 32 28 -3 32 -7 35 -35z m2210 -1 c3 -31
2 -32 -32 -32 -33 0 -36 3 -36 28 0 36 4 39 38 37 23 -1 27 -6 30 -33z m956
32 c10 -4 16 -18 16 -35 0 -26 -3 -29 -35 -29 -32 0 -35 3 -35 28 0 41 15 51
54 36z"/>
<path d="M4600 5935 c0 -33 2 -35 35 -35 33 0 35 -2 35 -35 0 -33 2 -35 35
-35 l35 0 0 70 0 70 -70 0 -70 0 0 -35z"/>
<path d="M2460 5865 c0 -33 2 -35 35 -35 33 0 35 2 35 35 0 33 -2 35 -35 35
-33 0 -35 -2 -35 -35z"/>
<path d="M5227 5893 c-4 -3 -7 -19 -7 -35 0 -25 3 -28 35 -28 33 0 35 2 35 35
0 32 -3 35 -28 35 -16 0 -32 -3 -35 -7z"/>
<path d="M2390 5725 l0 -35 -70 0 -70 0 0 -35 0 -35 70 0 70 0 0 35 c0 33 2
35 35 35 l35 0 0 -70 0 -70 -175 0 -175 0 0 -35 c0 -33 -2 -35 -32 -35 -31 0
-33 -2 -32 -32 1 -29 4 -33 32 -36 31 -3 32 -2 32 32 0 34 2 36 34 36 32 0 35
-3 38 -32 3 -29 7 -33 35 -36 28 -3 32 -7 35 -35 3 -30 5 -32 36 -29 31 3 32
2 32 -32 0 -34 -2 -36 -35 -36 -32 0 -35 2 -35 30 l0 30 -82 1 c-46 0 -91 2
-100 4 -15 3 -18 -4 -18 -35 0 -20 -3 -52 -6 -69 -5 -26 -11 -31 -35 -31 -24
0 -28 4 -31 33 -3 28 -7 32 -35 35 -29 3 -33 7 -33 33 0 29 -2 30 -50 33 -9 1
-16 13 -18 34 -3 29 -6 32 -38 32 -31 0 -34 -2 -34 -30 0 -30 9 -35 53 -32 15
2 17 -8 17 -68 l0 -70 70 0 70 0 0 -35 c0 -33 -2 -35 -35 -35 -33 0 -35 -2
-35 -35 0 -33 -2 -35 -35 -35 -33 0 -35 2 -35 35 0 33 -2 35 -35 35 -33 0 -35
2 -35 35 0 33 -2 35 -35 35 l-35 0 0 -70 0 -70 -35 0 c-33 0 -35 -2 -35 -35 0
-33 2 -35 35 -35 33 0 35 2 35 35 l0 35 70 0 70 0 0 -35 c0 -33 2 -35 35 -35
33 0 35 2 35 35 0 33 2 35 35 35 33 0 35 2 35 36 0 34 1 35 33 32 20 -2 32 -9
33 -18 1 -8 2 -39 2 -67 2 -52 3 -53 32 -53 28 0 30 -3 30 -35 0 -33 2 -35 35
-35 33 0 35 -2 35 -35 l0 -35 -64 0 c-60 0 -64 -2 -70 -25 -10 -39 0 -45 70
-45 l64 0 0 -35 0 -35 -69 0 -69 0 1 -32 2 -33 68 -3 67 -3 0 36 c0 33 2 35
35 35 l35 0 0 105 0 105 35 0 c33 0 35 -2 35 -35 0 -33 2 -35 35 -35 33 0 35
2 35 35 0 33 -2 35 -35 35 -33 0 -35 2 -35 35 l0 35 -106 0 -105 0 3 33 3 32
68 3 67 3 0 34 c0 33 2 35 35 35 33 0 35 -2 35 -35 0 -33 2 -35 35 -35 33 0
35 -2 35 -35 l0 -35 70 0 70 0 0 -70 0 -70 -35 0 c-33 0 -35 -2 -35 -35 l0
-35 -70 0 -70 0 0 -35 c0 -33 2 -35 35 -35 l35 0 0 -71 c0 -47 4 -68 11 -64 5
4 21 4 35 1 18 -5 24 -13 24 -36 0 -25 4 -29 33 -32 28 -3 32 -7 35 -35 3 -30
6 -33 38 -33 l34 0 0 -70 0 -69 68 -3 67 -3 3 -32 3 -33 -105 0 -106 0 0 35 0
35 -70 0 -70 0 0 35 c0 33 2 35 35 35 33 0 35 2 35 35 l0 35 -175 0 -175 0 0
35 0 35 105 0 105 0 0 65 0 65 -35 0 c-34 0 -35 -1 -35 -36 l0 -37 -57 5 c-74
7 -83 3 -83 -33 0 -25 -4 -29 -29 -29 -30 0 -45 -21 -39 -51 2 -9 -9 -15 -29
-17 l-33 -3 0 -70 0 -69 65 0 65 0 0 -35 0 -35 -135 0 -135 0 0 35 c0 33 2 35
35 35 l36 0 -3 68 -3 67 -32 3 -33 3 0 -70 0 -71 -70 0 -70 0 0 -35 c0 -33 -2
-35 -35 -35 -33 0 -35 -2 -35 -35 l0 -35 70 0 70 0 0 35 c0 33 2 35 35 35 l35
0 0 -70 0 -70 -35 0 c-33 0 -35 -2 -35 -35 l0 -35 106 0 105 0 -3 -32 c-3 -29
-7 -33 -35 -36 -28 -3 -32 -7 -35 -35 -3 -28 -7 -32 -35 -35 -30 -3 -33 -6
-33 -38 l0 -35 68 3 67 3 3 68 3 67 64 0 65 0 0 35 c0 33 2 35 35 35 l35 0 0
-70 0 -70 35 0 c32 0 35 -2 35 -30 0 -16 3 -31 8 -31 61 -10 62 -9 62 27 0 32
-2 34 -35 34 l-35 0 0 70 0 70 -35 0 c-33 0 -35 2 -35 35 0 33 2 35 35 35 l35
0 0 70 0 70 35 0 c33 0 35 2 35 35 0 33 2 35 35 35 l35 0 0 -70 0 -70 35 0
c33 0 35 -2 35 -35 0 -33 -2 -35 -35 -35 -33 0 -35 -2 -35 -35 0 -33 -2 -35
-35 -35 -33 0 -35 -2 -35 -35 0 -33 2 -35 35 -35 l34 0 3 -67 3 -68 30 0 c27
0 30 4 33 33 3 29 6 32 38 32 l34 0 0 -135 0 -135 35 0 c33 0 35 -2 35 -35 0
-33 -2 -35 -35 -35 l-35 0 0 -70 0 -70 -35 0 c-33 0 -35 -2 -35 -35 0 -33 -2
-35 -35 -35 -33 0 -35 2 -35 35 0 33 -2 35 -35 35 l-35 0 0 70 0 70 70 0 70 0
0 35 0 35 -70 0 -70 0 0 35 c0 33 2 35 36 35 34 0 35 1 32 33 l-3 32 -65 0
-65 0 -3 -32 c-3 -30 -6 -33 -38 -33 -32 0 -34 -2 -34 -35 l0 -35 70 0 70 0 0
-35 0 -35 -70 0 -70 0 0 -35 c0 -33 2 -35 35 -35 33 0 35 -2 35 -35 l0 -35
-70 0 -70 0 0 -35 0 -35 70 0 70 0 0 -35 0 -35 70 0 69 0 3 -67 3 -68 33 -3
c31 -3 32 -2 32 32 0 34 2 36 35 36 33 0 35 -2 35 -36 0 -34 1 -35 33 -32 28
3 32 7 35 36 3 31 2 32 -32 32 -34 0 -36 2 -36 35 l0 35 70 0 70 0 0 35 0 36
68 -3 67 -3 0 -30 c0 -26 -4 -30 -32 -33 l-32 -3 -3 -132 -3 -132 -68 -5 -67
-5 0 33 c0 30 -2 32 -35 32 l-35 0 0 -65 0 -65 -35 0 c-33 0 -35 -2 -35 -35
l0 -34 -102 -3 -103 -3 -3 -67 -3 -67 -32 -3 -32 -3 -3 -67 -3 -68 -34 0 -35
0 0 -70 0 -70 -33 0 -33 0 1 -68 0 -67 -67 -3 -68 -3 0 -34 0 -35 53 0 c61 0
74 7 78 40 3 20 11 26 37 28 29 3 32 6 32 38 0 32 2 34 35 34 l35 0 0 -65 c0
-60 2 -65 24 -71 39 -9 46 2 46 72 l0 64 -35 0 -35 0 0 70 0 70 35 0 35 0 0
105 0 105 70 0 70 0 0 -35 c0 -33 2 -35 35 -35 33 0 35 2 35 35 0 33 -2 35
-35 35 -33 0 -35 2 -35 35 l0 35 70 0 70 0 0 71 0 70 33 -3 32 -3 3 -102 3
-103 34 0 c33 0 35 -2 35 -35 l0 -35 -70 0 -70 0 0 -35 0 -35 70 0 70 0 0 -70
0 -70 65 0 c55 0 65 -3 66 -17 1 -10 2 -25 3 -33 0 -9 13 -16 34 -18 23 -2 32
-8 32 -22 0 -36 12 -50 41 -50 l29 0 0 -65 c0 -67 1 -69 48 -65 21 1 22 -2 22
-69 l0 -71 35 0 c33 0 35 2 35 35 0 33 2 35 35 35 l35 0 0 -70 0 -70 35 0 c33
0 35 2 35 35 0 33 2 35 35 35 33 0 35 -2 35 -35 0 -33 2 -35 35 -35 33 0 35
-2 35 -35 0 -33 2 -35 35 -35 33 0 35 -2 35 -35 0 -33 -2 -35 -35 -35 -33 0
-35 -2 -35 -35 0 -33 2 -35 35 -35 33 0 35 2 35 35 l0 34 68 3 67 3 0 30 c0
27 -4 30 -32 33 l-33 3 0 105 0 105 33 -3 c28 -3 32 -7 35 -35 3 -29 7 -33 32
-33 25 0 29 4 32 32 3 29 7 33 36 36 29 3 32 6 32 38 l0 34 70 0 70 0 0 -35
c0 -33 2 -35 35 -35 33 0 35 2 35 35 0 33 -2 35 -36 35 -34 0 -35 1 -32 32 3
29 7 32 33 33 26 0 30 4 33 33 3 31 2 32 -32 32 -34 0 -36 -2 -36 -34 0 -32
-2 -34 -32 -33 l-33 2 -3 68 -3 67 36 0 35 0 0 70 0 70 70 0 70 0 0 -35 c0
-33 2 -35 35 -35 l35 0 0 70 0 70 35 0 35 0 0 -176 0 -175 23 1 c41 4 47 0 47
-30 0 -28 -3 -30 -35 -30 l-35 0 0 -70 0 -70 35 0 c33 0 35 -2 35 -35 l0 -35
71 0 70 0 -3 33 -3 32 -67 3 -68 3 0 34 c0 33 2 35 35 35 33 0 35 2 35 36 0
34 1 35 33 32 29 -3 32 -6 32 -36 0 -30 2 -32 35 -32 l35 0 0 62 c0 62 0 63
30 68 25 4 30 10 33 38 3 31 2 32 -32 32 -33 0 -34 -1 -31 -35 3 -34 2 -35
-31 -35 -32 0 -34 2 -34 35 l0 35 -70 0 -70 0 0 69 0 70 33 3 c28 3 32 7 35
36 3 29 6 32 38 32 34 0 35 -1 32 -32 -3 -29 -7 -33 -35 -36 -30 -3 -33 -6
-33 -38 l0 -34 99 0 100 0 3 -32 c3 -29 7 -33 36 -36 31 -3 32 -2 32 32 l0 36
105 0 105 0 0 35 0 35 -70 0 -70 0 0 35 c0 33 2 35 35 35 33 0 35 2 35 35 0
33 -2 35 -35 35 -33 0 -35 2 -35 35 l0 35 70 0 70 0 0 -35 c0 -33 2 -35 35
-35 l35 0 0 -70 0 -70 35 0 35 0 0 70 0 70 35 0 c33 0 35 2 35 35 0 33 2 35
35 35 l36 0 -3 -103 -3 -102 -32 -3 c-30 -3 -33 -6 -33 -38 l0 -34 -70 0 -71
0 3 -68 3 -67 30 0 c26 0 30 4 33 32 3 28 7 32 35 35 28 3 32 7 35 36 l3 32
100 0 c91 0 99 2 99 19 0 45 9 51 75 51 l64 0 3 -32 c3 -29 7 -33 36 -36 31
-3 32 -2 32 32 0 34 -2 36 -35 36 -33 0 -35 2 -35 35 l0 35 140 0 140 0 0 35
c0 33 2 35 35 35 33 0 35 -2 35 -35 l0 -36 103 3 102 3 3 33 c3 29 6 32 38 32
33 0 35 1 32 35 l-2 35 -68 0 -68 0 0 -35 0 -35 -70 0 -70 0 0 35 c0 33 2 35
35 35 33 0 35 2 35 35 0 33 -2 35 -35 35 -33 0 -35 2 -35 35 0 33 -2 35 -35
35 -33 0 -35 -2 -35 -35 l0 -35 -70 0 -70 0 0 -35 c0 -33 -2 -35 -35 -35 -33
0 -35 2 -35 35 0 33 -2 35 -35 35 -33 0 -35 -2 -35 -35 l0 -36 -67 3 -67 3 -1
30 c0 26 -4 30 -32 33 -30 3 -33 6 -33 37 0 31 3 34 33 37 28 3 32 6 32 33 0
26 4 30 32 33 28 3 32 7 35 35 3 28 7 32 36 35 28 3 32 7 32 33 0 20 -5 29
-17 30 -10 1 -25 2 -33 3 -9 0 -16 14 -18 34 -3 31 -6 33 -35 30 -24 -2 -32
-8 -33 -23 0 -11 -1 -39 -2 -62 l-2 -43 -65 0 -65 0 0 36 c0 28 4 35 18 33 44
-4 52 1 52 31 0 28 -3 30 -35 30 -33 0 -35 2 -35 35 l0 35 99 0 100 0 3 -32 3
-33 103 -3 102 -3 0 71 0 70 -35 0 c-33 0 -35 2 -35 35 0 33 -2 35 -35 35 -33
0 -35 -2 -35 -35 l0 -35 -135 0 -135 0 0 35 0 35 100 0 100 0 0 35 c0 33 2 35
35 35 l35 0 0 70 0 70 35 0 c33 0 35 -2 35 -35 0 -33 2 -35 35 -35 33 0 35 -2
35 -35 0 -33 2 -35 35 -35 l35 0 0 70 0 70 35 0 c33 0 35 2 35 35 0 33 2 35
35 35 l35 0 0 -70 0 -70 -35 0 c-33 0 -35 -2 -35 -35 0 -33 2 -35 35 -35 33 0
35 2 35 35 l0 35 106 0 105 0 -3 33 -3 32 -67 3 -68 3 0 69 0 70 35 0 35 0 0
170 0 170 -34 0 c-32 0 -35 -3 -38 -32 -3 -29 -7 -33 -35 -36 -32 -3 -33 -2
-33 32 0 34 -2 36 -35 36 -33 0 -35 -2 -35 -35 0 -33 2 -35 36 -35 34 0 35 -1
32 -32 l-3 -33 -67 -3 -68 -3 0 106 0 105 -35 0 c-33 0 -35 2 -35 35 0 33 2
35 35 35 33 0 35 2 35 35 0 33 2 35 35 35 33 0 35 2 35 35 l0 35 -70 0 -70 0
0 35 c0 33 -2 35 -35 35 -33 0 -35 2 -35 35 0 33 -2 35 -35 35 -33 0 -35 -2
-35 -35 l0 -35 -134 0 -135 0 -3 33 c-3 28 -7 32 -35 35 -30 3 -33 6 -33 38 0
32 -2 34 -34 34 -32 0 -35 3 -38 33 -3 28 -7 32 -35 35 l-33 3 0 -70 0 -71
-70 0 -71 0 3 68 3 67 33 3 c28 3 32 7 32 32 0 33 19 43 74 36 51 -7 66 1 66
35 l0 29 -70 0 -70 0 0 -29 c0 -38 -18 -44 -123 -40 l-82 4 -3 -33 c-3 -29 -6
-32 -38 -32 -31 0 -34 2 -34 30 0 30 5 34 48 32 19 -1 22 4 22 33 l0 35 -170
0 -170 0 0 105 0 105 35 0 35 0 0 -70 0 -70 169 0 170 0 3 -32 c3 -29 7 -33
36 -36 l32 -3 0 70 0 71 35 0 c33 0 35 2 35 35 l0 35 70 0 70 0 0 -35 c0 -33
-2 -35 -35 -35 -33 0 -35 -2 -35 -35 0 -33 2 -35 35 -35 33 0 35 2 35 35 0 33
2 35 35 35 33 0 35 2 35 35 0 33 2 35 35 35 33 0 35 -2 35 -35 l0 -35 100 0
100 0 0 -35 0 -35 -135 0 -135 0 0 -35 0 -35 170 0 170 0 0 35 c0 33 2 35 35
35 33 0 35 2 35 35 l0 35 140 0 140 0 0 35 0 35 -140 0 -140 0 0 35 c0 33 -2
35 -35 35 -33 0 -35 -2 -35 -35 l0 -35 -135 0 -135 0 0 35 0 35 64 0 c74 0 76
3 75 88 l-2 52 -33 0 c-32 0 -34 2 -34 35 0 33 -2 35 -35 35 -33 0 -35 -2 -35
-35 0 -33 -2 -35 -35 -35 -33 0 -35 2 -35 35 0 33 -2 35 -35 35 -33 0 -35 -2
-35 -35 0 -33 2 -35 35 -35 l35 0 0 -105 0 -105 -35 0 c-33 0 -35 2 -35 35 l0
35 -70 0 -70 0 0 -35 c0 -33 -2 -35 -35 -35 l-35 0 0 70 0 70 70 0 70 0 0 35
0 35 -105 0 -105 0 0 35 0 35 70 0 70 0 0 35 c0 33 -2 35 -36 35 -34 0 -35 1
-32 33 3 28 7 32 36 35 28 3 32 7 32 33 0 28 -2 29 -47 29 -27 0 -58 3 -70 6
-21 6 -23 3 -23 -30 0 -34 -1 -36 -35 -36 -32 0 -35 3 -35 29 0 32 -12 40 -47
33 -18 -3 -23 -11 -23 -33 l0 -29 -100 0 -100 0 0 30 c0 17 -3 30 -7 31 -61 8
-63 7 -63 -28 0 -31 2 -33 35 -33 l35 0 0 -71 0 -70 33 3 c28 3 32 7 35 36 l3
32 65 0 64 0 0 -34 c0 -32 -3 -35 -32 -38 l-33 -3 0 -100 0 -100 33 -3 32 -3
0 -70 0 -69 -65 0 -65 0 0 70 0 70 -35 0 c-33 0 -35 2 -35 35 0 33 2 35 36 35
34 0 35 1 32 33 l-3 32 -67 3 -68 3 0 34 c0 33 -2 35 -35 35 -33 0 -35 2 -35
35 0 33 -2 35 -35 35 -33 0 -35 -2 -35 -35 0 -33 -2 -35 -35 -35 l-35 0 0 70
0 70 70 0 70 0 0 65 0 65 -35 0 c-33 0 -35 2 -35 35 l0 35 -104 0 -105 0 -3
-32 c-3 -29 -7 -33 -35 -36 -32 -3 -33 -2 -33 32 0 34 -2 36 -35 36 -33 0 -35
-2 -35 -36 0 -34 -1 -35 -32 -32 -29 3 -33 7 -36 36 -3 28 -7 32 -32 32 l-29
0 -3 -135 -3 -135 68 0 67 0 0 100 0 100 35 0 c32 0 35 -2 35 -29 0 -32 12
-40 47 -33 18 3 23 11 23 36 l0 31 105 -3 105 -3 0 -30 c0 -22 -5 -29 -19 -29
-36 0 -51 -12 -51 -41 l0 -28 -102 -3 -103 -3 -3 -137 -3 -138 -34 0 c-33 0
-35 2 -35 36 0 34 -1 35 -32 32 l-33 -3 -3 -67 c-3 -68 -3 -68 -32 -68 -28 0
-30 2 -31 43 -2 93 -2 92 -36 95 -28 3 -32 7 -35 35 -3 28 -7 32 -35 35 -30 3
-33 6 -33 38 0 32 -2 34 -35 34 -33 0 -35 -2 -35 -35 0 -33 -2 -35 -35 -35
-33 0 -35 -2 -35 -35 0 -33 2 -35 35 -35 33 0 35 2 35 35 0 33 2 35 35 35 l35
0 0 -70 0 -70 -35 0 c-33 0 -35 -2 -35 -35 0 -33 -2 -35 -35 -35 -33 0 -35 -2
-35 -35 l0 -35 -70 0 -70 0 0 35 c0 33 2 35 35 35 33 0 35 2 35 35 0 33 -2 35
-35 35 -33 0 -35 2 -35 35 0 33 2 35 35 35 l35 0 0 70 0 70 35 0 c33 0 35 2
35 35 0 33 2 35 35 35 l35 0 0 65 0 65 -35 0 c-33 0 -35 2 -35 34 0 32 3 35
33 38 l32 3 3 68 3 67 34 0 c33 0 35 2 35 35 l0 35 -70 0 -70 0 0 -105 0 -105
-35 0 -35 0 0 70 0 70 -35 0 c-33 0 -35 -2 -35 -35 0 -33 -2 -35 -35 -35 l-35
0 0 -71 0 -70 -32 3 -33 3 -3 68 -3 67 -34 0 c-33 0 -35 -2 -35 -35 0 -33 -2
-35 -35 -35 -33 0 -35 -2 -35 -35 0 -33 2 -35 36 -35 34 0 35 -1 32 -32 -2
-21 -9 -33 -18 -34 -48 -3 -50 -4 -50 -34 l0 -30 140 0 140 0 0 -35 c0 -33 -2
-35 -35 -35 -33 0 -35 -2 -35 -35 0 -33 2 -35 35 -35 33 0 35 -2 35 -35 0 -33
-2 -35 -35 -35 -33 0 -35 -2 -35 -35 l0 -35 -70 0 -70 0 0 -35 c0 -33 2 -35
35 -35 l35 0 0 -70 0 -70 -35 0 c-33 0 -35 2 -35 34 0 32 -3 35 -32 38 l-33 3
-3 67 -3 67 -32 3 c-27 3 -31 7 -32 33 0 26 -4 30 -32 33 -30 3 -33 6 -33 37
0 31 3 34 33 37 l32 3 0 65 0 65 -32 3 c-32 3 -33 2 -33 -32 0 -34 -2 -36 -35
-36 l-35 0 0 -70 0 -70 -35 0 c-33 0 -35 2 -35 35 0 33 -2 35 -35 35 -33 0
-35 -2 -35 -35 0 -33 -2 -35 -35 -35 l-35 0 0 70 0 70 -35 0 -36 0 3 68 3 67
30 0 30 1 3 102 3 102 34 0 35 0 0 70 0 70 -35 0 c-33 0 -35 2 -35 35 0 33 -2
35 -35 35 -33 0 -35 -2 -35 -35z m0 -280 l0 -35 -70 0 -70 0 0 35 0 35 70 0
70 0 0 -35z m830 -65 c0 -23 5 -30 19 -30 37 0 51 -12 51 -41 l0 -29 -70 0
-70 0 0 65 0 65 35 0 c32 0 35 -2 35 -30z m-970 -135 c0 -33 -2 -35 -35 -35
-33 0 -35 -2 -35 -35 0 -33 -2 -35 -36 -35 -34 0 -35 1 -32 33 3 28 7 32 36
35 28 3 32 7 32 31 0 35 6 41 42 41 25 0 28 -3 28 -35z m2280 0 c0 -33 2 -35
35 -35 33 0 35 -2 35 -35 0 -33 -2 -35 -35 -35 -33 0 -35 -2 -35 -35 0 -33 2
-35 35 -35 33 0 35 -2 35 -35 0 -33 -2 -35 -35 -35 -33 0 -35 -2 -35 -35 0
-33 2 -35 35 -35 33 0 35 -2 35 -35 0 -33 2 -35 35 -35 33 0 35 -2 35 -35 l0
-36 -67 3 -68 3 -3 68 -3 67 -35 0 -35 0 3 103 3 102 33 3 c29 3 32 6 32 38 0
32 -2 34 -35 34 -33 0 -35 2 -35 35 0 33 2 35 35 35 33 0 35 -2 35 -35z m-550
-140 c0 -33 -2 -35 -35 -35 -33 0 -35 -2 -35 -35 0 -33 -2 -35 -35 -35 -33 0
-35 2 -35 35 0 33 2 35 35 35 33 0 35 2 35 35 0 33 2 35 35 35 33 0 35 -2 35
-35z m210 -70 c0 -33 -2 -35 -35 -35 -33 0 -35 2 -35 35 0 33 2 35 35 35 33 0
35 -2 35 -35z m900 0 c0 -33 -2 -35 -35 -35 -33 0 -35 2 -35 35 0 33 2 35 35
35 33 0 35 -2 35 -35z m-1040 -70 c0 -33 2 -35 35 -35 33 0 35 -2 35 -35 0
-33 -2 -35 -35 -35 -33 0 -35 -2 -35 -35 0 -33 2 -35 35 -35 l36 0 -3 -102 -3
-103 -32 1 c-31 0 -33 -2 -33 -32 0 -30 3 -33 33 -36 l32 -3 3 -137 3 -138
-36 0 -35 0 0 -70 0 -70 35 0 c33 0 35 -2 35 -35 0 -33 2 -35 35 -35 l35 0 0
70 0 71 68 -3 67 -3 0 -30 c0 -26 -4 -30 -32 -33 -28 -3 -32 -7 -35 -35 -3
-28 -7 -32 -35 -35 -30 -3 -33 -6 -33 -38 0 -32 2 -34 35 -34 33 0 35 -2 35
-36 0 -34 1 -35 33 -32 28 3 32 7 35 36 3 29 6 32 36 32 31 0 33 2 32 33 l-1
32 67 3 67 3 3 -33 c3 -29 7 -33 36 -36 31 -3 32 -2 32 32 0 32 -3 35 -32 38
-29 3 -33 7 -36 35 l-3 32 -67 3 -67 3 0 30 0 30 68 3 67 3 0 34 c0 33 -2 35
-36 35 -34 0 -35 1 -32 33 3 28 7 32 36 35 29 3 32 6 32 38 0 32 -2 34 -36 34
-34 0 -35 1 -32 33 3 28 7 32 36 35 29 3 32 6 32 38 0 32 2 34 35 34 l35 0 0
-105 0 -105 140 0 140 0 0 36 c0 34 1 35 33 32 l32 -3 3 -67 3 -67 67 -3 67
-3 3 -32 3 -33 -70 0 -71 0 0 -71 0 -70 33 3 c28 3 32 7 35 36 l3 32 64 0 64
0 3 68 3 67 68 3 67 3 0 34 c0 33 2 35 35 35 33 0 35 -2 35 -35 0 -33 2 -35
35 -35 l35 0 0 -70 0 -70 -70 0 -70 0 0 35 c0 33 -2 35 -35 35 l-36 0 3 -67 3
-68 32 -3 32 -3 3 -67 3 -67 33 -3 c29 -3 32 -6 32 -38 0 -22 -5 -34 -12 -33
-45 6 -58 -1 -58 -31 0 -28 3 -30 34 -30 32 0 35 3 38 32 3 30 5 32 41 31 102
-3 95 -1 99 -35 3 -31 5 -33 36 -30 31 3 32 2 32 -32 0 -34 2 -36 35 -36 33 0
35 -2 35 -35 0 -33 -2 -35 -35 -35 -33 0 -35 -2 -35 -35 0 -33 -2 -35 -35 -35
-33 0 -35 -2 -35 -35 l0 -35 -70 0 -70 0 0 36 c0 34 -1 35 -32 32 -29 -3 -33
-7 -36 -35 l-3 -33 -135 0 -134 0 0 -35 0 -35 99 0 c95 0 99 -1 103 -23 8 -44
2 -47 -103 -47 l-99 0 0 -35 0 -35 -210 0 -210 0 0 -170 0 -170 -35 0 c-33 0
-35 -2 -35 -35 0 -33 2 -35 34 -35 32 0 35 3 38 33 l3 32 138 3 137 3 0 34 c0
30 -3 34 -27 33 -16 0 -63 0 -105 1 l-78 1 0 65 0 65 70 0 70 0 0 35 c0 33 2
35 35 35 33 0 35 -2 35 -35 0 -33 2 -35 35 -35 33 0 35 2 35 35 0 33 2 35 35
35 33 0 35 -2 35 -35 0 -33 -2 -35 -34 -35 -32 0 -35 -3 -38 -32 -3 -29 -7
-33 -35 -36 -29 -3 -33 -7 -33 -33 0 -16 6 -30 13 -31 6 0 17 -2 22 -3 6 -2
16 -3 23 -4 8 -1 12 -21 12 -65 l0 -65 33 -3 32 -3 3 -67 3 -68 -36 0 c-33 0
-35 -2 -35 -35 0 -33 -2 -35 -35 -35 -33 0 -35 -2 -35 -35 0 -33 -2 -35 -35
-35 -33 0 -35 2 -35 35 0 33 2 35 35 35 l35 0 0 70 0 70 -35 0 c-33 0 -35 -2
-35 -35 l0 -35 -70 0 -70 0 0 70 0 70 -35 0 -35 0 0 -105 0 -105 -35 0 c-33 0
-35 -2 -35 -35 0 -33 2 -35 35 -35 33 0 35 -2 35 -35 0 -33 -2 -35 -35 -35
l-35 0 0 -70 0 -70 -35 0 -35 0 0 69 0 70 -32 3 c-28 3 -33 6 -30 27 2 13 1
44 -3 68 -6 39 -9 43 -35 43 -25 0 -29 4 -32 33 -3 28 -7 32 -35 35 -30 3 -33
6 -33 38 0 32 -2 34 -35 34 -33 0 -35 -2 -35 -35 0 -33 -2 -35 -35 -35 -33 0
-35 -2 -35 -35 0 -33 -2 -35 -35 -35 -33 0 -35 -2 -35 -35 l0 -35 -70 0 -70 0
0 35 c0 33 -2 35 -35 35 -33 0 -35 -2 -35 -35 0 -33 -2 -35 -35 -35 -33 0 -35
2 -35 35 0 33 2 35 35 35 33 0 35 2 35 35 0 33 -2 35 -35 35 -33 0 -35 2 -35
35 l0 36 -67 -3 -67 -3 -3 -32 c-4 -32 -3 -33 31 -33 l36 0 0 -105 0 -105 -35
0 -35 0 0 -70 0 -70 -30 0 -30 0 0 -65 c0 -36 -4 -66 -10 -66 -5 -1 -14 -3
-20 -4 -5 -1 -32 -3 -60 -4 -49 -1 -50 -2 -50 -31 0 -28 -3 -30 -35 -30 -33 0
-35 -2 -35 -34 0 -32 3 -35 33 -38 l32 -3 3 -68 3 -67 -36 0 -35 0 0 70 0 70
-34 0 c-32 0 -35 3 -38 33 -3 28 -7 32 -35 35 -32 3 -33 2 -33 -32 0 -34 -2
-36 -34 -36 -32 0 -35 3 -38 33 -3 28 -7 32 -33 32 -26 1 -30 5 -33 32 -3 27
0 31 28 35 36 5 40 3 40 -33 0 -20 6 -28 24 -31 33 -7 44 2 48 37 3 30 3 30
68 30 l65 0 3 32 c3 28 7 32 35 35 28 3 32 7 35 36 3 31 2 32 -32 32 -34 0
-36 2 -36 35 0 33 2 35 35 35 33 0 35 -2 35 -36 0 -34 1 -35 33 -32 28 3 32 7
35 35 3 28 7 32 35 35 l32 3 3 68 c3 67 3 67 32 67 28 0 30 3 30 35 l0 35 -65
0 -65 0 0 -70 0 -70 -105 0 -104 0 -3 -102 -3 -103 -100 0 -100 0 -3 33 c-3
29 -6 32 -38 32 -32 0 -34 -2 -34 -35 0 -33 2 -35 36 -35 34 0 35 -1 32 -32
-3 -29 -6 -33 -33 -33 -27 0 -30 4 -33 33 -3 29 -6 32 -38 32 -32 0 -34 2 -34
35 0 33 -2 35 -35 35 l-36 0 3 70 3 70 -31 0 c-25 0 -33 5 -36 23 -2 12 -3 28
0 35 5 16 62 16 63 0 1 -7 2 -22 3 -33 1 -18 9 -20 69 -23 l67 -3 0 36 c0 33
2 35 35 35 33 0 35 -2 35 -35 0 -33 2 -35 35 -35 33 0 35 2 35 35 l0 35 70 0
70 0 0 35 0 35 -140 0 -140 0 0 35 0 36 -67 -3 -68 -3 -3 -32 c-3 -29 -7 -33
-33 -33 -31 0 -31 -1 -33 85 -1 49 -2 50 -33 53 -32 3 -33 2 -33 -32 0 -34 -2
-36 -35 -36 l-35 0 0 106 0 105 33 -3 c28 -3 32 -7 35 -36 3 -31 6 -33 35 -30
28 3 32 7 32 33 1 26 5 30 32 33 l32 3 3 -68 3 -68 68 -3 67 -3 0 -34 0 -35
140 0 140 0 0 35 c0 33 2 35 35 35 33 0 35 -2 35 -35 0 -33 2 -35 35 -35 33 0
35 2 35 35 0 33 2 35 35 35 33 0 35 2 35 35 0 33 -2 35 -35 35 l-35 0 0 65 c0
68 -2 66 50 69 9 1 16 13 18 34 l3 32 64 0 63 0 4 35 c4 34 3 35 -28 35 -29 0
-32 3 -36 35 l-4 35 68 0 68 0 0 70 0 70 -65 0 -65 0 0 35 0 35 -70 0 -70 0 0
-35 c0 -33 2 -35 36 -35 34 0 35 -1 32 -32 -3 -29 -7 -33 -35 -36 -30 -3 -33
-6 -33 -38 0 -32 2 -34 36 -34 34 0 35 -1 32 -32 -3 -29 -7 -33 -35 -36 -32
-3 -33 -2 -33 32 0 34 -2 36 -34 36 -32 0 -35 -3 -38 -32 -3 -29 -7 -33 -35
-36 -30 -3 -33 -6 -33 -38 0 -32 2 -34 35 -34 32 0 35 -2 35 -29 0 -20 -6 -31
-17 -33 -35 -8 -53 3 -53 33 0 26 -3 29 -35 29 l-35 0 0 -100 0 -100 -35 0
c-33 0 -35 -2 -35 -35 0 -33 -2 -35 -35 -35 -33 0 -35 2 -35 35 0 33 -2 35
-36 35 -34 0 -35 1 -32 33 l3 32 68 3 68 3 -3 32 c-3 28 -7 32 -35 35 -29 3
-33 7 -33 33 l0 29 70 0 70 0 0 35 c0 33 2 35 35 35 33 0 35 2 35 35 0 33 2
35 35 35 l35 0 0 105 0 105 -35 0 c-33 0 -35 -2 -35 -35 0 -33 -2 -35 -35 -35
l-35 0 0 70 0 70 -105 0 -105 0 0 -35 c0 -33 -2 -35 -35 -35 -33 0 -35 -2 -35
-35 0 -33 2 -35 35 -35 33 0 35 -2 35 -35 l0 -36 -67 3 -68 3 -3 33 c-3 29 -6
32 -37 32 -29 0 -33 3 -30 20 6 34 -5 50 -36 50 -28 0 -28 1 -31 68 l-3 67
-32 3 c-30 3 -33 6 -33 38 0 32 2 34 35 34 l35 0 0 101 0 100 32 -3 c31 -3 32
-4 34 -58 1 -30 3 -58 3 -62 1 -5 15 -8 31 -8 28 0 30 -3 30 -35 0 -33 2 -35
35 -35 l35 0 0 70 0 70 -35 0 -35 0 0 64 0 65 -32 3 c-28 3 -31 7 -32 36 l-1
32 67 0 67 0 3 -32 3 -33 68 -3 67 -3 0 35 c0 32 -3 35 -32 38 -29 3 -33 7
-36 35 l-3 32 -67 3 -67 3 0 33 c0 30 -2 32 -32 32 -26 0 -33 -4 -34 -20 -1
-11 -2 -26 -3 -32 0 -7 -15 -14 -33 -16 l-32 -3 -3 -102 -3 -102 -67 -3 -68
-3 0 35 c0 32 3 35 33 38 l32 3 3 68 3 67 34 0 35 0 0 69 0 70 33 3 c32 3 32
3 34 63 1 33 2 63 2 68 1 4 14 7 30 7 26 0 30 -4 33 -32 3 -29 7 -33 36 -36
29 -3 32 -6 32 -38 0 -32 2 -34 35 -34 33 0 35 -2 35 -35 0 -33 2 -35 35 -35
l35 0 0 70 0 70 35 0 c33 0 35 2 35 35 0 33 2 35 35 35 33 0 35 2 35 35 0 33
2 35 35 35 33 0 35 2 35 35 l0 35 70 0 70 0 0 35 c0 33 2 35 35 35 32 0 35 3
35 29 0 23 -6 30 -25 35 -14 4 -30 4 -35 1 -6 -4 -10 9 -10 29 l0 36 -70 0
-70 0 0 -30 c0 -30 2 -31 50 -34 9 -1 16 -13 18 -33 3 -32 2 -33 -32 -33 -32
0 -35 3 -38 32 -2 21 -9 32 -22 34 -39 6 -46 -6 -46 -72 l0 -64 -35 0 -35 0 0
65 c0 55 -3 65 -17 66 -10 1 -25 2 -33 3 -9 0 -16 13 -18 33 -3 28 -7 32 -35
35 -28 3 -32 7 -35 36 l-3 32 105 0 106 0 0 35 c0 33 2 35 35 35 33 0 35 2 35
35 0 33 2 35 35 35 33 0 35 -2 35 -35 0 -33 -2 -35 -35 -35 -33 0 -35 -2 -35
-35 l0 -35 70 0 70 0 0 -35 c0 -33 2 -35 35 -35 l35 0 0 69 0 70 33 3 c17 2
33 9 33 16 1 6 2 21 3 32 1 15 8 20 31 20 28 0 30 -3 30 -35 0 -32 -2 -35 -30
-35 -29 0 -30 -1 -31 -52 -2 -84 -2 -83 -36 -86 -29 -3 -33 -7 -33 -33 0 -29
2 -30 58 -29 4 0 7 8 8 18 1 9 2 23 3 30 0 6 14 12 31 12 28 0 30 3 30 35 0
33 2 35 35 35 33 0 35 2 35 35 0 33 2 35 35 35 33 0 35 -2 35 -35 0 -33 -2
-35 -36 -35 -34 0 -35 -1 -32 -32 3 -29 7 -33 36 -36 29 -3 32 -6 32 -35 0
-31 2 -33 35 -32 33 2 35 0 35 -32 0 -31 -2 -33 -35 -33 -32 0 -35 2 -35 29 0
35 -12 45 -46 37 -22 -6 -24 -11 -24 -71 l0 -64 -32 -3 c-29 -3 -33 -7 -36
-35 -3 -29 -7 -33 -33 -33 -27 0 -29 -3 -29 -35 0 -32 2 -35 30 -35 22 0 30
-5 31 -17 0 -10 2 -26 4 -35 3 -16 -7 -18 -101 -18 l-104 0 0 -70 0 -70 -35 0
c-33 0 -35 -2 -35 -35 l0 -35 70 0 70 0 0 71 0 70 33 -3 32 -3 0 -65 0 -65
-32 -3 c-28 -3 -32 -7 -35 -35 -3 -28 -7 -32 -35 -35 -28 -3 -32 -7 -35 -35
-3 -28 -7 -32 -35 -35 -30 -3 -33 -6 -33 -38 l0 -35 103 3 102 3 3 33 3 32
135 0 134 0 0 70 0 70 -35 0 c-33 0 -35 -2 -35 -36 0 -34 -1 -35 -32 -32 -29
3 -33 7 -36 35 -3 28 -7 32 -35 35 l-32 3 0 100 0 100 32 3 32 3 3 67 3 67 68
3 67 3 0 34 0 35 106 0 105 0 -3 33 -3 32 -67 3 c-68 3 -68 3 -68 32 0 25 -4
29 -32 32 -29 3 -33 7 -36 36 l-3 32 70 0 71 0 0 35 c0 33 2 35 35 35 33 0 35
2 35 35 l0 35 -70 0 -70 0 0 -35 c0 -33 -2 -35 -35 -35 -33 0 -35 2 -35 35 0
33 2 35 35 35 l35 0 0 70 0 70 35 0 c33 0 35 2 35 35 0 33 2 35 35 35 33 0 35
-2 35 -35z m-1245 -67 c0 -30 3 -33 35 -38 31 -4 35 -8 35 -35 0 -27 4 -30 33
-33 29 -3 32 -6 32 -38 l0 -34 -100 0 -100 0 0 -135 0 -135 -34 0 c-32 0 -35
3 -38 33 l-3 32 -67 3 -68 3 0 32 c0 32 0 32 45 29 72 -6 95 3 95 38 l0 30
-105 0 -105 0 0 70 0 70 105 0 105 0 0 -35 c0 -33 2 -35 35 -35 l35 0 0 105 0
105 33 0 c31 0 33 -2 32 -32z m693 0 c-3 -29 -7 -33 -35 -36 -32 -3 -33 -2
-33 32 0 35 1 36 36 36 34 0 35 -1 32 -32z m272 -4 c0 -34 -1 -35 -32 -32 -29
3 -33 7 -36 36 -3 31 -2 32 32 32 35 0 36 -1 36 -36z m1590 -70 c0 -34 -1 -35
-32 -32 -29 3 -33 7 -36 36 -3 31 -2 32 32 32 35 0 36 -1 36 -36z m-2350 -341
l0 -103 -103 0 -102 0 1 103 c1 56 2 102 3 102 1 0 46 0 101 0 l100 0 0 -102z
m1355 97 l30 0 0 -100 0 -100 -102 0 -103 0 0 103 0 102 73 -2 c39 -1 86 -2
102 -3z m-2045 -235 c0 -33 -2 -35 -35 -35 -32 0 -35 3 -35 28 0 36 6 42 42
42 25 0 28 -3 28 -35z m2005 -70 l0 -30 -67 -3 -68 -3 0 36 0 36 68 -3 67 -3
0 -30z m-2145 -70 c0 -33 -2 -35 -35 -35 -33 0 -35 2 -35 35 0 33 2 35 35 35
33 0 35 -2 35 -35z m-134 -80 c10 -68 0 -95 -36 -95 l-30 0 0 70 0 70 29 0
c28 0 30 -3 37 -45z m622 -22 l-3 -68 -32 -3 -33 -3 0 70 0 71 35 0 36 0 -3
-67z m-138 -108 l0 -35 -70 0 -70 0 0 35 0 35 70 0 70 0 0 -35z m1100 0 c0
-32 -2 -35 -30 -35 -28 0 -30 3 -30 35 0 32 2 35 30 35 28 0 30 -3 30 -35z
m1800 -1 c0 -34 -1 -35 -32 -32 -29 3 -33 7 -36 36 -3 31 -2 32 32 32 35 0 36
-1 36 -36z m-2762 -271 c3 -32 2 -33 -32 -33 -35 0 -36 1 -36 36 0 34 1 35 33
32 28 -3 32 -7 35 -35z m2 -278 c0 -33 -2 -35 -35 -35 -33 0 -35 -2 -35 -35 0
-33 -2 -35 -35 -35 -33 0 -35 2 -35 35 0 33 2 35 35 35 33 0 35 2 35 35 0 33
2 35 35 35 33 0 35 -2 35 -35z m550 -210 c0 -33 -2 -35 -35 -35 -33 0 -35 -2
-35 -36 0 -34 -1 -35 -32 -32 l-33 3 -3 68 -3 67 71 0 70 0 0 -35z m-210 -137
l0 -103 -100 0 c-55 0 -100 2 -101 5 -1 3 -2 49 -3 103 l-1 97 102 0 103 0 0
-102z m2350 66 c0 -34 -1 -35 -32 -32 -29 3 -33 7 -36 36 -3 31 -2 32 32 32
35 0 36 -1 36 -36z m-2002 -271 c3 -32 2 -33 -32 -33 -35 0 -36 1 -36 36 0 34
1 35 33 32 28 -3 32 -7 35 -35z m-618 -278 c0 -33 -2 -35 -35 -35 -33 0 -35 2
-35 35 0 33 2 35 35 35 33 0 35 -2 35 -35z m2620 0 c0 -33 -2 -35 -35 -35 -33
0 -35 2 -35 35 0 33 2 35 35 35 33 0 35 -2 35 -35z m210 0 c0 -33 -2 -35 -35
-35 -33 0 -35 2 -35 35 0 33 2 35 35 35 33 0 35 -2 35 -35z m-1310 -70 c0 -33
-2 -35 -35 -35 -33 0 -35 2 -35 35 0 33 2 35 35 35 33 0 35 -2 35 -35z m960 0
l0 -35 -65 0 -65 0 0 35 0 35 65 0 65 0 0 -35z m-1520 -339 l0 -34 -55 -4
c-71 -4 -75 -2 -75 32 0 28 2 29 58 33 31 2 60 4 65 5 4 1 7 -13 7 -32z"/>
<path d="M3980 4895 c0 -33 2 -35 35 -35 33 0 35 2 35 35 0 33 -2 35 -35 35
-33 0 -35 -2 -35 -35z"/>
<path d="M3220 4685 c0 -33 2 -35 35 -35 33 0 35 2 35 35 0 33 -2 35 -35 35
-33 0 -35 -2 -35 -35z"/>
<path d="M3500 4450 l0 -70 -35 0 c-33 0 -35 -2 -35 -35 0 -33 -2 -35 -35 -35
-33 0 -35 -2 -35 -35 0 -33 2 -35 35 -35 33 0 35 2 35 35 0 33 2 35 35 35 33
0 35 2 35 35 0 33 2 35 35 35 33 0 35 2 35 35 0 32 3 35 29 35 31 0 43 16 34
49 -5 19 -13 21 -69 21 l-64 0 0 -70z"/>
<path d="M3840 4345 c0 -33 2 -35 35 -35 33 0 35 2 35 35 0 33 -2 35 -35 35
-33 0 -35 -2 -35 -35z"/>
<path d="M3220 4275 c0 -33 2 -35 35 -35 33 0 35 2 35 35 0 33 -2 35 -35 35
-33 0 -35 -2 -35 -35z"/>
<path d="M4537 4303 c-4 -3 -7 -19 -7 -35 0 -25 3 -28 35 -28 33 0 35 -2 35
-35 0 -33 -2 -35 -35 -35 -33 0 -35 -2 -35 -35 l0 -35 70 0 70 0 0 -35 0 -35
105 0 105 0 0 -35 c0 -33 -2 -35 -35 -35 l-36 0 3 -67 3 -68 65 0 65 0 3 33
c3 29 6 32 38 32 32 0 34 -2 34 -35 0 -33 -2 -35 -35 -35 -32 0 -35 -2 -35
-30 0 -19 5 -30 15 -31 8 -1 23 -2 33 -3 12 -1 18 8 20 31 3 28 7 32 35 35 28
3 32 7 35 35 3 27 7 32 34 35 27 3 31 7 33 36 3 30 1 32 -31 32 -30 0 -33 -3
-36 -32 -3 -29 -7 -33 -35 -36 -32 -3 -33 -2 -33 32 0 34 -2 36 -35 36 -33 0
-35 2 -35 35 0 33 -2 35 -35 35 -33 0 -35 2 -35 35 l0 35 -105 0 -105 0 0 70
0 70 -35 0 c-33 0 -35 2 -35 35 0 32 -3 35 -28 35 -16 0 -32 -3 -35 -7z m413
-378 c0 -33 -2 -35 -35 -35 -33 0 -35 2 -35 35 0 33 2 35 35 35 33 0 35 -2 35
-35z"/>
<path d="M3700 4205 l0 -35 105 0 105 0 0 35 0 35 -105 0 -105 0 0 -35z"/>
<path d="M4740 4205 l0 -35 70 0 70 0 0 35 0 35 -70 0 -70 0 0 -35z"/>
<path d="M2874 4156 c-12 -31 1 -51 34 -54 31 -3 32 -2 32 32 0 33 -2 36 -30
36 -17 0 -33 -6 -36 -14z"/>
<path d="M3220 4135 c0 -33 2 -35 35 -35 33 0 35 2 35 35 0 33 -2 35 -35 35
-33 0 -35 -2 -35 -35z"/>
<path d="M3700 4065 c0 -33 2 -35 35 -35 33 0 35 2 35 35 0 33 -2 35 -35 35
-33 0 -35 -2 -35 -35z"/>
<path d="M3910 4065 c0 -33 2 -35 35 -35 33 0 35 -2 35 -35 0 -33 -2 -35 -35
-35 l-35 0 0 -70 0 -70 -35 0 c-32 0 -35 -2 -35 -30 0 -28 3 -30 35 -30 32 0
35 2 35 30 l0 30 70 0 70 0 0 -30 c0 -28 -3 -30 -35 -30 -33 0 -35 -2 -35 -34
0 -32 -3 -35 -32 -38 -29 -3 -33 -7 -36 -35 -3 -32 -2 -33 32 -33 34 0 36 2
36 35 0 33 2 35 35 35 33 0 35 -2 35 -35 0 -33 2 -35 35 -35 l35 0 0 -70 0
-70 -35 0 c-33 0 -35 2 -35 35 l0 35 -70 0 -70 0 0 -35 c0 -33 -2 -35 -35 -35
l-35 0 0 -70 0 -70 -35 0 c-33 0 -35 -2 -35 -35 l0 -35 70 0 70 0 0 35 0 35
70 0 70 0 0 -35 c0 -33 -2 -35 -35 -35 -33 0 -35 -2 -35 -35 l0 -35 -70 0 -70
0 0 -35 c0 -33 -2 -35 -35 -35 -33 0 -35 -2 -35 -35 l0 -35 -70 0 -70 0 0 -65
0 -65 35 0 c32 0 35 2 35 30 0 23 5 31 24 36 34 8 46 -2 46 -37 0 -27 3 -29
35 -29 33 0 35 -2 35 -34 0 -32 -3 -35 -32 -38 -29 -3 -33 -7 -36 -35 -3 -32
-2 -33 32 -33 34 0 36 -2 36 -35 0 -33 2 -35 35 -35 33 0 35 2 35 35 0 33 -2
35 -35 35 -33 0 -35 2 -35 35 0 33 2 35 35 35 33 0 35 2 35 35 0 33 -2 35 -35
35 l-35 0 0 65 0 65 35 0 c33 0 35 2 35 35 0 33 2 35 35 35 33 0 35 -2 35 -35
0 -33 2 -35 35 -35 32 0 35 -2 35 -30 0 -29 3 -32 45 -34 15 -1 21 -9 23 -33
l3 -32 102 -3 102 -3 0 -30 c0 -27 -4 -30 -32 -33 -30 -3 -33 -6 -33 -37 0
-31 3 -34 33 -37 29 -3 32 -6 32 -36 0 -32 1 -33 35 -30 31 3 34 6 35 33 0 26
4 30 32 33 l32 3 3 67 3 67 33 3 c31 3 33 6 30 35 -2 27 -7 32 -28 32 -14 0
-28 5 -32 10 -4 6 -8 52 -8 103 l0 92 35 0 c33 0 35 2 35 34 0 32 -3 35 -32
38 l-33 3 0 100 0 100 33 3 c29 3 32 6 32 38 0 32 -2 34 -36 34 -34 0 -35 1
-32 33 3 28 7 32 36 35 29 3 32 6 32 38 0 32 2 34 35 34 l35 0 0 -105 0 -105
140 0 140 0 0 -35 c0 -33 -2 -35 -35 -35 -33 0 -35 -2 -35 -35 0 -33 2 -35 35
-35 33 0 35 2 35 35 0 33 2 35 35 35 33 0 35 -2 35 -35 0 -33 2 -35 35 -35 33
0 35 2 35 35 0 33 -2 35 -35 35 -33 0 -35 2 -35 35 0 33 2 35 35 35 33 0 35 2
35 35 0 33 2 35 35 35 l35 0 0 70 0 70 65 0 65 0 0 -70 0 -70 35 0 35 0 0 105
0 105 -135 0 -135 0 0 -35 c0 -33 -2 -35 -35 -35 -33 0 -35 2 -35 35 l0 34
-102 -2 -103 -2 -3 -32 c-3 -32 -2 -33 32 -33 34 0 36 -2 36 -35 0 -33 2 -35
35 -35 33 0 35 -2 35 -35 l0 -35 -105 0 -105 0 0 70 0 70 -35 0 c-33 0 -35 2
-35 35 l0 35 70 0 70 0 0 29 c0 26 -4 30 -32 33 l-33 3 -3 68 -3 67 -34 0
c-33 0 -35 -2 -35 -35 0 -33 -2 -35 -35 -35 -33 0 -35 -2 -35 -34 0 -32 -3
-35 -32 -38 -29 -3 -33 -7 -36 -35 -3 -31 -3 -32 32 -26 36 6 36 5 36 -31 0
-34 -2 -36 -34 -36 -32 0 -35 3 -38 33 -2 25 -8 33 -27 35 -13 2 -26 -1 -30
-6 -3 -6 -6 -101 -5 -211 l0 -201 -103 0 -103 0 0 -35 c0 -33 -2 -35 -35 -35
l-35 0 0 70 0 70 70 0 70 0 0 35 c0 33 2 35 36 35 34 0 35 1 32 33 -3 28 -7
32 -35 35 l-33 3 0 69 0 69 33 3 32 3 3 66 3 65 28 -4 c31 -4 46 16 36 49 -9
27 -65 27 -65 0 0 -48 -7 -51 -111 -51 l-99 0 0 105 0 105 -35 0 c-33 0 -35 2
-35 35 l0 35 -70 0 -70 0 0 -35z m140 -140 c0 -33 -2 -35 -35 -35 -33 0 -35 2
-35 35 0 33 2 35 35 35 33 0 35 -2 35 -35z m550 -135 c0 -28 -3 -30 -35 -30
-32 0 -35 2 -35 30 0 28 3 30 35 30 32 0 35 -2 35 -30z m350 -134 c0 -32 3
-35 33 -38 28 -3 32 -7 35 -35 3 -32 2 -33 -32 -33 -34 0 -36 -2 -36 -35 0
-33 -2 -35 -35 -35 -33 0 -35 2 -35 35 0 33 2 35 35 35 33 0 35 2 35 35 0 33
-2 35 -35 35 -33 0 -35 2 -35 35 0 33 2 35 35 35 33 0 35 -2 35 -34z m-900
-211 c0 -33 -2 -35 -35 -35 -33 0 -35 2 -35 35 0 33 2 35 35 35 33 0 35 -2 35
-35z m70 -245 l0 -70 -35 0 -35 0 0 70 0 70 35 0 35 0 0 -70z m274 -97 c-1
-54 -2 -100 -3 -103 -1 -3 -46 -5 -101 -5 l-100 0 0 103 0 102 103 0 103 0 -2
-97z m-2 -255 c3 -7 2 -23 0 -35 -3 -17 -11 -23 -32 -23 -24 0 -28 4 -32 35
-4 34 -3 35 28 35 18 0 34 -5 36 -12z"/>
<path d="M4260 3095 c0 -35 1 -36 33 -33 28 3 32 6 32 33 0 27 -4 30 -32 33
-32 3 -33 2 -33 -33z"/>
<path d="M3220 3995 c0 -33 -2 -35 -35 -35 -33 0 -35 -2 -35 -35 0 -33 -2 -35
-34 -35 -32 0 -35 -3 -38 -32 l-3 -33 -67 -3 c-68 -3 -68 -3 -68 -32 l0 -30
70 0 70 0 0 33 c0 32 1 33 35 29 l35 -4 0 -63 0 -64 -32 -3 -33 -3 -3 -67 -3
-68 71 0 70 0 0 -35 0 -35 141 0 140 0 -3 33 c-3 28 -7 32 -35 35 -28 3 -32 7
-35 35 -3 28 -7 32 -35 35 -32 3 -33 2 -33 -32 l0 -36 -70 0 -70 0 0 35 c0 33
2 35 35 35 33 0 35 2 35 35 l0 35 71 0 70 0 -3 33 c-3 28 -7 32 -35 35 -27 3
-32 7 -35 34 l-3 31 -65 1 -65 1 -3 33 -3 32 70 0 71 0 0 35 c0 33 -2 35 -35
35 -33 0 -35 2 -35 35 0 33 -2 35 -35 35 -33 0 -35 -2 -35 -35z m68 -272 c3
-32 2 -33 -32 -33 -34 0 -36 2 -36 34 0 32 2 34 33 33 28 -2 32 -6 35 -34z"/>
<path d="M4399 3958 c0 -2 -3 -18 -5 -35 -5 -32 -4 -33 30 -33 34 0 36 2 36
35 0 32 -2 35 -30 35 -16 0 -30 -1 -31 -2z"/>
<path d="M3698 3789 l-3 -32 -97 2 -98 2 0 -35 c0 -32 3 -35 33 -38 20 -2 33
-9 33 -18 1 -8 2 -23 3 -32 1 -13 10 -18 34 -18 31 0 33 2 33 33 l-1 32 68 3
67 3 0 64 0 65 -34 0 c-32 0 -35 -3 -38 -31z"/>
<path d="M5360 3724 c0 -32 2 -34 35 -34 33 0 35 -2 35 -35 0 -33 -2 -35 -35
-35 -33 0 -35 -2 -35 -35 0 -33 2 -35 35 -35 33 0 35 2 35 35 0 33 2 35 35 35
l35 0 0 70 0 69 -70 0 -70 0 0 -35z"/>
<path d="M3777 3613 c-4 -3 -7 -19 -7 -35 0 -25 3 -28 35 -28 33 0 35 2 35 35
0 32 -3 35 -28 35 -16 0 -32 -3 -35 -7z"/>
<path d="M2877 3543 c-4 -3 -7 -35 -7 -70 l0 -63 35 0 35 0 0 70 0 70 -28 0
c-16 0 -32 -3 -35 -7z"/>
<path d="M3637 3543 c-4 -3 -7 -19 -7 -35 0 -24 -4 -28 -30 -28 -28 0 -30 -3
-30 -35 l0 -35 65 0 65 0 0 70 0 70 -28 0 c-16 0 -32 -3 -35 -7z"/>
<path d="M4600 3375 l0 -35 70 0 70 0 0 35 0 35 -70 0 -70 0 0 -35z"/>
<path d="M4810 3095 c0 -33 2 -35 35 -35 33 0 35 2 35 35 0 33 -2 35 -35 35
-33 0 -35 -2 -35 -35z"/>
<path d="M3507 2993 c-4 -3 -7 -35 -7 -70 l0 -64 32 3 c30 3 33 6 36 47 5 64
-4 91 -32 91 -12 0 -26 -3 -29 -7z"/>
<path d="M3986 2993 c-3 -4 -6 -19 -6 -35 0 -25 3 -28 36 -28 34 0 35 1 32 32
-2 27 -7 33 -30 35 -14 1 -29 -1 -32 -4z"/>
<path d="M3570 2825 c0 -32 2 -35 30 -35 28 0 30 3 30 35 0 32 -2 35 -30 35
-28 0 -30 -3 -30 -35z"/>
<path d="M3980 2825 c0 -33 2 -35 35 -35 33 0 35 -2 35 -35 0 -33 2 -35 35
-35 l35 0 0 70 0 70 -70 0 -70 0 0 -35z"/>
<path d="M3500 2756 c0 -34 -2 -36 -35 -36 -33 0 -35 -2 -35 -35 0 -33 2 -35
35 -35 33 0 35 2 35 35 0 33 2 35 36 35 34 0 35 1 31 33 -3 28 -7 32 -35 35
-31 3 -32 2 -32 -32z"/>
<path d="M3290 2685 c0 -33 2 -35 35 -35 33 0 35 2 35 35 0 33 -2 35 -35 35
-33 0 -35 -2 -35 -35z"/>
<path d="M4460 2685 c0 -33 2 -35 35 -35 33 0 35 2 35 35 0 33 -2 35 -35 35
-33 0 -35 -2 -35 -35z"/>
<path d="M3010 2475 c0 -33 -2 -35 -35 -35 -33 0 -35 -2 -35 -35 0 -33 2 -35
35 -35 33 0 35 2 35 35 0 33 2 35 35 35 33 0 35 -2 35 -35 0 -33 2 -35 35 -35
33 0 35 2 35 35 0 33 2 35 35 35 33 0 35 2 35 35 0 33 -2 35 -35 35 -33 0 -35
-2 -35 -35 0 -33 -2 -35 -35 -35 -33 0 -35 2 -35 35 0 33 -2 35 -35 35 -33 0
-35 -2 -35 -35z"/>
<path d="M2876 4504 c-15 -39 -7 -54 29 -54 33 0 35 2 35 35 0 32 -3 35 -29
35 -17 0 -31 -6 -35 -16z"/>
<path d="M4260 4486 c0 -35 1 -36 36 -36 34 0 35 1 32 33 -3 28 -7 32 -35 35
-32 3 -33 2 -33 -32z"/>
<path d="M2874 3116 c-12 -31 1 -51 34 -54 31 -3 32 -2 32 32 0 33 -2 36 -30
36 -17 0 -33 -6 -36 -14z"/>
<path d="M5290 5725 c0 -33 2 -35 35 -35 33 0 35 -2 35 -35 0 -33 2 -35 35
-35 33 0 35 2 35 35 0 33 -2 35 -35 35 -33 0 -35 2 -35 35 0 33 -2 35 -35 35
-33 0 -35 -2 -35 -35z"/>
<path d="M3772 5623 l3 -68 33 -3 32 -3 0 70 0 71 -35 0 -36 0 3 -67z"/>
<path d="M4530 5655 c0 -33 2 -35 35 -35 33 0 35 -2 35 -35 0 -33 2 -35 35
-35 33 0 35 -2 35 -35 0 -33 -2 -35 -35 -35 -33 0 -35 -2 -35 -35 0 -33 -2
-35 -35 -35 -33 0 -35 2 -35 34 0 32 -3 35 -32 38 l-33 3 -3 68 -3 68 -32 -3
-32 -3 0 -65 0 -65 33 -3 c29 -3 32 -6 32 -38 0 -34 -1 -35 -32 -32 -30 3 -33
6 -32 36 1 30 -2 32 -33 32 l-33 0 0 -65 c0 -45 4 -65 13 -66 6 -1 35 -1 62
-1 49 -1 50 0 53 31 3 28 6 31 38 31 31 0 34 -3 34 -29 0 -23 5 -30 27 -34 36
-7 43 -2 43 34 l0 29 141 0 140 0 -3 -32 c-3 -29 -6 -33 -33 -33 l-30 0 -3
-67 -3 -68 36 0 35 0 0 71 c0 67 1 70 23 69 41 -4 47 0 47 30 0 28 -3 30 -35
30 -33 0 -35 2 -35 35 l0 35 -70 0 -70 0 0 70 0 70 -70 0 -70 0 0 35 c0 33 -2
35 -35 35 -33 0 -35 -2 -35 -35z"/>
<path d="M4810 5585 c0 -33 2 -35 35 -35 33 0 35 2 35 35 0 33 -2 35 -35 35
-33 0 -35 -2 -35 -35z"/>
<path d="M3430 5345 l0 -65 35 0 35 0 0 65 0 65 -35 0 -35 0 0 -65z"/>
<path d="M2530 5278 l0 -68 35 0 35 0 0 70 0 71 -35 -3 -35 -2 0 -68z"/>
<path d="M5227 5273 c-4 -3 -7 -19 -7 -35 0 -25 3 -28 35 -28 33 0 35 2 35 35
0 32 -3 35 -28 35 -16 0 -32 -3 -35 -7z"/>
<path d="M2877 5203 c-4 -3 -7 -35 -7 -70 l0 -63 70 0 70 0 0 70 0 70 -63 0
c-35 0 -67 -3 -70 -7z"/>
<path d="M5020 4416 c0 -35 1 -36 36 -36 34 0 35 1 32 33 -3 28 -7 32 -35 35
-32 3 -33 2 -33 -32z"/>
<path d="M5920 4205 c0 -32 2 -35 30 -35 28 0 30 3 30 35 0 32 -2 35 -30 35
-28 0 -30 -3 -30 -35z"/>
<path d="M5918 4076 c-7 -35 5 -48 38 -44 24 3 28 7 28 33 0 26 -4 30 -31 33
-26 3 -31 -1 -35 -22z"/>
<path d="M1630 3995 c0 -33 2 -35 35 -35 33 0 35 -2 35 -35 0 -33 2 -35 35
-35 33 0 35 2 35 35 0 33 -2 35 -35 35 -33 0 -35 2 -35 35 0 33 -2 35 -35 35
-33 0 -35 -2 -35 -35z"/>
<path d="M5850 3995 c0 -33 2 -35 35 -35 33 0 35 2 35 35 0 33 -2 35 -35 35
-33 0 -35 -2 -35 -35z"/>
<path d="M1770 3793 l0 -33 -70 0 -70 0 0 -35 0 -35 105 0 106 0 -3 67 -3 67
-32 1 c-31 1 -33 -1 -33 -32z"/>
<path d="M1910 3725 c0 -33 2 -35 35 -35 33 0 35 2 35 35 0 33 -2 35 -35 35
-33 0 -35 -2 -35 -35z"/>
<path d="M5917 3256 c-12 -30 4 -56 34 -56 26 0 29 3 29 35 0 32 -3 35 -29 35
-16 0 -31 -6 -34 -14z"/>
<path d="M1840 3094 c0 -34 1 -35 33 -32 28 3 32 7 35 36 3 31 2 32 -32 32
-35 0 -36 -1 -36 -36z"/>
<path d="M2252 3098 c3 -29 7 -33 36 -36 28 -3 32 -7 32 -33 0 -16 -6 -30 -12
-31 -7 0 -17 -2 -23 -3 -5 -2 -16 -3 -22 -4 -7 0 -13 -14 -13 -31 l0 -30 70 0
70 0 0 65 0 65 -35 0 c-33 0 -35 2 -35 35 0 33 -2 35 -36 35 -34 0 -35 -1 -32
-32z"/>
<path d="M1560 2475 c0 -33 -2 -35 -35 -35 -33 0 -35 -2 -35 -35 0 -33 2 -35
35 -35 33 0 35 2 35 35 0 33 2 35 35 35 33 0 35 2 35 35 0 33 -2 35 -35 35
-33 0 -35 -2 -35 -35z"/>
<path d="M1700 2475 c0 -33 2 -35 35 -35 33 0 35 2 35 35 0 33 -2 35 -35 35
-33 0 -35 -2 -35 -35z"/>
<path d="M2320 2335 c0 -33 2 -35 35 -35 33 0 35 2 35 35 0 33 -2 35 -35 35
-33 0 -35 -2 -35 -35z"/>
<path d="M2602 2303 l3 -68 133 -2 132 -2 0 35 c0 31 -3 34 -29 34 -32 0 -47
23 -35 54 5 14 -6 16 -100 16 l-107 0 3 -67z"/>
<path d="M4600 2264 c0 -31 -3 -35 -22 -34 -47 4 -48 2 -48 -65 l0 -65 141 0
140 0 -3 33 c-3 28 -7 32 -35 35 l-33 3 0 65 0 64 -70 0 -70 0 0 -36z"/>
<path d="M5020 2235 c0 -67 -1 -69 -47 -65 -20 1 -23 -3 -23 -34 0 -34 -2 -36
-35 -36 -33 0 -35 -2 -35 -35 0 -33 2 -35 35 -35 33 0 35 -2 35 -35 0 -33 2
-35 35 -35 33 0 35 -2 35 -35 0 -33 2 -35 35 -35 33 0 35 2 35 35 0 33 2 35
34 35 21 0 34 5 33 13 -2 56 -1 57 68 57 l65 0 0 35 c0 33 2 35 35 35 33 0 35
2 35 34 0 21 -5 34 -12 33 -51 -2 -58 3 -58 36 l0 32 -100 -3 -100 -3 0 35 c0
34 -2 36 -35 36 l-35 0 0 -65z m270 -100 l0 -35 -135 0 -135 0 0 -34 c0 -32 3
-35 33 -38 28 -3 32 -7 35 -35 3 -32 2 -33 -32 -33 -34 0 -36 2 -36 35 0 33
-2 35 -35 35 -33 0 -35 2 -35 35 0 33 2 35 35 35 33 0 35 2 35 35 l0 35 135 0
135 0 0 -35z"/>
<path d="M2670 2101 l0 -71 35 0 36 0 -3 68 -3 67 -32 3 -33 3 0 -70z"/>
<path d="M2809 2153 c0 -10 -2 -26 -4 -35 -3 -14 4 -18 31 -18 32 0 34 2 34
35 0 32 -2 35 -30 35 -22 0 -30 -5 -31 -17z"/>
<path d="M4467 2023 c-4 -3 -7 -19 -7 -35 0 -25 3 -28 35 -28 l35 0 0 -105 0
-105 35 0 35 0 0 -105 0 -105 70 0 70 0 0 35 c0 33 -2 35 -35 35 -33 0 -35 2
-35 35 l0 35 70 0 70 0 0 -35 c0 -33 2 -35 35 -35 33 0 35 -2 35 -35 0 -33 2
-35 35 -35 l35 0 0 70 0 70 35 0 c33 0 35 -2 35 -36 0 -34 1 -35 33 -32 l32 3
3 68 3 67 64 0 65 0 0 -35 c0 -32 -2 -35 -29 -35 -32 0 -40 -12 -33 -47 4 -21
10 -23 68 -23 l64 0 0 105 0 105 35 0 c33 0 35 2 35 35 0 33 -2 35 -35 35 -33
0 -35 -2 -35 -35 l0 -35 -205 0 -205 0 0 70 0 70 -35 0 c-33 0 -35 -2 -35 -35
0 -33 -2 -35 -35 -35 l-35 0 0 70 0 70 -70 0 -70 0 0 -35 c0 -33 -2 -35 -35
-35 -33 0 -35 2 -35 35 0 32 -3 35 -28 35 -16 0 -32 -3 -35 -7z m203 -98 c0
-33 -2 -35 -35 -35 -33 0 -35 2 -35 35 0 33 2 35 35 35 33 0 35 -2 35 -35z
m210 -140 c0 -33 2 -35 35 -35 33 0 35 -2 35 -35 l0 -35 -70 0 -70 0 0 35 c0
33 -2 35 -35 35 -33 0 -35 2 -35 35 l0 35 70 0 70 0 0 -35z"/>
<path d="M2390 1925 c0 -33 2 -35 35 -35 33 0 35 2 35 35 0 33 -2 35 -35 35
-33 0 -35 -2 -35 -35z"/>
<path d="M3220 1855 c0 -33 2 -35 35 -35 33 0 35 2 35 35 0 33 -2 35 -35 35
-33 0 -35 -2 -35 -35z"/>
<path d="M2180 1750 l0 -70 -36 0 c-34 0 -35 -1 -32 -32 3 -29 7 -33 36 -36
31 -3 32 -2 32 32 0 34 2 36 35 36 l35 0 0 70 0 70 -35 0 -35 0 0 -70z"/>
<path d="M2874 5886 c-12 -31 1 -51 34 -54 31 -3 32 -2 32 32 0 33 -2 36 -30
36 -17 0 -33 -6 -36 -14z"/>
<path d="M4260 5865 c0 -35 1 -36 33 -33 28 3 32 6 32 33 0 27 -4 30 -32 33
-32 3 -33 2 -33 -33z"/>
<path d="M5850 4684 c0 -34 1 -35 32 -32 28 3 32 7 35 36 4 31 3 32 -31 32
-35 0 -36 -1 -36 -36z"/>
<path d="M1497 4513 c-4 -3 -7 -19 -7 -35 0 -25 3 -28 35 -28 33 0 35 2 35 35
0 32 -3 35 -28 35 -16 0 -32 -3 -35 -7z"/>
<path d="M5640 4486 c0 -35 1 -36 36 -36 34 0 35 1 32 33 -3 28 -7 32 -35 35
-32 3 -33 2 -33 -32z"/>
<path d="M1492 3098 c3 -29 7 -33 36 -36 31 -3 32 -2 32 32 0 35 -1 36 -36 36
-34 0 -35 -1 -32 -32z"/>
<path d="M5640 3095 c0 -28 4 -35 19 -35 37 0 51 12 51 41 0 26 -3 29 -35 29
-33 0 -35 -2 -35 -35z"/>
<path d="M2874 1736 c-12 -31 1 -51 34 -54 31 -3 32 -2 32 32 0 33 -2 36 -30
36 -17 0 -33 -6 -36 -14z"/>
<path d="M4260 1715 c0 -35 1 -36 33 -33 28 3 32 6 32 33 0 27 -4 30 -32 33
-32 3 -33 2 -33 -33z"/>
<path d="M5640 1715 c0 -33 2 -35 35 -35 33 0 35 2 35 35 0 33 -2 35 -35 35
-33 0 -35 -2 -35 -35z"/>
<path d="M2805 6241 l-1 -69 51 0 c87 0 85 0 85 -32 0 -28 3 -30 36 -30 34 0
35 1 32 33 -3 29 -6 32 -35 29 -31 -2 -33 0 -33 32 0 32 -3 35 -32 38 -29 3
-33 7 -36 36 -3 29 -6 32 -35 32 l-32 0 0 -69z"/>
<path d="M4260 6275 c0 -35 1 -36 33 -33 28 3 32 6 32 33 0 27 -4 30 -32 33
-32 3 -33 2 -33 -33z"/>
<path d="M5502 6278 c3 -29 7 -33 36 -36 31 -3 32 -2 32 32 0 35 -1 36 -36 36
-34 0 -35 -1 -32 -32z"/>
<path d="M5640 6070 l0 -240 240 0 240 0 0 240 0 240 -240 0 -240 0 0 -240z
m410 0 l0 -170 -170 0 -170 0 0 170 0 170 170 0 170 0 0 -170z"/>
<path d="M5780 6073 l0 -103 100 0 101 0 -3 101 -3 102 -98 1 -97 1 0 -102z"/>
<path d="M2670 6205 c0 -33 1 -35 33 -31 28 3 32 7 35 35 3 30 2 31 -32 31
-34 0 -36 -2 -36 -35z"/>
<path d="M4399 6238 c-10 -19 -3 -51 13 -59 29 -16 48 -4 48 31 0 27 -3 30
-30 30 -16 0 -31 -1 -31 -2z"/>
<path d="M5238 6173 c-12 -3 -18 -14 -18 -34 0 -27 3 -29 36 -29 34 0 35 1 32
32 -3 33 -15 41 -50 31z"/>
<path d="M1220 5725 c0 -33 -2 -35 -35 -35 -33 0 -35 -2 -35 -35 0 -33 -2 -35
-35 -35 l-35 0 0 -106 0 -105 33 3 c28 3 32 7 35 35 3 28 7 32 35 35 28 3 31
7 32 36 1 30 -2 32 -32 32 -31 0 -33 2 -33 35 0 33 2 35 35 35 33 0 35 2 35
35 l0 35 64 0 65 0 3 -32 c3 -29 7 -33 36 -36 l32 -3 0 70 0 71 -100 0 -100 0
0 -35z"/>
<path d="M1490 5725 c0 -33 2 -35 35 -35 33 0 35 2 35 35 0 33 -2 35 -35 35
-33 0 -35 -2 -35 -35z"/>
<path d="M1080 4099 l0 -70 33 3 32 3 3 68 3 67 -36 0 -35 0 0 -71z"/>
<path d="M1080 3925 l0 -36 67 3 67 3 2 33 2 32 -69 0 -69 0 0 -35z"/>
<path d="M1280 3854 c0 -33 -2 -36 -25 -32 -29 6 -41 -7 -37 -38 2 -16 -3 -23
-20 -26 -36 -7 -48 1 -48 33 0 27 -3 29 -35 29 -32 0 -35 -2 -35 -30 0 -28 3
-30 35 -30 33 0 35 -2 35 -34 0 -32 3 -35 33 -38 28 -3 32 -7 35 -36 3 -30 6
-33 34 -30 31 3 31 3 32 68 l1 65 65 1 65 0 3 35 c3 34 2 35 -30 35 -30 -1
-33 2 -36 32 -3 29 -6 32 -38 32 -32 0 -34 -2 -34 -36z"/>
<path d="M1150 3031 c0 -20 6 -30 19 -34 27 -7 51 11 51 38 0 22 -5 25 -35 25
-32 0 -35 -3 -35 -29z"/>
<path d="M7164 2848 c-17 -19 -117 -115 -324 -308 -91 -85 -187 -175 -267
-252 l-93 -88 0 -645 0 -645 -687 0 -688 0 -160 -152 c-240 -227 -461 -435
-539 -508 -38 -36 -113 -107 -165 -157 l-96 -92 1528 -1 1527 0 0 1435 c0 789
-4 1435 -8 1435 -5 0 -17 -10 -28 -22z"/>
<path d="M1080 1855 c0 -33 2 -35 35 -35 33 0 35 2 35 35 0 33 -2 35 -35 35
-33 0 -35 -2 -35 -35z"/>
<path d="M1490 1855 c0 -33 2 -35 35 -35 33 0 35 2 35 35 0 33 -2 35 -35 35
-33 0 -35 -2 -35 -35z"/>
<path d="M1080 1510 l0 -240 240 0 240 0 0 240 0 240 -240 0 -240 0 0 -240z
m410 0 l0 -170 -170 0 -170 0 0 170 0 170 170 0 170 0 0 -170z"/>
<path d="M1222 1508 l3 -101 95 0 95 0 3 101 3 102 -101 0 -101 0 3 -102z"/>
<path d="M2746 1472 c-7 -7 -8 -57 -1 -64 3 -2 18 -3 34 0 25 3 29 8 28 30 -2
19 -10 28 -29 33 -15 4 -29 4 -32 1z"/>
<path d="M5647 1403 c-4 -3 -7 -19 -7 -34 0 -24 -4 -28 -32 -31 -29 -3 -33 -7
-36 -35 -3 -32 -2 -33 32 -33 34 0 36 2 36 35 0 33 2 35 35 35 32 0 35 3 35
29 0 17 -6 31 -16 35 -20 8 -39 8 -47 -1z"/>
<path d="M1941 614 c0 -11 3 -14 6 -6 3 7 2 16 -1 19 -3 4 -6 -2 -5 -13z"/>
<path d="M747 613 c-2 -5 -5 -43 -6 -85 -2 -66 0 -78 14 -78 10 0 13 5 9 11
-4 7 -6 45 -5 85 2 68 -1 86 -12 67z"/>
<path d="M1432 569 c-2 -61 4 -75 25 -58 7 6 13 8 13 3 1 -5 12 -22 26 -39 28
-32 23 -17 -9 27 -11 14 -25 24 -33 21 -9 -3 -14 10 -17 49 l-3 53 -2 -56z"/>
<path d="M1751 535 c0 -50 4 -85 10 -85 6 0 9 34 8 85 -1 47 -5 85 -10 85 -4
0 -8 -38 -8 -85z"/>
<path d="M3116 598 c-12 -48 -8 -58 27 -58 25 0 37 -6 45 -22 7 -15 11 -18 11
-7 1 23 -20 39 -51 39 -28 0 -34 12 -23 42 4 9 17 13 40 10 21 -3 35 0 35 7 0
6 -17 11 -39 11 -32 0 -40 -4 -45 -22z"/>
<path d="M1231 598 c-1 -10 -7 -18 -13 -18 -9 0 -10 -3 -2 -8 6 -4 14 -14 17
-22 4 -12 6 -11 6 3 1 9 7 17 14 17 8 0 9 3 1 8 -6 4 -14 14 -17 22 -4 12 -6
11 -6 -2z"/>
<path d="M2196 594 c-9 -24 -2 -26 12 -4 7 11 8 20 3 20 -5 0 -12 -7 -15 -16z"/>
<path d="M2256 600 c7 -8 14 -24 17 -35 4 -19 5 -19 6 1 0 12 -7 28 -16 35
-16 12 -17 12 -7 -1z"/>
<path d="M2330 600 c-8 -5 -12 -12 -9 -15 4 -3 12 1 19 10 14 17 11 19 -10 5z"/>
<path d="M2474 588 c-19 -23 -19 -23 1 -7 11 9 27 19 35 22 13 5 13 6 -1 6 -9
1 -24 -9 -35 -21z"/>
<path d="M2590 591 c-16 -31 -12 -107 7 -122 15 -13 15 -12 5 8 -15 27 -15 88
-2 114 6 10 8 19 6 19 -3 0 -10 -9 -16 -19z"/>
<path d="M2722 598 c-17 -17 -15 -100 4 -124 15 -18 15 -18 5 3 -14 28 -14 89
-1 114 12 22 9 24 -8 7z"/>
<path d="M2778 603 c7 -3 12 -24 12 -54 0 -28 5 -49 11 -49 6 0 8 17 5 45 -5
51 -12 65 -29 64 -9 0 -9 -2 1 -6z"/>
<path d="M2846 594 c-11 -30 -6 -62 12 -69 14 -5 15 -4 5 6 -16 16 -17 51 -1
67 8 8 8 12 1 12 -6 0 -14 -7 -17 -16z"/>
<path d="M2908 597 c6 -7 11 -32 10 -55 0 -24 2 -46 6 -49 8 -8 8 80 0 101 -3
9 -11 16 -16 16 -7 0 -7 -4 0 -13z"/>
<path d="M2990 599 c-12 -8 -10 -9 7 -4 21 6 22 3 26 -72 l3 -78 2 83 c2 84
-4 95 -38 71z"/>
<path d="M835 585 c19 -58 17 -74 -8 -99 -17 -17 -21 -26 -12 -26 20 0 45 40
45 70 -1 14 -8 36 -16 50 -11 18 -13 19 -9 5z"/>
<path d="M2401 574 c0 -11 3 -14 6 -6 3 7 2 16 -1 19 -3 4 -6 -2 -5 -13z"/>
<path d="M2662 534 c0 -41 2 -53 8 -39 11 27 12 67 1 84 -6 9 -9 -7 -9 -45z"/>
<path d="M900 516 c0 -40 4 -66 11 -66 12 0 9 119 -3 126 -5 3 -8 -24 -8 -60z"/>
<path d="M1140 570 c0 -5 7 -10 15 -10 30 0 15 -29 -17 -33 -29 -3 -28 -4 9
-5 37 -2 41 0 36 18 -6 22 -43 48 -43 30z"/>
<path d="M1485 560 c-10 -11 -14 -20 -9 -20 5 0 15 9 22 20 7 11 11 20 9 20
-2 0 -12 -9 -22 -20z"/>
<path d="M1860 570 c0 -5 7 -10 15 -10 30 0 15 -29 -17 -33 -29 -3 -28 -4 9
-5 37 -2 41 0 36 18 -6 22 -43 48 -43 30z"/>
<path d="M1030 561 c0 -5 5 -13 10 -16 6 -3 10 -2 10 4 0 5 -4 13 -10 16 -5 3
-10 2 -10 -4z"/>
<path d="M1102 558 c-7 -7 -11 -21 -11 -32 1 -21 1 -21 6 -1 3 11 10 26 15 33
13 15 6 16 -10 0z"/>
<path d="M1622 558 c-13 -13 -17 -78 -4 -78 5 0 6 14 4 32 -3 22 0 35 14 45
10 7 13 13 8 13 -6 0 -15 -5 -22 -12z"/>
<path d="M1822 558 c-26 -26 -9 -99 23 -98 5 0 2 5 -7 11 -21 12 -24 69 -6 87
7 7 10 12 7 12 -3 0 -10 -5 -17 -12z"/>
<path d="M1940 510 c0 -35 2 -61 4 -59 8 7 10 108 3 115 -4 4 -7 -21 -7 -56z"/>
<path d="M2002 558 c11 -8 19 -31 21 -63 3 -44 4 -42 3 10 -1 52 -4 60 -21 63
-18 4 -19 3 -3 -10z"/>
<path d="M967 553 c-14 -13 -7 -71 10 -84 15 -13 15 -12 4 10 -7 13 -11 36 -9
52 5 31 5 32 -5 22z"/>
<path d="M1374 552 c3 -6 -2 -15 -11 -21 -17 -10 -17 -10 1 -11 14 0 17 -6 14
-24 -3 -14 -1 -31 4 -38 5 -8 7 8 6 40 0 29 -6 56 -11 59 -6 3 -7 1 -3 -5z"/>
<path d="M1700 517 c4 -41 5 -41 8 -8 2 18 0 37 -5 42 -5 5 -6 -11 -3 -34z"/>
<path d="M2190 541 c0 -9 30 -24 36 -18 2 1 -6 8 -16 15 -11 7 -20 8 -20 3z"/>
<path d="M2368 540 c29 -12 38 -37 23 -61 -6 -11 -7 -19 -2 -19 17 0 23 42 10
66 -7 14 -21 24 -33 23 -20 0 -20 -1 2 -9z"/>
<path d="M2450 522 c0 -18 9 -36 23 -48 l22 -19 -19 22 c-11 13 -16 31 -13 43
3 11 1 23 -4 26 -5 3 -9 -8 -9 -24z"/>
<path d="M2250 529 c-13 -9 -13 -10 2 -5 10 3 18 -1 21 -12 3 -12 5 -11 6 6 1
24 -6 27 -29 11z"/>
<path d="M2534 518 c4 -17 0 -32 -10 -42 -8 -9 -11 -16 -4 -16 19 0 34 46 20
66 -10 17 -11 16 -6 -8z"/>
<path d="M1231 499 c-1 -26 4 -39 15 -43 13 -5 14 -3 6 6 -5 7 -12 27 -15 43
-4 28 -4 28 -6 -6z"/>
<path d="M1090 490 c0 -5 5 -10 11 -10 5 0 7 5 4 10 -3 6 -8 10 -11 10 -2 0
-4 -4 -4 -10z"/>
<path d="M1301 488 c-1 -10 9 -22 22 -28 19 -9 20 -9 6 2 -9 7 -18 20 -22 28
-4 12 -6 12 -6 -2z"/>
<path d="M1036 473 c-6 -14 -5 -15 5 -6 7 7 10 15 7 18 -3 3 -9 -2 -12 -12z"/>
<path d="M3110 481 c0 -6 4 -13 10 -16 6 -3 7 1 4 9 -7 18 -14 21 -14 7z"/>
<path d="M3172 475 c-7 -8 -9 -15 -4 -15 5 0 15 7 22 15 16 19 -1 19 -18 0z"/>
<path d="M2885 470 c-16 -7 -17 -9 -3 -9 9 -1 20 4 23 9 7 11 7 11 -20 0z"/>
</g>
</svg>
