<?xml version="1.0" standalone="no"?>
<!DOCTYPE svg PUBLIC "-//W3C//DTD SVG 20010904//EN"
 "http://www.w3.org/TR/2001/REC-SVG-20010904/DTD/svg10.dtd">
<svg version="1.0" xmlns="http://www.w3.org/2000/svg"
 width="523.000000pt" height="527.000000pt" viewBox="0 0 523.000000 527.000000"
 preserveAspectRatio="xMidYMid meet">

<g transform="translate(0.000000,527.000000) scale(0.100000,-0.100000)"
fill="#000000" stroke="none">
<path d="M90 4900 l0 -240 240 0 240 0 0 240 0 240 -240 0 -240 0 0 -240z
m410 0 l0 -170 -170 0 -170 0 0 170 0 170 170 0 170 0 0 -170z"/>
<path d="M228 4925 c-6 -132 -12 -125 103 -125 l99 0 0 103 0 103 -99 0 -99 0
-4 -81z"/>
<path d="M640 5041 l0 -100 33 -3 32 -3 3 -67 3 -68 -36 0 -35 0 0 -175 0
-175 -70 0 -70 0 0 -35 c0 -33 2 -35 35 -35 33 0 35 -2 35 -35 0 -33 -2 -35
-36 -35 -34 0 -35 -1 -32 -32 3 -29 7 -33 36 -36 31 -3 32 -2 32 32 0 34 2 36
35 36 l35 0 0 -64 0 -65 -52 -6 c-29 -4 -75 -5 -103 -3 l-50 3 -3 102 -3 102
-32 3 c-28 3 -32 7 -35 36 -3 29 -6 32 -38 32 l-34 0 0 -135 c0 -101 3 -135
13 -136 6 -1 38 -1 70 -1 l57 1 0 -35 0 -34 105 0 105 0 0 -35 0 -35 -70 0
-70 0 0 -35 c0 -33 2 -35 35 -35 33 0 35 -2 35 -35 0 -33 -2 -35 -35 -35 -33
0 -35 -2 -35 -35 0 -33 -2 -35 -35 -35 -33 0 -35 2 -35 35 0 33 -2 35 -35 35
-33 0 -35 2 -35 35 0 33 -2 35 -33 35 -32 0 -34 2 -33 33 1 29 4 32 34 35 29
3 32 6 32 38 l0 34 -65 0 c-65 0 -65 0 -65 29 0 21 -6 30 -22 35 -42 11 -48 7
-48 -29 0 -33 -2 -35 -35 -35 -33 0 -35 -2 -35 -34 0 -32 3 -35 32 -38 29 -3
33 -7 36 -35 3 -28 7 -32 35 -35 28 -3 32 -7 35 -35 3 -29 7 -33 32 -33 19 0
30 -6 32 -17 8 -35 -3 -53 -33 -53 -16 0 -29 -6 -30 -12 -1 -7 -2 -22 -3 -33
-1 -15 -9 -21 -33 -23 -30 -3 -33 -6 -33 -38 0 -32 -2 -34 -35 -34 -33 0 -35
-2 -35 -36 0 -34 1 -35 33 -32 28 3 32 7 35 36 3 29 6 32 37 32 l33 0 -1 -67
-2 -68 -32 -3 c-28 -3 -32 -7 -35 -35 -3 -28 -7 -32 -36 -35 -29 -3 -32 -6
-32 -35 l0 -32 63 -1 c65 -1 77 5 77 44 0 18 6 22 30 22 28 0 30 3 30 35 l0
35 140 0 140 0 0 35 c0 33 -2 35 -35 35 -33 0 -35 2 -35 35 l0 35 105 0 105 0
0 -70 0 -70 70 0 70 0 0 -35 0 -35 -245 0 -245 0 0 -35 c0 -33 -2 -35 -35 -35
-32 0 -35 -2 -35 -30 0 -28 3 -30 35 -30 33 0 35 -2 35 -35 l0 -35 -99 0 -100
0 -3 33 c-3 28 -7 32 -35 35 -32 3 -33 2 -33 -32 0 -34 2 -36 35 -36 33 0 35
-2 35 -35 l0 -35 65 0 65 0 0 -105 0 -105 35 0 34 0 3 68 3 67 33 3 32 3 0
-70 0 -71 70 0 70 0 0 -35 0 -35 -70 0 -71 0 3 -67 3 -68 32 -3 c28 -3 32 -7
35 -35 3 -28 7 -32 36 -35 29 -3 32 -6 32 -38 0 -32 -2 -34 -35 -34 -32 0 -35
-2 -35 -29 0 -26 -4 -30 -32 -33 l-33 -3 -3 -137 -3 -138 71 0 70 0 0 -35 c0
-33 -2 -35 -35 -35 -33 0 -35 -2 -35 -35 0 -33 -2 -35 -35 -35 -33 0 -35 2
-35 35 l0 34 -67 3 -68 3 -3 68 -3 67 36 0 c33 0 35 2 35 35 0 33 -2 35 -36
35 -28 0 -35 -4 -33 -17 4 -45 -1 -53 -31 -53 -30 0 -37 -13 -31 -57 1 -9 -18
-13 -69 -13 l-70 0 0 -70 0 -69 68 -3 67 -3 0 -30 c0 -27 -4 -30 -33 -33 -29
-3 -32 -6 -32 -38 0 -32 -2 -34 -35 -34 -33 0 -35 -2 -35 -36 0 -34 1 -35 33
-32 28 3 32 7 35 36 3 29 6 32 38 32 32 0 34 -2 34 -35 0 -32 2 -35 30 -35
l30 0 0 70 0 70 35 0 35 0 0 -105 0 -105 -35 0 -35 0 0 -65 0 -65 -30 0 c-30
0 -35 -8 -33 -57 1 -9 -19 -13 -68 -13 l-69 0 0 -35 0 -35 100 0 99 0 3 -68 3
-67 33 -3 32 -3 0 105 0 106 34 0 c32 0 35 3 38 33 l3 32 138 3 137 3 0 -36
c0 -33 2 -35 35 -35 33 0 35 -2 35 -35 l0 -35 -105 0 -105 0 0 35 0 36 -67 -3
-68 -3 -3 -32 -3 -33 70 0 71 0 0 -35 0 -35 -70 0 -70 0 0 -105 0 -105 -35 0
c-33 0 -35 2 -35 35 l0 35 -65 0 -64 0 -3 68 -3 67 -32 3 c-32 3 -33 2 -33
-32 0 -34 -2 -36 -35 -36 l-35 0 0 -70 0 -70 35 0 36 0 -3 -67 -3 -68 -33 -3
-32 -3 0 -70 0 -70 32 4 c29 3 33 7 36 35 3 29 7 32 35 32 l32 0 3 -65 3 -65
-70 0 -71 0 0 -105 0 -105 71 0 c67 0 70 1 69 23 -4 41 0 47 30 47 l30 0 0
-70 0 -70 35 0 c33 0 35 -2 35 -35 0 -33 2 -35 35 -35 l35 0 0 70 0 70 70 0
70 0 0 35 c0 33 2 35 35 35 l35 0 0 70 0 70 35 0 c32 0 35 3 35 29 0 24 5 29
30 33 17 3 32 2 35 0 3 -3 5 -34 5 -69 l0 -63 -35 0 c-33 0 -35 -2 -35 -35 0
-33 2 -35 35 -35 33 0 35 -2 35 -35 l0 -35 -70 0 -70 0 0 -105 0 -105 35 0
c33 0 35 -2 35 -35 0 -33 2 -35 35 -35 l36 0 -3 -102 -3 -103 -32 -3 -33 -3 0
70 0 71 -35 0 -36 0 3 -102 3 -103 33 2 32 2 0 -70 0 -69 173 0 172 0 -1 32
c-1 29 -4 33 -32 36 -28 3 -32 7 -32 32 0 28 -15 40 -51 40 -14 0 -19 7 -19
30 l0 30 71 0 71 0 -7 -29 c-7 -32 8 -44 44 -34 15 4 21 13 21 34 0 27 3 29
36 29 34 0 35 -1 32 -32 -3 -31 -5 -33 -35 -30 -32 3 -33 2 -33 -32 0 -34 2
-36 35 -36 33 0 35 2 35 35 0 33 2 35 35 35 l35 0 0 -70 0 -70 140 0 140 0 0
35 c0 33 2 35 35 35 33 0 35 -2 35 -35 0 -33 2 -35 36 -35 34 0 35 1 32 33 -3
28 -7 32 -35 35 -28 3 -32 7 -35 35 -3 28 -7 32 -35 35 l-33 3 0 135 0 134 35
0 c33 0 35 -2 35 -35 0 -33 2 -35 35 -35 l35 0 0 -70 0 -70 35 0 c33 0 35 2
35 35 l0 35 64 0 64 0 4 -49 c4 -67 0 -81 -26 -81 -30 0 -44 -16 -38 -46 3
-19 11 -24 33 -24 26 0 29 4 29 30 0 32 0 32 43 35 l27 2 0 -68 0 -69 35 0 35
0 0 99 0 100 -32 3 c-29 3 -33 7 -36 36 l-3 32 70 0 70 0 3 -32 c3 -29 7 -33
36 -36 29 -3 32 -6 32 -35 0 -30 -3 -32 -32 -32 -30 0 -33 -3 -36 -32 -3 -32
-2 -33 32 -33 34 0 36 -2 36 -35 l0 -35 239 0 c219 0 239 1 243 18 9 36 -2 52
-37 52 -26 0 -33 4 -30 18 2 9 4 54 4 99 l1 82 33 3 c30 3 32 5 29 36 -3 31
-2 32 32 32 34 0 36 -2 36 -35 0 -33 -2 -35 -35 -35 l-35 0 0 -64 c0 -68 6
-76 47 -68 21 4 23 10 23 68 l0 64 70 0 70 0 0 -64 0 -65 -32 -3 -33 -3 -3
-67 -3 -68 35 0 c32 0 35 3 38 33 l3 32 68 3 67 3 0 -36 c0 -33 2 -35 35 -35
33 0 35 2 35 36 0 34 1 35 33 32 28 -3 32 -7 35 -36 l3 -33 102 3 102 3 3 32
3 33 65 0 64 0 0 36 c0 31 -3 35 -22 34 -46 -4 -50 -1 -43 30 l7 30 -61 0
c-34 0 -64 1 -68 3 -5 1 -9 -13 -11 -30 -3 -27 0 -33 17 -33 37 0 51 -12 51
-41 l0 -29 -69 0 -70 0 -3 33 c-3 28 -7 32 -35 35 -29 3 -33 7 -33 32 0 29 0
29 68 32 l67 3 3 33 3 32 65 0 c56 0 64 -2 64 -19 0 -32 11 -51 30 -51 36 0
47 10 42 40 -4 29 -2 30 32 30 l36 0 0 -99 0 -100 -32 -3 c-29 -3 -33 -7 -36
-35 -3 -32 -2 -33 32 -33 32 0 35 3 38 33 3 28 7 32 36 35 31 3 32 2 32 -32
l0 -36 140 0 140 0 0 35 c0 33 2 35 35 35 33 0 35 -2 35 -35 l0 -35 105 0
c110 0 111 0 99 48 -5 16 -14 22 -35 22 -29 0 -29 0 -29 65 l0 65 100 0 100 0
0 -33 c0 -30 -2 -32 -32 -32 -30 0 -33 -3 -36 -32 -3 -32 -2 -33 32 -33 34 0
36 -2 36 -35 0 -33 2 -35 35 -35 33 0 35 2 35 35 0 33 2 35 35 35 33 0 35 -2
35 -35 0 -33 2 -35 35 -35 l35 0 0 100 0 99 68 3 67 3 3 33 3 32 105 0 104 0
0 -35 c0 -34 1 -35 36 -35 35 0 36 -1 30 -30 -5 -29 -4 -30 29 -30 21 0 35 -5
36 -12 5 -79 6 -105 8 -115 1 -9 21 -13 66 -13 l65 0 0 35 c0 33 -2 35 -36 35
-34 0 -35 1 -32 33 3 28 7 32 36 35 l32 3 0 100 0 99 -35 0 c-33 0 -35 2 -35
35 0 33 2 35 35 35 l35 0 0 141 0 140 -32 -3 c-29 -3 -33 -7 -36 -36 -3 -31
-6 -33 -35 -30 -24 2 -32 8 -33 23 -1 11 -2 26 -3 33 -1 6 -14 12 -30 12 -26
0 -30 4 -33 33 l-3 32 -102 3 -103 3 0 34 c0 33 2 35 36 35 34 0 35 1 32 33
-3 28 -7 32 -35 35 l-33 3 0 65 0 64 35 0 c33 0 35 -2 35 -33 0 -32 2 -34 33
-33 29 1 32 4 35 34 3 29 6 32 37 32 31 0 34 -3 37 -32 2 -28 8 -34 31 -36 26
-3 32 -15 28 -50 -1 -7 11 -12 34 -12 33 0 35 -2 35 -34 0 -32 -3 -35 -32 -38
-30 -3 -33 -6 -34 -35 l-1 -33 69 0 68 0 0 70 c0 38 -3 69 -7 69 -5 -1 -21 -1
-36 0 -26 1 -28 4 -25 34 3 30 5 32 36 29 l32 -4 0 106 0 106 -35 0 c-33 0
-35 2 -35 35 0 33 2 35 35 35 33 0 35 2 35 35 0 33 -2 35 -35 35 -33 0 -35 2
-35 35 0 33 2 35 35 35 33 0 35 2 35 35 0 33 -2 35 -35 35 -33 0 -35 2 -35 35
0 33 -2 35 -35 35 -33 0 -35 2 -35 35 l0 35 70 0 70 0 0 70 c0 73 -2 76 -47
64 -17 -5 -23 -14 -23 -35 0 -26 -3 -29 -34 -29 -32 0 -35 3 -38 33 -2 27 -8
33 -30 35 -24 3 -28 8 -28 33 0 26 3 29 30 29 28 0 30 3 30 35 0 32 -2 35 -30
35 -28 0 -30 3 -30 35 0 33 -2 35 -35 35 l-35 0 0 70 0 70 -70 0 -70 0 0 -35
0 -35 -70 0 -70 0 0 35 c0 33 2 35 35 35 33 0 35 2 35 35 l0 35 106 0 105 0
-3 32 -3 33 -67 3 -68 3 0 69 0 70 35 0 c33 0 35 -2 35 -35 l0 -35 99 0 100 0
3 -32 c3 -29 7 -33 36 -36 29 -3 32 -6 32 -38 0 -31 -2 -34 -30 -34 -24 0 -30
-5 -32 -22 -1 -13 -3 -32 -4 -43 -1 -11 -2 -32 -3 -47 -1 -23 -6 -27 -33 -30
-24 -2 -33 -8 -32 -20 1 -10 2 -25 3 -33 1 -10 12 -15 31 -15 30 0 34 6 30 48
-1 19 3 22 34 22 l36 0 0 -104 0 -105 -32 -3 c-28 -2 -34 -8 -36 -30 -3 -26
-1 -28 32 -28 33 0 36 2 36 30 0 28 3 30 35 30 l35 0 0 105 0 105 -35 0 c-33
0 -35 2 -35 35 0 33 2 35 35 35 l35 0 0 175 0 175 -35 0 c-33 0 -35 2 -35 35
0 29 3 34 23 33 42 -2 47 2 47 31 0 26 -4 30 -32 33 -29 3 -33 7 -36 36 -3 31
-2 32 32 32 l36 0 0 105 0 105 -35 0 c-33 0 -35 2 -35 35 0 33 2 35 35 35 l35
0 0 105 0 105 -36 0 c-34 0 -35 1 -32 33 3 28 7 32 36 35 l32 3 0 380 0 379
-100 0 -100 0 0 35 c0 33 -2 35 -35 35 l-35 0 0 -70 0 -70 65 0 65 0 0 -54 c0
-73 6 -86 41 -86 26 0 29 -3 29 -35 0 -33 -2 -35 -36 -35 -34 0 -35 -1 -31
-32 3 -29 7 -33 35 -36 29 -3 32 -6 32 -38 l0 -34 -64 0 c-67 0 -78 -8 -68
-52 3 -15 15 -18 68 -18 l64 0 0 -35 c0 -33 -2 -35 -35 -35 -28 0 -35 -4 -35
-19 0 -37 10 -48 40 -43 29 4 30 2 30 -32 l0 -36 -65 0 -65 0 0 29 c0 26 -4
30 -32 33 -29 3 -33 7 -36 35 -3 29 -1 32 29 35 29 3 33 7 36 36 4 31 3 32
-31 32 -34 0 -36 -2 -36 -35 0 -33 -2 -35 -35 -35 -33 0 -35 2 -35 34 0 32 3
35 33 38 28 3 32 7 35 36 3 29 6 32 38 32 l34 0 0 70 0 70 -105 0 -105 0 0 35
0 35 105 0 105 0 0 35 0 35 -70 0 -69 0 -3 138 -3 137 -30 0 c-27 0 -30 4 -33
33 l-3 32 70 0 70 0 3 -32 c2 -26 8 -33 26 -34 41 -3 43 -4 41 -21 -4 -42 -2
-43 101 -43 l100 0 0 100 0 100 -35 0 c-33 0 -35 2 -35 35 0 33 2 35 35 35
l35 0 0 105 0 105 -99 0 -100 0 -3 -32 c-3 -29 -7 -33 -35 -36 -28 -3 -32 -7
-35 -35 l-3 -32 -67 -3 -68 -3 0 -34 0 -35 -70 0 -70 0 0 35 c0 33 2 35 35 35
33 0 35 2 35 35 l0 35 70 0 70 0 0 35 0 35 -105 0 -105 0 0 70 0 70 -35 0
c-33 0 -35 -2 -35 -35 0 -33 -2 -35 -35 -35 l-35 0 0 70 0 70 70 0 70 0 0 35
c0 33 -2 35 -35 35 -33 0 -35 2 -35 35 l0 36 -67 -3 -68 -3 -3 -32 c-3 -32 -2
-33 32 -33 34 0 36 -2 36 -35 l0 -35 -70 0 -70 0 0 35 0 35 -170 0 -170 0 0
35 0 35 70 0 70 0 0 30 c0 30 -8 35 -52 31 -14 -2 -18 5 -18 33 l0 36 170 0
170 0 0 -30 c0 -32 0 -32 43 -35 l27 -2 0 68 0 69 -345 0 -345 0 0 -35 0 -35
-70 0 -70 0 0 35 c0 33 -2 35 -36 35 -34 0 -35 -1 -32 -32 3 -29 7 -33 36 -36
l32 -3 0 -100 0 -99 -35 0 c-33 0 -35 2 -35 35 l0 35 -70 0 -70 0 5 29 c6 36
3 37 -110 36 l-90 0 -3 -32 c-3 -30 -6 -33 -38 -33 l-34 0 0 64 0 65 33 3 c28
3 32 7 35 36 3 31 2 32 -32 32 -34 0 -36 -2 -36 -35 0 -33 -2 -35 -35 -35 -33
0 -35 2 -35 35 l0 35 -70 0 -70 0 0 -35 0 -35 -70 0 -70 0 0 35 c0 33 -2 35
-36 35 -34 0 -35 -1 -32 -32 3 -29 7 -33 36 -36 28 -3 32 -7 32 -33 0 -32 1
-32 85 -33 49 -1 50 -2 53 -33 l3 -32 -103 -3 -103 -3 -3 -32 -3 -33 70 0 71
0 0 -34 c0 -32 -3 -35 -32 -38 -29 -3 -33 -7 -36 -35 -3 -28 -7 -32 -35 -35
-28 -3 -32 -7 -35 -35 -3 -30 -6 -33 -38 -33 -32 0 -34 2 -34 35 0 32 -2 35
-29 35 -26 0 -30 4 -33 33 -3 28 -7 32 -35 35 -30 3 -33 6 -33 37 0 31 3 34
33 37 28 3 32 7 35 36 3 28 7 32 33 32 l29 0 0 65 0 65 -100 0 -100 0 0 35 0
35 -70 0 -70 0 0 -35 c0 -33 -2 -35 -35 -35 -33 0 -35 2 -35 35 l0 35 -70 0
-70 0 0 -35 c0 -33 -2 -35 -35 -35 -33 0 -35 2 -35 35 0 33 -2 35 -36 35 -34
0 -35 -1 -32 -32 3 -29 7 -33 36 -36 29 -3 32 -6 32 -36 l0 -34 58 3 c31 1 63
0 70 -2 8 -4 12 -27 12 -69 l0 -64 35 0 c33 0 35 -2 35 -35 0 -33 2 -35 36
-35 34 0 35 1 32 33 -3 28 -7 32 -36 35 -31 3 -33 6 -30 35 3 28 7 32 36 35
l32 3 0 65 0 64 70 0 70 0 0 -100 0 -100 -35 0 -35 0 0 -70 0 -70 -35 0 c-33
0 -35 -2 -35 -35 0 -33 -2 -35 -35 -35 -33 0 -35 2 -35 35 0 33 -2 35 -35 35
-33 0 -35 2 -35 35 0 33 -2 35 -35 35 l-35 0 0 70 0 70 -32 -3 c-29 -2 -33 -6
-36 -35 l-3 -32 -70 0 -69 0 0 35 c0 33 -2 35 -35 35 -34 0 -35 -1 -31 -35 4
-34 4 -35 -30 -35 -32 0 -34 2 -34 35 0 33 -2 35 -35 35 -33 0 -35 -2 -35 -34
0 -32 3 -35 33 -38 l32 -3 3 -172 2 -173 35 0 34 0 -2 -67 -2 -68 -32 -3 -33
-3 0 -70 0 -69 -70 0 -70 0 0 34 c0 32 3 35 33 38 l32 3 3 138 3 137 -36 0
c-33 0 -35 2 -35 35 0 33 2 35 35 35 l35 0 0 70 0 70 -70 0 -70 0 0 35 c0 33
2 35 35 35 l36 0 -3 68 -3 67 -32 -3 -33 -4 0 71 0 71 -70 0 -70 0 0 -35 c0
-33 -2 -35 -35 -35 l-35 0 0 -64 c0 -58 -2 -64 -23 -68 -37 -7 -47 1 -47 38 0
32 -2 34 -32 32 l-33 -3 -3 68 -3 67 -99 0 -100 0 0 -135 0 -135 -70 0 -70 0
0 35 c0 33 2 35 36 35 34 0 35 1 32 33 -3 30 -5 32 -35 29 -32 -3 -33 -2 -33
32 0 34 -2 36 -35 36 -33 0 -35 2 -35 35 l0 35 -70 0 -70 0 0 -99z m480 -3 c0
-30 -3 -33 -30 -34 -17 -1 -30 4 -31 10 0 6 -2 21 -5 34 -3 19 0 22 31 22 33
0 35 -2 35 -32z m352 0 c2 -21 9 -34 18 -34 8 -1 23 -2 33 -3 14 -1 17 -11 17
-66 l0 -65 -70 0 -70 0 0 -35 0 -35 70 0 70 0 0 -35 c0 -33 2 -35 35 -35 33 0
35 -2 35 -35 0 -33 -2 -35 -35 -35 l-35 0 0 -70 0 -70 35 0 35 0 0 -70 0 -70
-35 0 -35 0 0 -71 c0 -67 1 -70 23 -69 41 4 46 0 49 -32 2 -21 9 -34 18 -34 8
-1 23 -2 33 -3 12 -1 17 -10 17 -31 0 -28 3 -30 35 -30 l35 0 0 65 0 65 36 0
c28 0 35 -4 33 -17 -3 -36 2 -43 31 -43 28 0 30 -3 30 -35 l0 -35 140 0 140 0
0 65 0 65 35 0 c32 0 35 -2 35 -30 0 -23 5 -30 19 -30 37 0 51 -12 51 -41 0
-26 3 -29 35 -29 l35 0 0 65 0 65 -35 0 c-33 0 -35 2 -35 35 0 33 -2 35 -35
35 l-35 0 0 70 0 70 -35 0 c-33 0 -35 -2 -35 -35 0 -33 -2 -35 -35 -35 l-35 0
0 -71 0 -70 -32 3 -33 3 -3 68 -3 67 -34 0 c-33 0 -35 -2 -35 -35 0 -33 -2
-35 -34 -35 -32 0 -34 -2 -33 -35 1 -33 3 -35 34 -35 30 0 33 -3 33 -30 0 -16
-4 -30 -10 -31 -51 -6 -55 -3 -60 31 -4 31 -8 35 -32 32 -31 -4 -30 -6 -32 80
l-1 58 68 0 67 0 0 34 c0 32 -3 35 -32 38 -29 3 -33 7 -36 36 -3 31 -2 32 32
32 34 0 36 -2 36 -35 0 -33 2 -35 35 -35 33 0 35 -2 35 -35 0 -33 2 -35 35
-35 33 0 35 2 35 35 0 33 2 35 35 35 l35 0 0 70 0 70 -35 0 -35 0 0 70 0 70
35 0 35 0 0 -70 0 -70 140 0 140 0 0 35 c0 33 -2 35 -35 35 -33 0 -35 2 -35
36 0 34 1 35 33 32 28 -3 32 -7 35 -35 3 -30 6 -33 38 -33 32 0 34 2 34 35 0
33 2 35 36 35 l36 0 -4 -70 -3 -70 35 0 c35 0 36 -1 32 -35 -4 -34 -3 -35 32
-35 34 0 36 1 36 35 l0 35 70 0 70 0 0 35 c0 33 -2 35 -35 35 -33 0 -35 2 -35
35 0 33 2 35 35 35 33 0 35 -2 35 -35 0 -33 2 -35 35 -35 33 0 35 2 35 35 0
33 2 35 35 35 33 0 35 -2 35 -35 0 -33 2 -35 35 -35 l35 0 0 105 0 105 -35 0
c-33 0 -35 -2 -35 -35 0 -33 -2 -35 -35 -35 l-36 0 3 68 3 67 33 3 32 3 0 65
0 64 35 0 35 0 0 -99 0 -100 33 -3 32 -3 3 -102 3 -103 -36 0 -35 0 0 -70 0
-70 -35 0 -35 0 0 70 0 70 -35 0 c-33 0 -35 -2 -35 -35 0 -33 -2 -35 -35 -35
-33 0 -35 -2 -35 -35 0 -33 2 -35 35 -35 l35 0 0 -70 0 -70 105 0 105 0 0 35
0 35 71 0 70 0 -3 -32 -3 -33 -67 -3 -68 -3 0 -34 0 -35 105 0 105 0 0 70 0
70 34 0 c32 0 34 2 32 33 l-1 32 68 3 67 3 0 34 c0 33 -2 35 -35 35 l-36 0 3
68 3 67 33 3 c29 3 32 6 32 38 0 32 -2 34 -36 34 -34 0 -35 1 -32 33 3 28 7
32 36 35 31 3 32 2 32 -32 0 -34 2 -36 35 -36 33 0 35 2 35 35 l0 35 140 0
140 0 0 -35 c0 -33 2 -35 35 -35 l35 0 0 -70 0 -70 35 0 35 0 0 71 0 70 33 -3
32 -3 0 -65 0 -65 -32 -3 c-30 -3 -33 -6 -33 -38 l0 -34 -70 0 -70 0 0 70 0
70 -35 0 -35 0 0 -70 0 -70 -70 0 -70 0 0 35 c0 33 -2 35 -35 35 -33 0 -35 2
-35 36 0 34 -1 35 -32 32 l-33 -3 -3 -67 -3 -68 36 0 c33 0 35 -2 35 -35 l0
-35 175 0 175 0 0 -140 0 -140 35 0 c33 0 35 2 35 35 l0 35 68 0 68 0 -1 -32
-1 -33 -67 -3 -67 -3 0 -64 0 -65 -35 0 -35 0 0 -70 0 -70 35 0 c33 0 35 2 35
36 0 34 1 35 33 32 28 -3 32 -7 35 -35 3 -30 6 -33 38 -33 34 0 35 -1 32 -32
-3 -31 -1 -33 30 -36 l32 -3 0 -70 0 -69 35 0 35 0 0 70 0 70 35 0 c33 0 35 2
35 35 l0 35 -99 0 c-115 0 -109 -7 -107 121 l2 84 44 -3 c72 -4 90 4 90 38 0
28 3 30 35 30 33 0 35 2 35 35 l0 34 -67 3 -68 3 -3 33 -3 32 -65 0 -64 0 0
70 0 70 34 0 c31 0 33 2 32 33 -1 29 -5 32 -34 35 -29 3 -32 6 -32 37 0 31 3
34 33 37 35 3 32 -4 36 101 l1 37 65 0 65 0 0 -35 c0 -33 2 -35 35 -35 l35 0
0 -70 0 -70 35 0 c33 0 35 -2 35 -35 0 -33 2 -35 35 -35 33 0 35 2 35 35 0 33
2 35 35 35 l35 0 0 -70 0 -70 -70 0 -70 0 0 -70 0 -70 35 0 c33 0 35 -2 35
-35 l0 -35 -70 0 -70 0 0 -30 c0 -17 6 -30 13 -31 6 -1 50 -2 97 -4 47 -1 88
-3 93 -4 4 0 7 -14 7 -31 0 -28 3 -30 35 -30 33 0 35 2 35 35 0 33 2 35 35 35
33 0 35 -2 35 -35 0 -33 -2 -35 -35 -35 -33 0 -35 -2 -35 -35 0 -33 -2 -35
-35 -35 -33 0 -35 2 -35 35 l0 36 -102 -3 -103 -3 -3 -67 -3 -68 35 0 c32 0
35 3 38 33 3 28 7 32 36 35 31 3 32 2 32 -32 0 -34 -2 -36 -35 -36 -33 0 -35
-2 -35 -35 l0 -35 70 0 70 0 0 35 0 35 70 0 70 0 0 -35 c0 -33 -2 -35 -35 -35
-33 0 -35 -2 -35 -35 l0 -35 -140 0 -140 0 0 -35 0 -35 140 0 140 0 0 -35 0
-35 105 0 105 0 0 -35 0 -35 -105 0 -105 0 0 -35 0 -35 -140 0 -140 0 0 -35
c0 -33 2 -35 35 -35 33 0 35 -2 35 -36 0 -34 -1 -35 -32 -32 -29 3 -33 7 -36
36 -3 29 -6 32 -38 32 -32 0 -34 -2 -34 -33 l0 -33 -157 -2 c-87 -1 -164 -2
-170 -2 -8 0 -13 -13 -13 -30 l0 -30 135 0 135 0 0 -70 0 -70 35 0 34 0 3 103
3 102 33 0 c30 1 32 -2 32 -32 0 -31 2 -33 35 -33 33 0 35 -2 35 -34 0 -32 -3
-35 -32 -38 -29 -3 -33 -7 -36 -35 -3 -32 -2 -33 32 -33 34 0 36 -2 36 -35 l0
-35 70 0 70 0 0 -35 c0 -33 2 -35 35 -35 33 0 35 2 35 35 0 33 2 35 35 35 33
0 35 -2 35 -35 0 -33 -2 -35 -35 -35 l-35 0 0 -70 0 -70 -70 0 -70 0 0 -35 0
-35 70 0 70 0 0 -35 c0 -33 2 -35 35 -35 33 0 35 2 35 35 0 33 2 35 35 35 33
0 35 2 35 35 0 33 -2 35 -35 35 -33 0 -35 2 -35 35 0 33 2 35 35 35 l35 0 0
71 0 70 33 -3 c28 -3 32 -7 35 -35 3 -30 6 -33 38 -33 32 0 34 2 34 35 0 34 2
35 36 35 32 0 36 3 31 21 -9 33 3 49 34 49 l29 0 0 -105 0 -105 -35 0 c-33 0
-35 -2 -35 -35 0 -33 2 -35 35 -35 l35 0 0 -70 0 -70 -65 0 -65 0 0 -35 c0
-32 2 -35 30 -35 28 0 30 -3 30 -36 0 -35 1 -36 35 -32 34 4 35 3 35 -29 0
-33 -5 -37 -47 -33 -22 1 -23 -2 -23 -69 l0 -71 -29 0 c-26 0 -30 4 -33 33 -3
28 -7 32 -35 35 -32 3 -33 2 -33 -32 0 -34 -2 -36 -35 -36 l-35 0 0 170 0 170
-34 0 c-32 0 -35 -3 -38 -32 -3 -29 -7 -33 -35 -36 -28 -3 -32 -7 -35 -35 -3
-30 -6 -32 -43 -33 -98 -3 -95 -2 -95 -34 0 -28 3 -30 35 -30 33 0 35 -2 35
-35 0 -31 3 -35 28 -36 15 -1 30 -1 35 0 4 0 7 -15 7 -34 0 -33 -2 -35 -35
-35 -33 0 -35 -2 -35 -35 0 -33 2 -35 35 -35 l35 0 0 -70 0 -70 -35 0 c-33 0
-35 -2 -35 -35 0 -33 -2 -35 -35 -35 -33 0 -35 -2 -35 -35 0 -33 -2 -35 -35
-35 -33 0 -35 -2 -35 -35 0 -33 2 -35 35 -35 l35 0 0 -70 0 -70 -35 0 c-33 0
-35 -2 -35 -35 0 -29 -3 -34 -22 -33 -43 2 -48 -2 -48 -32 l0 -30 70 0 70 0 0
-35 0 -35 -70 0 -70 0 0 35 c0 33 -2 35 -35 35 l-35 0 0 -70 0 -70 140 0 140
0 0 35 c0 33 2 35 35 35 33 0 35 -2 35 -35 l0 -34 103 -3 102 -3 3 -33 c3 -29
6 -32 38 -32 31 0 35 3 34 23 -4 41 0 47 29 47 26 0 30 -4 33 -32 3 -29 7 -33
36 -36 29 -3 32 -6 32 -38 0 -32 -2 -34 -35 -34 -33 0 -35 2 -35 35 0 32 -2
35 -30 35 -28 0 -30 -3 -30 -35 l0 -35 -70 0 -70 0 0 -35 0 -35 -70 0 -70 0 0
-35 0 -36 103 3 102 3 3 33 c3 29 6 32 38 32 32 0 34 2 32 32 -3 28 1 34 20
36 38 6 49 -3 44 -37 -4 -26 -9 -31 -32 -31 -19 0 -30 -6 -32 -17 -8 -35 3
-53 33 -53 22 0 29 -5 29 -19 0 -37 12 -51 41 -51 26 0 29 -3 29 -35 0 -33 -2
-35 -35 -35 -33 0 -35 -2 -35 -35 0 -33 2 -35 35 -35 32 0 35 -3 35 -29 0 -31
-20 -45 -51 -36 -13 4 -19 16 -19 36 0 26 -3 29 -30 29 -28 0 -30 3 -30 35 0
33 -2 35 -35 35 -33 0 -35 2 -35 35 0 33 -2 35 -34 35 -32 0 -35 -3 -38 -32
-3 -29 -7 -33 -35 -36 -30 -3 -33 -6 -33 -38 0 -32 -2 -34 -35 -34 -33 0 -35
2 -35 35 0 33 2 35 35 35 33 0 35 2 35 35 0 33 -2 35 -35 35 -33 0 -35 2 -35
35 0 33 -2 35 -35 35 l-34 0 -3 -102 -3 -103 -30 0 -30 0 -3 68 -3 67 -34 0
c-33 0 -35 -2 -35 -35 0 -33 -2 -35 -36 -35 -34 0 -35 -1 -32 -33 3 -28 7 -32
35 -35 28 -3 32 -7 35 -35 l3 -32 103 -3 102 -3 0 -29 c0 -28 3 -30 35 -30 33
0 35 -2 35 -35 0 -33 -2 -35 -35 -35 -33 0 -35 2 -35 35 l0 36 -102 -3 -103
-3 -3 -32 c-3 -30 -6 -33 -38 -33 -32 0 -34 -2 -34 -35 0 -33 -2 -35 -35 -35
-33 0 -35 -2 -35 -35 0 -33 2 -35 35 -35 33 0 35 -2 35 -35 0 -33 2 -35 35
-35 33 0 35 -2 35 -35 0 -33 -2 -35 -35 -35 l-35 0 0 -140 0 -140 35 0 c33 0
35 2 35 35 0 33 2 35 35 35 l35 0 0 -70 0 -71 -67 3 -68 3 -3 33 -3 32 -205 0
-204 0 0 -69 0 -70 -27 4 c-16 2 -31 4 -35 4 -5 1 -8 30 -8 66 l0 65 -35 0
c-32 0 -35 -3 -35 -29 0 -29 -14 -41 -51 -41 -14 0 -19 -7 -19 -29 0 -26 4
-30 33 -33 28 -3 32 -7 35 -35 l3 -33 -70 0 -71 0 0 64 0 65 -32 3 c-29 3 -33
7 -36 36 -3 29 -6 32 -38 32 -32 0 -34 2 -34 34 0 32 -3 35 -32 38 l-33 3 -3
173 -2 172 -30 0 c-29 0 -44 -21 -38 -51 2 -11 -36 -15 -204 -17 l-208 -2 0
35 c0 33 2 35 35 35 l35 0 0 205 0 205 -35 0 c-33 0 -35 2 -35 35 0 33 -2 35
-35 35 l-35 0 0 -70 0 -70 35 0 35 0 0 -100 0 -100 -35 0 c-33 0 -35 -2 -35
-35 l0 -35 -70 0 -70 0 0 36 c0 34 -1 35 -32 32 l-33 -3 -3 -67 -3 -68 36 0
35 0 0 -70 0 -70 -35 0 -35 0 0 70 0 70 -65 0 -65 0 0 -35 c0 -32 3 -35 29
-35 35 0 37 -4 33 -80 l-4 -60 -64 0 -64 0 0 -35 c0 -32 3 -35 29 -35 35 0 41
-13 41 -86 l0 -54 -35 0 -35 0 0 70 0 70 -70 0 -70 0 0 -35 c0 -33 2 -35 35
-35 l35 0 0 -70 0 -70 35 0 35 0 0 -65 0 -65 -34 0 c-32 0 -35 3 -38 32 -3 29
-6 33 -33 33 -27 0 -30 -4 -33 -32 l-3 -33 -70 0 -69 0 0 100 0 99 68 3 67 3
3 33 3 32 -140 0 -141 0 0 35 0 35 140 0 140 0 0 35 0 35 -140 0 -140 0 0 70
0 70 -70 0 -70 0 0 105 0 105 -35 0 -35 0 0 -105 0 -105 -65 0 -64 0 -3 -68
-3 -67 -32 -3 c-30 -3 -33 -6 -33 -38 0 -32 2 -34 36 -34 34 0 35 -1 32 -32
-3 -29 -7 -33 -35 -36 -32 -3 -33 -2 -33 32 0 34 -2 36 -35 36 -33 0 -35 2
-35 35 0 33 2 35 35 35 33 0 35 2 35 35 0 33 -2 35 -35 35 -33 0 -35 2 -35 35
0 33 2 35 36 35 34 0 35 1 32 33 l-3 32 -67 3 -68 3 0 -71 0 -70 -70 0 -70 0
0 -35 c0 -33 -2 -35 -35 -35 l-35 0 0 -70 0 -70 35 0 c33 0 35 2 35 35 0 33 2
35 35 35 33 0 35 -2 35 -35 0 -33 -2 -35 -35 -35 -33 0 -35 -2 -35 -35 0 -33
2 -35 35 -35 l35 0 0 -64 c0 -68 -8 -80 -49 -69 -19 5 -21 13 -21 69 l0 64
-35 0 c-33 0 -35 2 -35 35 0 33 -2 35 -35 35 -33 0 -35 -2 -35 -35 l0 -35
-205 0 -205 0 0 69 0 70 33 3 32 3 3 68 3 68 67 -3 67 -3 3 -33 c3 -28 7 -32
33 -32 27 0 29 3 29 35 0 33 2 35 35 35 33 0 35 2 35 35 l0 35 70 0 70 0 0 35
c0 33 2 35 35 35 33 0 35 2 35 35 0 33 2 35 35 35 33 0 35 2 35 35 0 33 2 35
35 35 33 0 35 -2 35 -35 0 -33 2 -35 35 -35 l35 0 0 103 0 103 -35 -4 -35 -4
0 141 0 141 -35 0 c-33 0 -35 2 -35 35 0 33 -2 35 -35 35 -33 0 -35 2 -35 35
0 33 -2 35 -35 35 l-35 0 0 -70 0 -70 35 0 35 0 0 -70 0 -70 35 0 35 0 0 -65
c0 -59 -2 -65 -23 -70 -13 -4 -27 -5 -33 -4 -5 1 -26 1 -46 0 -35 -1 -38 -3
-38 -31 0 -28 3 -30 35 -30 33 0 35 -2 35 -35 0 -33 -2 -35 -35 -35 -33 0 -35
2 -35 36 0 34 -1 35 -32 32 l-33 -3 -3 -67 -3 -67 -32 -3 c-28 -3 -32 -7 -35
-35 -3 -30 -6 -33 -38 -33 -32 0 -34 -2 -34 -35 l0 -35 -135 0 -135 0 0 35 c0
33 2 35 35 35 33 0 35 2 35 36 0 34 1 35 33 32 29 -3 32 -6 32 -36 l0 -32 67
0 68 0 0 70 0 70 -34 0 c-21 0 -34 5 -33 13 2 49 -3 57 -33 57 -28 0 -30 -3
-30 -35 l0 -35 -70 0 -70 0 0 134 0 135 33 3 32 3 3 67 3 67 32 3 c28 3 32 7
35 36 l3 32 -70 0 -71 0 0 35 c0 33 2 35 36 35 34 0 35 1 32 32 l-3 33 -67 3
-68 3 0 -106 0 -105 35 0 c33 0 35 -2 35 -35 0 -33 -2 -35 -35 -35 -33 0 -35
-2 -35 -35 l0 -35 -105 0 -105 0 0 -35 c0 -33 2 -35 35 -35 33 0 35 -2 35 -35
0 -19 -3 -34 -7 -34 -5 1 -20 1 -35 0 -23 -1 -27 -6 -30 -33 -3 -32 -8 -35
-58 -29 -5 1 -10 17 -10 37 0 29 -3 35 -16 30 -9 -3 -24 -6 -35 -6 -17 0 -19
-8 -19 -65 l0 -65 -70 0 -71 0 3 98 3 97 32 3 c29 3 32 1 35 -30 3 -29 6 -33
33 -33 27 0 30 4 33 33 3 29 6 32 37 32 31 0 34 -3 37 -32 3 -29 7 -33 35 -36
32 -3 33 -2 33 32 0 32 -3 35 -32 38 -29 3 -33 7 -36 35 l-3 32 -102 3 -102 3
-3 68 -3 67 35 0 c32 0 35 -3 38 -32 l3 -33 67 -3 68 -3 0 36 c0 33 2 35 35
35 33 0 35 2 35 35 0 33 -2 35 -35 35 -33 0 -35 2 -35 35 0 33 2 35 35 35 33
0 35 -2 35 -35 0 -33 2 -35 35 -35 33 0 35 2 35 35 0 33 2 35 35 35 33 0 35 2
35 35 0 33 2 35 35 35 33 0 35 2 35 35 l0 35 71 0 70 0 -3 33 -3 32 -67 3 -68
3 0 34 c0 33 2 35 35 35 l35 0 0 65 0 65 -70 0 -70 0 0 35 0 35 70 0 70 0 0
35 0 35 -70 0 -70 0 0 35 c0 33 2 35 35 35 33 0 35 2 35 35 0 33 2 35 35 35
33 0 35 2 35 35 0 33 2 35 35 35 l35 0 0 -105 0 -105 68 0 69 0 -1 -32 c-1
-30 2 -33 32 -36 29 -3 32 -6 32 -38 0 -32 -2 -34 -33 -34 l-32 0 -1 -65 -1
-65 34 0 c31 0 33 -2 33 -35 l0 -35 -64 0 -65 0 -3 33 c-3 28 -7 32 -35 35
-32 3 -33 2 -33 -32 0 -32 3 -35 33 -38 l32 -3 3 -137 3 -138 28 0 c38 0 43
15 40 120 l-2 85 31 3 c27 3 31 8 34 35 3 28 7 32 36 35 l32 3 0 135 0 134 35
0 35 0 0 70 0 70 -135 0 -135 0 0 140 0 140 30 0 c19 0 30 -5 31 -15 1 -8 3
-19 4 -25 1 -5 3 -14 4 -20 0 -5 15 -10 31 -10 l30 0 0 70 0 70 -32 0 c-31 0
-33 3 -35 35 l-2 35 70 0 69 0 0 100 0 100 -35 0 c-33 0 -35 -2 -35 -36 l0
-36 -65 4 -65 3 0 -32 c0 -30 3 -33 29 -33 24 0 29 -5 33 -30 5 -36 3 -40 -34
-40 -25 0 -28 -3 -28 -35 l0 -35 -140 0 -140 0 0 -70 0 -70 -35 0 -35 0 0 70
0 70 -35 0 c-33 0 -35 -2 -35 -35 0 -33 -2 -35 -35 -35 -33 0 -35 2 -35 35 0
33 2 35 35 35 33 0 35 2 35 35 0 33 -2 35 -35 35 -33 0 -35 2 -35 36 0 35 1
35 38 34 20 -1 52 -2 70 -1 l32 1 0 65 0 65 -35 0 c-33 0 -35 2 -35 35 0 33
-2 35 -35 35 -33 0 -35 2 -35 35 0 33 2 35 35 35 33 0 35 2 35 35 0 33 2 35
35 35 33 0 35 2 35 35 0 33 -2 35 -35 35 -33 0 -35 2 -35 35 0 33 -2 35 -35
35 -33 0 -35 2 -35 35 0 33 2 35 35 35 33 0 35 -2 35 -35 0 -33 2 -35 35 -35
33 0 35 2 35 35 0 33 2 35 35 35 l35 0 0 106 0 105 33 -3 c28 -3 32 -7 35 -35
3 -30 6 -33 38 -33 l34 0 0 100 0 100 35 0 35 0 0 -65 0 -65 63 0 c35 0 66 -2
69 -5 2 -3 3 -18 0 -35 -4 -25 -9 -30 -33 -30 l-29 0 0 -70 0 -70 65 0 65 0 0
-35 c0 -33 2 -35 35 -35 33 0 35 -2 35 -35 0 -33 -2 -35 -35 -35 -33 0 -35 2
-35 35 l0 35 -135 0 -135 0 0 -70 0 -70 -35 0 c-33 0 -35 -2 -35 -35 l0 -35
105 0 105 0 0 70 0 70 30 0 c17 0 30 -5 31 -12 0 -7 2 -31 4 -53 7 -58 -1 -75
-35 -75 -25 0 -29 -4 -32 -32 -3 -29 -7 -33 -35 -36 -28 -3 -32 -7 -35 -35 -3
-28 -7 -32 -35 -35 -30 -3 -33 -6 -33 -37 l0 -33 68 1 67 2 3 68 3 67 64 0 65
0 0 35 c0 33 2 35 35 35 33 0 35 2 35 35 0 33 2 35 35 35 l35 0 0 70 0 70 35
0 c33 0 35 2 35 35 0 33 -2 35 -36 35 -34 0 -35 1 -32 33 3 28 7 32 36 35 31
3 32 2 32 -32 0 -34 2 -36 35 -36 33 0 35 2 35 35 0 33 2 35 35 35 33 0 35 2
35 35 l0 35 -175 0 -175 0 0 35 c0 32 -2 35 -29 35 -24 0 -31 5 -36 30 -6 29
-35 47 -55 35 -6 -4 -10 31 -10 99 l0 106 -35 0 c-33 0 -35 2 -35 34 0 32 3
35 33 38 28 3 32 7 35 36 l3 32 -105 0 -106 0 0 -35 c0 -33 2 -35 35 -35 33 0
35 -2 35 -35 0 -33 -2 -35 -35 -35 -33 0 -35 2 -35 35 0 33 -2 35 -35 35 -33
0 -35 2 -35 35 0 33 -2 35 -35 35 -33 0 -35 2 -35 35 0 33 -2 35 -35 35 -33 0
-35 -2 -35 -35 0 -33 -2 -35 -35 -35 -33 0 -35 -2 -35 -35 0 -33 -2 -35 -35
-35 -33 0 -35 -2 -35 -36 0 -34 -1 -35 -32 -32 -29 3 -33 7 -36 35 -3 28 -7
32 -35 35 -28 3 -32 7 -34 36 l-1 32 104 0 104 0 0 35 c0 33 2 35 35 35 33 0
35 2 35 35 0 33 2 35 35 35 l35 0 0 70 0 70 35 0 c33 0 35 2 35 35 0 33 -2 35
-35 35 -33 0 -35 2 -35 35 0 33 2 35 35 35 32 0 35 2 35 30 0 28 3 30 35 30
33 0 35 2 35 35 l0 35 -70 0 -70 0 0 35 0 34 68 3 67 3 3 33 c3 29 6 32 38 32
32 0 34 -2 34 -35 l0 -35 99 0 99 0 5 27 c7 36 2 43 -34 43 -27 0 -29 3 -29
35 0 33 -2 35 -35 35 l-35 0 0 70 0 70 -35 0 c-33 0 -35 2 -35 35 0 33 -2 35
-35 35 l-35 0 0 -70 0 -70 -35 0 -35 0 0 105 0 105 35 0 c33 0 35 2 35 35 0
33 2 35 35 35 33 0 35 -2 35 -34 0 -32 3 -35 33 -38 l32 -3 3 -67 3 -68 34 0
35 0 0 71 0 70 33 -3 32 -3 1 -75 c2 -112 -3 -130 -37 -130 -26 0 -29 -3 -29
-35 0 -32 2 -35 30 -35 30 0 37 -13 31 -57 -1 -9 18 -13 69 -13 l70 0 0 35 c0
33 -2 35 -36 35 -34 0 -35 1 -32 33 3 28 7 32 36 35 31 3 32 2 32 -32 0 -34 2
-36 35 -36 33 0 35 2 35 35 l0 35 70 0 70 0 0 70 0 70 -35 0 c-33 0 -35 -2
-35 -35 0 -33 -2 -35 -35 -35 -33 0 -35 2 -35 36 0 34 -1 35 -32 32 -29 -3
-33 -7 -36 -35 -3 -30 -6 -33 -38 -33 -34 0 -35 1 -32 33 3 28 7 32 36 35 29
3 32 6 32 38 0 32 -2 34 -35 34 -33 0 -35 2 -35 34 0 32 -3 35 -32 38 -29 3
-33 6 -33 33 l0 30 68 3 67 3 0 -36 0 -35 105 0 105 0 0 100 0 100 34 0 c32 0
35 -3 38 -32z m2488 2 c0 -16 -3 -30 -7 -31 -5 0 -36 -3 -70 -5 l-63 -5 0 36
0 35 70 0 70 0 0 -30z m-147 -39 c4 -1 7 -14 7 -31 l0 -30 -70 0 -70 0 0 28
c0 16 2 31 4 33 4 3 95 3 129 0z m-410 -69 c3 -4 3 -19 0 -35 -4 -22 -11 -27
-34 -27 -26 0 -29 3 -29 35 0 32 2 35 29 35 17 0 32 -3 34 -8z m-1383 -237 l0
-105 -102 0 -103 0 2 97 c1 54 2 101 2 106 1 4 46 7 101 7 l100 0 0 -105z
m1384 -2 l1 -103 -102 0 -103 0 0 105 0 106 102 -3 101 -3 1 -102z m1591 -348
c0 -27 4 -30 33 -33 29 -3 32 -6 32 -38 0 -32 -2 -34 -34 -34 -31 0 -33 -2
-32 -30 0 -16 -3 -30 -7 -30 -61 0 -57 -5 -57 65 l0 65 -105 0 -105 0 0 35 0
36 138 -3 137 -3 0 -30z m-345 -134 c0 -20 -6 -31 -17 -33 -35 -8 -53 3 -53
33 0 26 3 29 35 29 32 0 35 -2 35 -29z m-4027 -801 c15 0 17 -12 17 -100 l0
-100 -105 0 -105 0 0 99 c0 114 -7 108 110 104 36 -1 73 -2 83 -3z m4165 -98
l3 -102 -106 0 -105 0 0 99 0 100 28 3 c15 2 61 3 102 3 l75 -1 3 -102z m142
3 c0 -32 3 -35 29 -35 22 0 30 -5 33 -23 7 -35 -1 -47 -32 -47 -25 0 -29 4
-32 33 -3 28 -7 32 -35 35 -30 3 -33 6 -33 38 0 32 2 34 35 34 33 0 35 -2 35
-35z m-4220 -1110 c0 -33 -2 -35 -35 -35 -33 0 -35 2 -35 35 0 33 2 35 35 35
33 0 35 -2 35 -35z m-140 -70 c0 -33 -2 -35 -35 -35 -33 0 -35 2 -35 35 0 33
2 35 35 35 33 0 35 -2 35 -35z m70 -205 c0 -93 -1 -100 -20 -101 -11 -1 -57
-1 -102 -2 l-83 -1 -3 102 -3 102 106 0 105 0 0 -100z m4148 -2 l-3 -103 -85
2 c-47 1 -93 2 -102 3 -16 0 -18 12 -18 100 l0 100 105 0 106 0 -3 -102z m142
-3 c0 -33 -2 -35 -35 -35 -33 0 -35 2 -35 35 0 33 2 35 35 35 33 0 35 -2 35
-35z m-4152 -123 c6 -38 -3 -49 -37 -44 -26 4 -31 9 -31 32 0 30 12 40 45 37
13 -1 21 -11 23 -25z m4150 -9 c3 -29 7 -33 31 -33 36 0 38 -4 33 -40 -4 -28
-8 -31 -36 -28 -29 3 -31 6 -28 36 3 31 2 32 -32 32 -34 0 -36 -2 -36 -34 0
-32 3 -35 33 -38 28 -3 32 -7 35 -35 3 -32 2 -33 -32 -33 -32 0 -35 3 -38 33
-3 28 -7 32 -35 35 -30 3 -33 6 -33 38 0 32 2 34 35 34 32 0 35 3 35 28 0 16
2 31 5 33 2 3 17 5 32 4 24 0 28 -4 31 -32z m-4568 -69 c0 -34 -1 -35 -32 -32
-29 3 -33 7 -36 36 -3 31 -2 32 32 32 35 0 36 -1 36 -36z m-132 -831 c3 -32 2
-33 -32 -33 -35 0 -36 1 -36 36 0 34 1 35 33 32 28 -3 32 -7 35 -35z m342 2
c0 -33 -2 -35 -35 -35 -32 0 -35 3 -35 28 0 36 6 42 42 42 25 0 28 -3 28 -35z
m-140 -70 c0 -33 -2 -35 -35 -35 -32 0 -35 3 -35 28 0 36 6 42 42 42 25 0 28
-3 28 -35z m4220 0 l0 -35 140 0 140 0 0 -35 0 -35 -175 0 -175 0 0 35 0 35
-70 0 -70 0 0 35 0 35 105 0 105 0 0 -35z m-3870 -140 c0 -33 2 -35 35 -35 33
0 35 -2 35 -35 0 -33 -2 -35 -35 -35 -33 0 -35 2 -35 35 0 33 -2 35 -35 35
-33 0 -35 2 -35 35 0 33 2 35 35 35 33 0 35 -2 35 -35z m2140 0 c0 -33 2 -35
35 -35 33 0 35 -2 35 -35 0 -33 2 -35 35 -35 33 0 35 2 35 35 0 33 2 35 35 35
l35 0 0 -105 0 -105 -105 0 -105 0 0 -35 c0 -33 -2 -35 -35 -35 l-35 0 0 70 0
69 -67 3 -68 3 -3 33 -3 32 70 0 71 0 0 -35 0 -35 70 0 70 0 0 35 c0 33 -2 35
-35 35 -33 0 -35 2 -35 35 0 33 -2 35 -35 35 -33 0 -35 2 -35 35 0 33 2 35 35
35 33 0 35 -2 35 -35z m2071 23 c1 -7 2 -17 4 -23 1 -5 3 -16 3 -22 1 -7 15
-13 32 -13 l30 0 0 -71 0 -70 -32 3 c-29 3 -33 7 -36 36 l-3 32 -65 0 -64 0 0
35 c0 33 2 35 36 35 31 0 35 3 34 23 -4 41 0 47 30 47 17 0 31 -6 31 -12z
m-2971 -163 l0 -106 -102 3 -102 3 -1 102 0 103 103 0 102 0 0 -105z m1383 0
l-1 -100 -101 -3 -101 -3 0 106 0 106 102 -3 103 -3 -2 -100z m1385 3 l-3
-103 -102 -3 -103 -3 0 106 0 105 105 0 106 0 -3 -102z m142 -143 c0 -32 2
-35 30 -35 28 0 30 -3 30 -35 0 -23 5 -35 13 -34 44 6 57 -1 57 -31 0 -28 -3
-30 -34 -30 -32 0 -35 3 -38 33 -3 28 -6 32 -30 29 -26 -3 -28 -1 -28 32 0 34
-2 36 -35 36 -33 0 -35 2 -35 35 0 33 2 35 35 35 33 0 35 -2 35 -35z m130 0
c0 -32 -3 -35 -29 -35 -29 0 -41 14 -41 51 0 15 7 19 35 19 33 0 35 -2 35 -35z
m-2002 -67 c-3 -29 -7 -33 -35 -36 -29 -3 -33 -7 -33 -33 0 -27 -3 -29 -35
-29 -32 0 -35 2 -35 30 0 28 3 30 35 30 33 0 35 2 35 35 0 33 2 35 36 35 34 0
35 -1 32 -32z m-1726 -72 c3 -29 6 -31 36 -28 31 3 32 2 32 -32 0 -34 -2 -36
-35 -36 -33 0 -35 2 -35 35 0 33 -2 35 -35 35 -32 0 -35 3 -35 29 0 32 12 40
47 33 16 -3 23 -12 25 -36z m-484 -63 c3 -32 2 -33 -32 -33 -34 0 -36 2 -36
33 0 31 2 33 33 33 29 -1 32 -4 35 -33z m2212 0 c0 -31 -2 -33 -35 -33 -32 0
-35 3 -35 28 0 36 5 41 41 40 26 -1 29 -4 29 -35z m954 31 c10 -4 16 -18 16
-35 0 -26 -3 -29 -35 -29 -32 0 -35 3 -35 28 0 41 15 51 54 36z m356 -29 c0
-33 -2 -35 -35 -35 -32 0 -35 3 -35 28 0 36 6 42 42 42 25 0 28 -3 28 -35z"/>
<path d="M3610 4765 c0 -33 2 -35 35 -35 33 0 35 -2 35 -35 0 -33 2 -35 35
-35 l35 0 0 70 0 70 -70 0 -70 0 0 -35z"/>
<path d="M1470 4695 c0 -33 2 -35 35 -35 33 0 35 2 35 35 0 33 -2 35 -35 35
-33 0 -35 -2 -35 -35z"/>
<path d="M4237 4723 c-4 -3 -7 -19 -7 -35 0 -25 3 -28 35 -28 33 0 35 2 35 35
0 32 -3 35 -28 35 -16 0 -32 -3 -35 -7z"/>
<path d="M1400 4555 l0 -35 -70 0 -70 0 0 -35 0 -35 70 0 70 0 0 35 c0 33 2
35 35 35 l35 0 0 -70 0 -70 -175 0 -175 0 0 -35 c0 -33 -2 -35 -33 -35 -30 0
-33 -2 -32 -32 0 -30 3 -33 33 -36 31 -3 32 -2 32 32 0 34 2 36 35 36 32 0 35
-3 35 -29 0 -29 14 -41 51 -41 14 0 19 -7 19 -30 0 -26 4 -30 28 -31 15 -1 30
-1 35 0 4 0 7 -15 7 -34 0 -33 -2 -35 -35 -35 -32 0 -35 2 -35 30 0 22 -5 30
-17 31 -118 4 -183 2 -184 -6 -1 -5 -2 -35 -3 -65 -1 -54 -1 -55 -33 -58 -29
-3 -32 -1 -35 30 -3 29 -7 33 -35 36 -29 3 -33 7 -33 33 0 22 -5 29 -20 30
-11 1 -26 2 -32 3 -7 0 -14 16 -16 34 -3 29 -6 32 -38 32 -31 0 -34 -2 -34
-30 0 -28 3 -30 35 -30 l35 0 0 -70 0 -70 70 0 70 0 0 -34 c0 -32 3 -35 33
-38 l32 -3 0 -67 0 -68 32 0 c31 0 33 -2 33 -35 0 -33 2 -35 35 -35 33 0 35
-2 35 -35 l0 -35 -64 0 c-60 0 -64 -2 -70 -25 -10 -39 0 -45 70 -45 l64 0 0
-35 0 -35 -69 0 -69 0 1 -32 2 -33 68 -3 67 -3 0 36 c0 33 2 35 35 35 l35 0 0
105 0 105 35 0 c33 0 35 -2 35 -35 0 -33 2 -35 35 -35 33 0 35 2 35 35 0 33
-2 35 -35 35 -33 0 -35 2 -35 35 l0 35 -106 0 -105 0 3 33 3 32 68 3 67 3 0
34 c0 33 2 35 35 35 33 0 35 -2 35 -35 0 -33 2 -35 35 -35 33 0 35 -2 35 -35
l0 -35 70 0 70 0 0 -70 0 -70 -35 0 c-33 0 -35 -2 -35 -35 l0 -35 -70 0 -70 0
0 -35 c0 -33 2 -35 35 -35 l35 0 0 -68 0 -68 33 0 c29 1 32 -2 35 -31 3 -28 7
-32 35 -35 28 -3 32 -7 35 -35 3 -30 6 -33 38 -33 l34 0 0 -70 0 -69 68 -3 67
-3 3 -32 3 -33 -105 0 -106 0 0 35 0 35 -70 0 -70 0 0 -70 0 -70 35 0 c33 0
35 -2 35 -35 0 -33 -2 -35 -35 -35 -33 0 -35 -2 -35 -35 0 -33 -2 -35 -35 -35
-33 0 -35 -2 -35 -35 0 -33 2 -35 35 -35 l34 0 3 -67 3 -68 30 0 c27 0 30 4
33 33 3 29 6 32 38 32 l34 0 0 -135 0 -135 35 0 c33 0 35 -2 35 -35 0 -33 -2
-35 -35 -35 l-35 0 0 -70 0 -70 -35 0 c-33 0 -35 -2 -35 -35 0 -33 -2 -35 -35
-35 -33 0 -35 2 -35 35 0 33 -2 35 -35 35 l-35 0 0 70 0 70 70 0 70 0 0 35 0
35 -70 0 -70 0 0 35 c0 33 2 35 36 35 34 0 35 1 32 33 l-3 32 -65 0 -65 0 -3
-32 c-3 -30 -6 -33 -38 -33 -32 0 -34 -2 -34 -35 l0 -35 70 0 70 0 0 -35 0
-34 -67 -3 -68 -3 -3 -32 c-3 -32 -2 -33 32 -33 34 0 36 -2 36 -35 l0 -35 -70
0 -70 0 0 -35 0 -35 70 0 70 0 0 -35 0 -35 70 0 70 0 0 -70 0 -70 35 0 c33 0
35 2 35 35 0 33 2 35 35 35 33 0 35 -2 35 -36 0 -34 1 -35 33 -32 28 3 32 7
35 36 3 31 2 32 -32 32 -34 0 -36 2 -36 35 l0 35 70 0 70 0 0 35 0 36 68 -3
67 -3 0 -30 c0 -26 -4 -30 -32 -33 l-32 -3 -3 -136 -3 -136 -68 -1 -67 -1 0
33 c0 30 -2 32 -35 32 l-35 0 0 -65 0 -65 -35 0 c-33 0 -35 -2 -35 -35 l0 -34
-102 -3 -103 -3 -3 -67 -3 -67 -32 -3 -32 -3 -3 -67 -3 -68 -34 0 -35 0 0 -70
0 -70 -34 0 -34 0 2 -70 1 -70 -67 0 -68 0 0 -34 0 -33 58 -1 c66 -2 78 4 77
38 0 21 5 26 33 28 29 3 32 6 32 38 0 32 2 34 35 34 l35 0 0 -65 c0 -60 2 -65
24 -71 39 -9 46 2 46 72 l0 64 -35 0 -35 0 0 70 0 70 35 0 35 0 0 105 0 105
70 0 70 0 0 -35 c0 -33 2 -35 35 -35 33 0 35 2 35 35 0 33 -2 35 -35 35 -33 0
-35 2 -35 35 l0 35 70 0 70 0 0 70 0 70 35 0 35 0 0 -105 0 -105 35 0 c33 0
35 -2 35 -35 l0 -35 -70 0 -70 0 0 -35 0 -35 70 0 70 0 0 -70 0 -70 65 0 c45
0 65 -4 66 -12 1 -7 2 -22 3 -33 1 -15 9 -21 34 -23 23 -2 32 -8 32 -22 0 -36
12 -50 41 -50 l29 0 0 -65 c0 -67 1 -69 48 -65 21 1 22 -2 22 -69 l0 -71 34 0
c32 0 35 3 38 33 3 28 7 32 36 35 l32 3 0 -70 0 -71 35 0 c33 0 35 2 35 35 0
33 2 35 35 35 33 0 35 -2 35 -35 0 -33 2 -35 35 -35 33 0 35 -2 35 -35 0 -33
2 -35 35 -35 33 0 35 -2 35 -35 0 -33 -2 -35 -35 -35 -33 0 -35 -2 -35 -35 0
-33 2 -35 35 -35 33 0 35 2 35 35 l0 34 68 3 67 3 0 30 c0 27 -4 30 -32 33
l-33 3 0 105 0 105 33 -3 c28 -3 32 -7 35 -35 3 -29 7 -33 32 -33 25 0 29 4
32 32 3 29 7 33 36 36 29 3 32 6 32 38 l0 34 70 0 70 0 0 -35 c0 -33 2 -35 35
-35 33 0 35 2 35 36 0 31 -3 35 -22 34 -42 -4 -48 0 -48 30 0 17 6 30 13 31 6
1 21 2 32 3 15 1 21 9 23 34 3 31 2 32 -32 32 -34 0 -36 -2 -36 -34 0 -32 -2
-34 -32 -33 l-33 2 -3 68 -3 67 36 0 35 0 0 70 0 70 70 0 70 0 0 -35 c0 -33 2
-35 35 -35 l35 0 0 70 0 70 35 0 35 0 0 -176 0 -175 23 1 c41 4 47 0 47 -30 0
-30 -6 -34 -47 -30 -22 1 -23 -2 -23 -69 l0 -71 35 0 c33 0 35 -2 35 -35 l0
-35 71 0 70 0 -3 33 -3 32 -67 3 -68 3 0 34 c0 33 2 35 35 35 33 0 35 2 35 36
0 34 1 35 33 32 28 -3 32 -7 35 -35 3 -30 6 -33 36 -33 l32 0 -1 55 c-2 64 2
72 35 76 20 3 26 11 28 37 3 29 6 32 38 32 32 0 34 2 34 35 l0 35 105 0 105 0
0 35 0 35 -70 0 -70 0 0 35 c0 33 2 35 35 35 33 0 35 2 35 35 0 33 -2 35 -35
35 -33 0 -35 2 -35 35 l0 35 70 0 70 0 0 -35 c0 -33 2 -35 35 -35 l35 0 0 -70
0 -70 35 0 35 0 0 70 0 70 35 0 c33 0 35 2 35 35 0 33 2 35 35 35 l36 0 -3
-103 -3 -102 -32 -3 c-30 -3 -33 -6 -33 -38 l0 -34 -70 0 -71 0 3 -68 3 -67
30 0 c26 0 30 4 33 32 3 28 7 32 35 35 28 3 32 7 35 36 l3 32 100 0 c91 0 99
2 99 19 0 45 9 51 75 51 l64 0 3 -32 c3 -29 7 -33 36 -36 31 -3 32 -2 32 32 0
34 -2 36 -35 36 -33 0 -35 2 -35 35 l0 35 140 0 140 0 0 35 c0 33 2 35 35 35
33 0 35 2 35 35 0 33 2 35 35 35 33 0 35 2 35 35 0 33 -2 35 -35 35 -33 0 -35
2 -35 35 0 33 -2 35 -35 35 -33 0 -35 -2 -35 -35 l0 -35 -70 0 -70 0 0 -35 c0
-33 -2 -35 -35 -35 -33 0 -35 2 -35 35 0 33 -2 35 -35 35 -33 0 -35 2 -35 36
0 34 -1 35 -32 32 -29 -3 -33 -7 -36 -35 -3 -32 -2 -33 32 -33 34 0 36 -2 36
-35 l0 -35 -71 0 c-42 0 -68 4 -64 10 3 5 3 21 -1 35 -5 19 -12 25 -35 25 -26
0 -29 3 -29 34 0 32 3 35 33 38 28 3 32 6 32 33 0 26 4 30 32 33 28 3 32 7 35
35 3 28 7 32 36 35 28 3 32 7 32 33 0 20 -5 29 -17 30 -52 4 -49 0 -52 49 -1
16 -8 20 -34 20 -34 0 -34 0 -32 -47 3 -81 1 -83 -71 -83 l-64 0 0 35 c0 33 2
35 35 35 32 0 35 2 35 30 0 28 -3 30 -35 30 -33 0 -35 2 -35 35 l0 35 99 0
100 0 3 -32 3 -33 103 -3 102 -3 0 71 0 70 -35 0 c-33 0 -35 2 -35 35 0 33 -2
35 -35 35 -33 0 -35 -2 -35 -35 l0 -35 -135 0 -135 0 0 35 0 35 100 0 100 0 0
35 c0 33 2 35 35 35 l35 0 0 70 0 70 35 0 c33 0 35 -2 35 -35 0 -33 2 -35 35
-35 33 0 35 -2 35 -35 0 -33 2 -35 35 -35 l35 0 0 70 0 70 35 0 c33 0 35 2 35
35 0 33 -2 35 -35 35 -33 0 -35 -2 -35 -35 l0 -35 -70 0 -70 0 0 35 c0 33 2
35 35 35 33 0 35 2 35 35 0 33 2 35 35 35 l35 0 0 70 0 71 -67 -3 -68 -3 -3
-32 c-3 -32 -2 -33 32 -33 34 0 36 -2 36 -35 0 -33 -2 -35 -35 -35 -33 0 -35
-2 -35 -35 0 -33 -2 -35 -35 -35 l-35 0 0 105 0 106 -135 -2 -135 -1 0 -34 c0
-32 -2 -34 -34 -34 -32 0 -35 3 -38 33 l-3 32 -100 0 -100 0 -3 -32 c-3 -32
-2 -33 32 -33 34 0 36 -2 36 -35 0 -33 2 -35 35 -35 33 0 35 -2 35 -35 l0 -35
-105 0 -105 0 0 70 0 70 -35 0 c-33 0 -35 2 -35 36 l0 35 53 -2 c85 -3 87 -2
87 30 0 26 -4 30 -32 33 l-33 3 -3 68 -3 67 -34 0 c-33 0 -35 2 -35 34 0 32
-3 35 -32 38 -29 3 -33 7 -36 36 l-3 32 70 0 71 0 0 -35 0 -35 105 0 105 0 0
-35 c0 -33 -2 -35 -35 -35 l-35 0 0 -64 c0 -72 0 -73 80 -72 55 1 55 1 58 34
3 29 6 32 37 32 31 0 34 -3 37 -32 3 -29 6 -33 33 -33 26 0 30 4 33 32 3 28 7
32 35 35 28 3 32 7 33 36 1 30 -1 32 -32 32 -30 0 -33 -3 -36 -32 -3 -29 -7
-33 -35 -36 -32 -3 -33 -2 -33 32 0 34 -2 36 -35 36 -33 0 -35 2 -35 34 0 32
3 35 33 38 28 3 32 7 35 36 l3 32 65 0 c44 0 64 4 65 13 1 6 2 37 3 67 l1 55
68 3 67 3 0 34 c0 33 2 35 35 35 33 0 35 -2 35 -35 0 -33 2 -35 35 -35 l35 0
0 -70 0 -71 -67 3 -68 3 -3 33 c-3 31 -6 33 -35 30 l-32 -3 0 -65 0 -65 32 -3
32 -3 3 -67 3 -67 33 -3 c29 -3 32 -6 32 -37 l0 -34 68 2 67 2 3 103 3 102
-36 0 c-33 0 -35 2 -35 35 0 33 2 35 35 35 33 0 35 2 35 35 0 33 2 35 35 35
33 0 35 2 35 35 l0 35 -70 0 -70 0 0 35 c0 33 -2 35 -35 35 -33 0 -35 2 -35
36 0 34 -1 35 -32 32 -29 -3 -33 -7 -36 -35 l-3 -33 -134 0 -134 0 -3 33 c-3
28 -7 32 -35 35 -30 3 -33 6 -33 38 0 32 -2 34 -35 34 -33 0 -35 2 -35 35 0
33 -2 35 -35 35 l-35 0 0 -70 0 -70 -70 0 -71 0 3 68 3 67 33 3 c28 3 32 7 32
33 0 32 3 33 90 33 43 1 45 2 48 34 l3 32 -70 0 -71 0 0 -30 c0 -34 4 -33
-122 -34 l-88 -1 0 33 0 32 -170 0 -170 0 0 105 0 105 35 0 35 0 0 -70 0 -70
169 0 170 0 3 -32 c3 -29 7 -33 36 -36 l32 -3 0 70 0 71 35 0 c33 0 35 2 35
35 l0 35 70 0 70 0 0 -35 c0 -33 -2 -35 -35 -35 -33 0 -35 -2 -35 -35 0 -33 2
-35 35 -35 33 0 35 2 35 35 0 33 2 35 35 35 33 0 35 2 35 35 0 33 2 35 35 35
33 0 35 -2 35 -35 l0 -35 100 0 100 0 0 -35 0 -35 -135 0 -135 0 0 -35 0 -35
170 0 170 0 0 35 c0 33 2 35 35 35 33 0 35 2 35 35 l0 35 140 0 140 0 0 35 0
35 -140 0 -140 0 0 35 c0 33 -2 35 -35 35 -33 0 -35 -2 -35 -35 l0 -35 -135 0
-135 0 0 35 0 34 68 3 67 3 1 55 c0 73 -3 80 -37 80 -29 0 -33 -6 -29 -47 1
-20 -3 -23 -34 -23 -32 0 -35 3 -38 33 -3 28 -7 32 -35 35 -30 3 -33 6 -33 38
0 32 -2 34 -35 34 -33 0 -35 -2 -35 -35 0 -33 2 -35 35 -35 l35 0 0 -105 0
-105 -35 0 c-33 0 -35 2 -35 35 l0 35 -70 0 -70 0 0 -35 c0 -33 -2 -35 -35
-35 l-35 0 0 70 0 70 70 0 70 0 0 35 0 35 -105 0 -105 0 0 35 0 35 70 0 70 0
0 35 c0 33 -2 35 -36 35 -34 0 -35 1 -32 33 3 28 7 32 36 35 28 3 32 7 32 33
0 21 -5 29 -17 30 -10 0 -42 2 -70 4 l-53 3 0 -34 c0 -32 -2 -34 -36 -34 -34
0 -35 1 -32 33 3 28 7 32 33 32 26 1 30 4 33 33 l3 32 140 0 140 0 -3 -32 c-3
-29 -7 -33 -33 -33 l-30 -1 -3 -67 -3 -67 35 0 35 0 3 68 c3 59 5 67 23 68 11
1 26 2 33 3 6 1 12 14 12 31 0 28 -3 30 -35 30 -33 0 -35 2 -35 35 l0 35 -70
0 -70 0 0 70 0 70 -70 0 -70 0 0 35 c0 33 -2 35 -36 35 -34 0 -35 -1 -32 -32
3 -29 7 -33 36 -36 29 -3 32 -6 32 -38 0 -32 2 -34 35 -34 33 0 35 -2 35 -35
0 -33 -2 -35 -35 -35 -33 0 -35 -2 -35 -35 0 -33 -2 -35 -35 -35 -33 0 -35 2
-35 34 0 32 -3 35 -32 38 l-33 3 -3 68 -3 68 -32 -3 -32 -3 1 -67 1 -68 -34 0
-33 0 0 -65 c0 -71 -5 -67 75 -67 19 0 40 1 45 1 6 1 10 15 10 31 0 28 3 30
35 30 33 0 35 -2 35 -35 0 -23 -5 -35 -12 -34 -45 6 -58 -1 -58 -31 l0 -30
-99 0 -100 0 -3 33 c-3 29 -6 32 -35 33 -31 0 -33 -2 -33 -33 0 -31 2 -33 35
-33 l35 0 0 -70 0 -70 35 0 c33 0 35 2 35 35 l0 35 65 0 65 0 0 -34 c0 -32 -3
-35 -32 -38 l-33 -3 0 -100 0 -100 33 -3 32 -3 0 -70 0 -69 -65 0 -65 0 0 70
0 70 -35 0 c-33 0 -35 2 -35 35 0 33 2 35 36 35 34 0 35 1 32 33 l-3 32 -67 3
-67 3 -3 32 c-3 28 -7 32 -35 35 -30 3 -33 6 -33 38 0 32 -2 34 -35 34 -33 0
-35 -2 -35 -35 0 -33 -2 -35 -35 -35 l-35 0 0 70 0 70 70 0 70 0 0 65 0 65
-35 0 c-33 0 -35 2 -35 35 l0 35 -105 0 -105 0 0 -35 c0 -33 -2 -35 -35 -35
-33 0 -35 2 -35 35 0 33 -2 35 -35 35 -33 0 -35 -2 -35 -36 0 -34 -1 -35 -32
-32 -29 3 -33 7 -36 36 -3 28 -7 32 -32 32 -31 0 -39 12 -32 47 4 21 10 23 68
23 l64 0 0 34 c0 32 -3 35 -32 38 -29 3 -33 7 -36 36 -3 28 -7 32 -33 32 -16
0 -29 6 -30 13 -1 6 -2 21 -3 32 -1 18 -9 20 -68 23 l-68 3 0 -36 0 -35 -70 0
-70 0 0 -106 0 -105 33 3 32 3 3 68 3 67 34 0 c33 0 35 -2 35 -35 0 -33 2 -35
35 -35 33 0 35 -2 35 -35 0 -33 2 -35 35 -35 l35 0 0 -135 0 -135 65 0 65 0 0
100 0 100 35 0 c32 0 35 -2 35 -29 0 -32 12 -40 47 -33 18 3 23 11 23 33 l0
29 105 0 105 0 0 -30 c0 -23 -5 -30 -19 -30 -36 0 -51 -12 -51 -41 l0 -28
-102 -3 -103 -3 -3 -137 -3 -138 -34 0 c-33 0 -35 2 -35 36 0 34 -1 35 -32 32
l-33 -3 -3 -67 c-3 -68 -3 -68 -32 -68 -29 0 -29 0 -32 68 l-3 67 -32 3 c-28
3 -32 7 -35 35 -3 28 -7 32 -35 35 -28 3 -32 7 -35 35 -3 28 -7 32 -35 35 -32
3 -33 2 -33 -32 0 -34 -2 -36 -35 -36 -33 0 -35 -2 -35 -35 0 -33 2 -35 35
-35 33 0 35 2 35 35 0 33 2 35 35 35 l35 0 0 -70 0 -70 -35 0 c-33 0 -35 -2
-35 -35 0 -33 -2 -35 -35 -35 -33 0 -35 -2 -35 -35 l0 -35 -70 0 -70 0 0 35
c0 33 2 35 35 35 33 0 35 2 35 35 0 33 -2 35 -35 35 -33 0 -35 2 -35 35 0 33
2 35 35 35 l35 0 0 70 0 70 35 0 c33 0 35 2 35 35 l0 35 -70 0 -70 0 0 -35 c0
-33 -2 -35 -35 -35 -33 0 -35 -2 -35 -35 0 -33 2 -35 35 -35 33 0 35 -2 35
-35 0 -33 -2 -35 -35 -35 -33 0 -35 -2 -35 -35 l0 -35 -70 0 -70 0 0 -35 c0
-33 2 -35 35 -35 l35 0 0 -70 0 -70 -35 0 c-33 0 -35 2 -35 35 0 32 -2 35 -29
35 -35 0 -45 -12 -37 -46 5 -19 13 -24 36 -24 28 0 30 -3 30 -35 l0 -35 -100
0 -100 0 0 -135 0 -135 -34 0 c-32 0 -35 3 -38 33 l-3 32 -67 3 -68 3 0 32 0
33 48 -3 c74 -5 92 2 92 37 l0 30 -105 0 -105 0 0 70 0 70 105 0 105 0 0 -36
c0 -34 1 -35 33 -32 l32 3 3 103 3 102 29 0 c30 0 31 -2 34 -50 1 -10 14 -16
40 -18 32 -3 38 -1 32 13 -3 9 -6 41 -6 71 0 53 0 54 -29 54 -26 0 -30 4 -33
33 -3 28 -7 32 -35 35 -30 3 -33 6 -33 38 0 32 2 34 34 34 l34 0 -3 63 c-1 34
-3 65 -4 70 0 4 -14 7 -31 7 -28 0 -30 -3 -30 -35 0 -33 -2 -35 -35 -35 l-35
0 0 -70 0 -70 -34 0 c-32 0 -35 3 -38 33 -3 28 -7 32 -35 35 -32 3 -33 2 -33
-32 0 -34 -2 -36 -35 -36 l-35 0 0 70 0 70 -35 0 -36 0 3 68 3 67 33 3 32 3 0
100 0 99 35 0 35 0 0 70 0 70 -35 0 c-33 0 -35 2 -35 35 0 33 -2 35 -35 35
-33 0 -35 -2 -35 -35z m1108 -67 c-3 -29 -7 -33 -35 -36 -32 -3 -33 -2 -33 32
0 35 1 36 36 36 34 0 35 -1 32 -32z m-1108 -213 l0 -35 -70 0 -70 0 0 35 0 35
70 0 70 0 0 -35z m2070 -1 c0 -34 -1 -35 -32 -32 -27 2 -33 7 -34 28 -1 36 4
40 37 40 27 0 29 -3 29 -36z m-2210 -199 c0 -33 -2 -35 -35 -35 -33 0 -35 -2
-35 -35 0 -33 -2 -35 -36 -35 -34 0 -35 1 -32 33 3 28 7 32 36 35 28 3 32 7
32 31 0 35 6 41 42 41 25 0 28 -3 28 -35z m2280 0 c0 -33 2 -35 35 -35 33 0
35 -2 35 -35 0 -33 -2 -35 -35 -35 -33 0 -35 -2 -35 -35 0 -33 2 -35 35 -35
33 0 35 -2 35 -35 0 -33 -2 -35 -35 -35 -33 0 -35 -2 -35 -35 0 -33 2 -35 35
-35 33 0 35 -2 35 -35 0 -33 2 -35 35 -35 33 0 35 -2 35 -35 l0 -36 -67 3 -68
3 -3 68 -3 67 -34 0 -35 0 0 105 0 105 35 0 c33 0 35 2 35 35 0 33 -2 35 -35
35 -32 0 -35 3 -35 28 0 16 3 32 7 35 3 4 19 7 35 7 25 0 28 -3 28 -35z m-550
-140 c0 -33 -2 -35 -35 -35 -33 0 -35 -2 -35 -35 0 -33 -2 -35 -35 -35 -33 0
-35 2 -35 35 0 33 2 35 35 35 33 0 35 2 35 35 0 33 2 35 35 35 33 0 35 -2 35
-35z m210 -70 c0 -33 -2 -35 -35 -35 -33 0 -35 2 -35 35 0 33 2 35 35 35 33 0
35 -2 35 -35z m-140 -70 c0 -33 2 -35 35 -35 33 0 35 -2 35 -35 0 -33 -2 -35
-35 -35 -33 0 -35 -2 -35 -35 0 -33 2 -35 35 -35 l36 0 -3 -102 c-2 -83 -6
-103 -18 -104 -8 -1 -23 -2 -32 -3 -13 -1 -18 -10 -18 -30 0 -26 4 -30 33 -33
l32 -3 3 -137 3 -138 -36 0 -35 0 0 -70 0 -70 35 0 c33 0 35 -2 35 -35 0 -33
2 -35 35 -35 l35 0 0 70 0 70 71 0 70 0 -3 -32 c-3 -29 -7 -33 -35 -36 -28 -3
-32 -7 -35 -35 -3 -28 -7 -32 -35 -35 -30 -3 -33 -6 -33 -38 0 -32 2 -34 35
-34 33 0 35 -2 35 -36 0 -34 1 -35 33 -32 28 3 32 7 35 36 3 28 7 32 33 32 29
0 33 -6 29 -47 -1 -20 3 -23 34 -23 34 0 36 2 36 34 0 32 -3 35 -32 38 -29 3
-33 6 -33 33 l0 30 67 3 67 3 3 -33 c3 -29 7 -33 36 -36 29 -3 32 -6 32 -38 0
-32 -2 -34 -35 -34 -33 0 -35 -2 -35 -35 0 -33 2 -35 35 -35 32 0 35 -2 35
-30 0 -28 -3 -30 -35 -30 -33 0 -35 -2 -35 -35 0 -33 2 -35 35 -35 l35 0 0
-105 0 -105 140 0 140 0 0 35 c0 33 2 35 35 35 33 0 35 2 35 35 0 33 -2 35
-35 35 -33 0 -35 2 -35 35 0 33 2 35 35 35 33 0 35 -2 35 -34 0 -32 3 -35 33
-38 28 -3 32 -7 35 -35 3 -30 6 -33 38 -33 l34 0 0 70 0 70 65 0 65 0 0 -70 0
-70 35 0 c33 0 35 -2 35 -35 l0 -35 -135 0 -135 0 0 -35 0 -35 99 0 c95 0 99
-1 103 -23 8 -44 2 -47 -103 -47 l-99 0 0 -35 0 -35 -210 0 -210 0 0 -170 0
-170 -35 0 c-33 0 -35 -2 -35 -35 0 -33 2 -35 34 -35 32 0 35 3 38 33 l3 32
138 3 137 3 0 34 0 35 -67 -1 c-38 0 -85 0 -105 0 l-38 1 0 65 0 65 70 0 70 0
0 35 c0 33 2 35 35 35 33 0 35 -2 35 -35 0 -33 2 -35 35 -35 33 0 35 2 35 35
0 33 2 35 35 35 33 0 35 -2 35 -35 0 -33 -2 -35 -34 -35 -32 0 -35 -3 -38 -32
-3 -29 -7 -33 -35 -36 -29 -3 -33 -7 -33 -33 0 -16 6 -30 13 -31 6 0 17 -2 22
-3 6 -2 16 -3 23 -4 8 -1 12 -21 12 -65 l0 -65 33 -3 32 -3 3 -67 3 -68 -36 0
c-33 0 -35 -2 -35 -35 0 -33 -2 -35 -35 -35 -33 0 -35 -2 -35 -35 0 -33 -2
-35 -35 -35 -33 0 -35 2 -35 35 0 33 2 35 35 35 l35 0 0 70 0 70 -35 0 c-33 0
-35 -2 -35 -35 l0 -35 -70 0 -70 0 0 70 0 70 -35 0 -35 0 0 -105 0 -105 -35 0
c-33 0 -35 -2 -35 -35 0 -33 2 -35 35 -35 33 0 35 -2 35 -35 0 -33 -2 -35 -35
-35 l-35 0 0 -70 0 -70 -35 0 c-33 0 -35 -2 -35 -35 0 -32 -3 -35 -29 -35 -31
0 -45 -20 -36 -51 5 -16 1 -19 -29 -19 -34 0 -36 2 -36 35 l0 35 -70 0 -70 0
0 70 0 70 35 0 c33 0 35 2 35 35 0 33 -2 35 -35 35 -33 0 -35 2 -35 35 0 33 2
35 35 35 33 0 35 -2 35 -35 0 -33 2 -35 36 -35 34 0 35 -1 32 -32 -3 -29 -7
-33 -35 -36 -30 -3 -33 -6 -33 -38 l0 -34 100 0 100 0 0 69 0 70 -32 3 c-31 3
-33 5 -33 43 -2 92 -3 95 -34 95 -26 0 -30 4 -33 33 -3 28 -7 32 -35 35 -30 3
-33 6 -33 38 0 32 -2 34 -35 34 -33 0 -35 -2 -35 -35 0 -33 -2 -35 -35 -35
-33 0 -35 -2 -35 -35 0 -33 -2 -35 -35 -35 -33 0 -35 -2 -35 -35 l0 -35 -70 0
-70 0 0 35 c0 33 -2 35 -35 35 -33 0 -35 -2 -35 -35 0 -33 -2 -35 -35 -35 -33
0 -35 2 -35 35 0 33 2 35 35 35 33 0 35 2 35 35 0 33 -2 35 -35 35 -33 0 -35
2 -35 35 l0 36 -67 -3 -67 -3 -3 -32 c-4 -32 -3 -33 31 -33 l36 0 0 -105 0
-105 -36 0 c-28 0 -35 -4 -33 -17 1 -10 1 -42 0 -70 -1 -52 -2 -53 -31 -53
l-30 0 0 -64 c0 -72 -4 -76 -92 -76 -47 0 -48 -1 -48 -30 0 -28 -3 -30 -35
-30 -33 0 -35 -2 -35 -34 0 -32 3 -35 33 -38 l32 -3 3 -68 3 -67 -36 0 -35 0
0 70 0 70 -34 0 c-32 0 -35 3 -38 33 -3 28 -6 32 -33 32 -27 0 -30 -4 -33 -32
-3 -30 -6 -33 -37 -33 -31 0 -34 3 -37 33 -3 28 -7 32 -33 32 -27 1 -31 5 -35
35 -4 31 -8 35 -35 35 -27 0 -30 4 -33 33 -3 29 -6 32 -38 32 -32 0 -34 2 -34
35 0 33 -2 35 -36 35 l-36 0 4 70 3 70 -31 0 c-33 0 -49 25 -37 56 6 17 63 19
64 2 1 -7 2 -22 3 -33 1 -18 9 -20 69 -23 l67 -3 0 36 c0 33 2 35 35 35 33 0
35 -2 35 -35 0 -33 2 -35 35 -35 33 0 35 2 35 35 l0 35 70 0 70 0 0 35 0 35
-140 0 -140 0 0 35 0 36 -67 -3 -68 -3 -3 -32 c-3 -29 -7 -33 -33 -33 -31 0
-31 -1 -33 85 -1 49 -2 50 -33 53 -32 3 -33 2 -33 -32 0 -34 -2 -36 -35 -36
l-35 0 0 106 0 105 33 -3 c28 -3 32 -7 35 -36 3 -31 6 -33 35 -30 27 2 32 7
32 28 -1 29 11 40 43 40 21 0 22 -4 22 -70 l0 -70 70 0 70 0 0 -35 0 -35 140
0 140 0 0 35 c0 33 2 35 35 35 33 0 35 -2 35 -35 0 -33 2 -35 35 -35 33 0 35
2 35 35 0 33 2 35 35 35 33 0 35 2 35 35 0 33 -2 35 -35 35 l-35 0 0 64 c0 55
3 66 19 71 10 3 25 4 32 3 9 -2 15 9 17 30 l3 32 65 0 64 0 0 35 c0 32 -2 35
-30 35 -28 0 -30 3 -30 35 l0 35 65 0 65 0 0 70 0 70 -65 0 -65 0 0 35 0 35
-70 0 -70 0 0 -35 c0 -33 2 -35 36 -35 34 0 35 -1 32 -32 -3 -29 -7 -33 -35
-36 -30 -3 -33 -6 -33 -38 0 -32 2 -34 36 -34 34 0 35 -1 32 -32 -3 -29 -7
-33 -35 -36 -32 -3 -33 -2 -33 32 0 34 -2 36 -34 36 -32 0 -35 -3 -38 -32 -3
-29 -7 -33 -35 -36 -30 -3 -33 -6 -33 -38 0 -32 2 -34 35 -34 32 0 35 -2 35
-29 0 -20 -6 -32 -19 -36 -31 -9 -51 5 -51 36 0 26 -3 29 -35 29 l-35 0 0
-100 0 -100 -35 0 c-33 0 -35 -2 -35 -35 0 -33 -2 -35 -35 -35 -33 0 -35 2
-35 35 0 33 -2 35 -36 35 -34 0 -35 1 -32 33 l3 32 68 3 67 3 0 34 c0 33 -2
35 -35 35 -32 0 -35 2 -35 30 l0 30 70 0 70 0 0 35 c0 33 2 35 35 35 33 0 35
2 35 35 0 33 2 35 35 35 l35 0 0 105 0 105 -35 0 c-33 0 -35 -2 -35 -35 0 -33
-2 -35 -35 -35 l-35 0 0 70 0 70 -105 0 -105 0 0 -35 c0 -33 -2 -35 -35 -35
-33 0 -35 -2 -35 -35 0 -33 2 -35 35 -35 33 0 35 -2 35 -35 l0 -36 -67 3 -68
3 -3 33 c-3 29 -6 32 -36 32 -28 0 -33 4 -33 23 -1 43 -3 47 -33 47 -29 0 -29
0 -32 68 l-3 67 -32 3 c-30 3 -33 6 -33 38 0 32 2 34 35 34 l35 0 0 100 0 100
34 0 c32 0 34 -2 33 -32 -2 -90 1 -98 33 -98 28 0 30 -3 30 -35 0 -33 2 -35
35 -35 l35 0 0 70 0 70 70 0 70 0 0 33 c0 31 -1 32 -42 30 -24 -1 -55 -2 -70
-2 -24 -1 -28 -5 -28 -29 0 -37 -4 -39 -40 -34 -30 4 -30 5 -30 68 l0 64 -30
0 c-16 0 -30 3 -31 8 0 4 -2 19 -4 35 l-4 27 69 0 69 0 3 -32 3 -33 68 -3 67
-3 0 35 c0 32 -3 35 -32 38 -29 3 -33 7 -36 35 l-3 32 -67 3 -67 3 0 33 c0 29
-2 32 -31 32 -28 0 -32 -4 -38 -35 -6 -31 -11 -35 -36 -35 l-29 0 -3 -102 -3
-103 -65 0 -65 0 -3 32 c-3 29 -1 32 30 35 l33 3 3 68 3 67 34 0 35 0 0 69 0
70 33 3 c32 3 32 4 34 58 1 30 2 61 2 68 1 7 14 12 31 12 30 0 35 -8 31 -52
-2 -14 5 -18 33 -18 34 0 36 -2 36 -35 0 -33 2 -35 35 -35 33 0 35 -2 35 -35
0 -33 2 -35 35 -35 l35 0 0 70 0 70 35 0 c33 0 35 2 35 35 0 33 2 35 35 35 33
0 35 2 35 35 0 33 2 35 35 35 33 0 35 2 35 35 l0 35 70 0 70 0 0 35 c0 33 2
35 35 35 32 0 35 2 35 30 0 25 -4 30 -35 36 -30 5 -35 10 -35 35 l0 29 -70 0
-70 0 0 -30 c0 -25 4 -30 35 -36 30 -5 35 -10 35 -35 0 -26 -3 -29 -35 -29
-32 0 -35 2 -35 29 0 35 -12 45 -46 37 -22 -6 -24 -11 -24 -71 l0 -65 -35 0
-34 0 -3 67 -3 67 -30 1 c-26 0 -30 4 -33 32 -3 28 -7 32 -35 35 -28 3 -32 7
-35 36 l-3 32 105 0 106 0 0 35 c0 33 2 35 35 35 33 0 35 2 35 35 0 33 2 35
35 35 33 0 35 -2 35 -35 0 -33 -2 -35 -35 -35 -33 0 -35 -2 -35 -35 l0 -35 70
0 70 0 0 -36 c0 -34 1 -35 33 -32 l32 3 3 68 c3 66 3 67 31 67 29 0 41 15 41
51 0 14 7 19 30 19 28 0 30 -3 30 -35 0 -32 -2 -35 -30 -35 -30 0 -30 -1 -31
-55 -1 -30 -2 -61 -3 -67 0 -7 -16 -14 -33 -16 -29 -3 -33 -7 -33 -33 0 -22 5
-29 20 -30 11 -1 26 -2 33 -3 6 -1 11 5 9 13 -6 30 9 50 41 53 29 3 32 6 30
36 -2 30 0 32 33 32 32 0 34 2 34 35 0 33 2 35 35 35 33 0 35 -2 35 -35 0 -33
-2 -35 -36 -35 -34 0 -35 -1 -32 -32 3 -29 7 -33 36 -36 29 -3 32 -6 32 -35 0
-31 2 -33 35 -32 33 2 35 0 35 -32 0 -31 -2 -33 -35 -33 -32 0 -35 2 -35 29 0
35 -12 45 -46 37 -22 -6 -24 -11 -24 -71 l0 -64 -32 -3 c-25 -2 -33 -8 -34
-23 -1 -11 -2 -26 -3 -32 -1 -7 -14 -13 -31 -13 -28 0 -30 -3 -30 -35 0 -32 2
-35 30 -35 22 0 30 -5 31 -17 0 -10 2 -26 4 -35 3 -16 -7 -18 -100 -18 l-104
0 -3 -67 -3 -68 -32 -3 c-30 -3 -33 -6 -33 -38 l0 -34 70 0 70 0 0 71 0 70 33
-3 32 -3 0 -65 0 -65 -32 -3 c-28 -3 -32 -7 -35 -35 -3 -28 -7 -32 -35 -35
-28 -3 -32 -7 -35 -35 -3 -28 -7 -32 -35 -35 -30 -3 -33 -6 -33 -38 l0 -34
103 2 102 3 3 33 3 32 135 0 134 0 0 70 0 70 -35 0 c-33 0 -35 -2 -35 -36 0
-34 -1 -35 -32 -32 -29 3 -33 7 -36 35 -3 28 -7 32 -35 35 l-32 3 0 100 0 100
32 3 32 3 3 67 3 67 68 3 67 3 0 34 0 35 106 0 105 0 -3 33 -3 32 -67 3 -68 3
0 33 c0 31 -2 33 -32 32 -30 -1 -33 2 -36 32 l-3 32 70 0 71 0 0 35 c0 33 2
35 35 35 33 0 35 2 35 35 l0 35 -70 0 -70 0 0 -35 c0 -33 -2 -35 -35 -35 -33
0 -35 2 -35 35 0 33 2 35 35 35 l35 0 0 70 0 70 35 0 c33 0 35 2 35 35 0 33 2
35 35 35 33 0 35 -2 35 -35z m-552 -67 c-3 -29 -7 -33 -35 -36 -32 -3 -33 -2
-33 32 0 35 1 36 36 36 34 0 35 -1 32 -32z m272 -4 c0 -34 -1 -35 -32 -32 -29
3 -33 7 -36 36 -3 31 -2 32 32 32 35 0 36 -1 36 -36z m1590 -70 c0 -34 -1 -35
-32 -32 -29 3 -33 7 -36 36 -3 31 -2 32 32 32 35 0 36 -1 36 -36z m-2350 -341
l0 -103 -103 0 -103 0 1 78 c3 143 -10 127 105 127 l100 0 0 -102z m1345 99
l41 -2 0 -100 -1 -100 -102 0 -103 0 0 103 0 102 63 -1 c34 0 80 -2 102 -2z
m173 -29 c3 -30 6 -33 38 -33 l34 0 0 -105 0 -105 140 0 140 0 0 36 c0 34 1
35 33 32 l32 -3 3 -67 3 -67 67 -3 67 -3 3 -32 3 -33 -70 0 -71 0 0 -70 0 -70
-35 0 c-33 0 -35 2 -35 35 l0 35 -105 0 -105 0 0 70 0 70 -35 0 c-33 0 -35 -2
-35 -35 0 -33 -2 -35 -35 -35 -33 0 -35 -2 -35 -35 l0 -36 -67 3 -68 3 0 30 0
30 68 3 67 3 0 34 c0 33 -2 35 -36 35 -34 0 -35 1 -32 33 3 28 7 32 36 35 29
3 32 6 32 38 0 32 -2 34 -36 34 -34 0 -35 1 -32 33 3 28 7 32 36 35 29 3 32 6
32 38 0 32 -2 34 -35 34 -32 0 -35 3 -35 29 0 31 12 41 45 38 15 -2 21 -11 23
-34z m-203 -278 l0 -30 -67 -3 -68 -3 0 36 0 36 68 -3 67 -3 0 -30z m-1657
-172 l-3 -68 -32 -3 -33 -3 0 70 0 71 35 0 36 0 -3 -67z m-138 -108 l0 -35
-70 0 -70 0 0 35 0 35 70 0 70 0 0 -35z m1102 30 c2 -3 3 -18 0 -35 -4 -25 -9
-30 -33 -30 -26 0 -29 3 -29 35 0 32 3 35 28 35 16 0 31 -2 34 -5z m1798 -31
c0 -34 -1 -35 -32 -32 -29 3 -33 7 -36 36 -3 31 -2 32 32 32 35 0 36 -1 36
-36z m-480 -69 c0 -33 -2 -35 -35 -35 -33 0 -35 2 -35 35 0 33 2 35 35 35 33
0 35 -2 35 -35z m-2287 -174 c4 0 7 -14 7 -31 0 -28 -3 -30 -35 -30 -32 0 -35
3 -35 28 0 40 6 43 63 33z m7 -306 c0 -33 -2 -35 -35 -35 -33 0 -35 -2 -35
-35 0 -33 -2 -35 -35 -35 -33 0 -35 2 -35 35 0 33 2 35 35 35 33 0 35 2 35 35
0 33 2 35 35 35 33 0 35 -2 35 -35z m550 -210 c0 -33 -2 -35 -35 -35 -33 0
-35 -2 -35 -36 0 -34 -1 -35 -32 -32 l-33 3 -3 68 -3 67 71 0 70 0 0 -35z
m-210 -138 l0 -103 -94 1 c-52 0 -98 3 -102 8 -4 4 -8 50 -8 102 l-1 95 103 0
102 0 0 -103z m2350 67 c0 -34 -1 -35 -32 -32 -29 3 -33 7 -36 36 -3 31 -2 32
32 32 35 0 36 -1 36 -36z m-2002 -271 c3 -32 2 -33 -32 -33 -35 0 -36 1 -36
36 0 34 1 35 33 32 28 -3 32 -7 35 -35z m-618 -278 c0 -33 -2 -35 -35 -35 -33
0 -35 2 -35 35 0 33 2 35 35 35 33 0 35 -2 35 -35z m2620 -1 c0 -34 -1 -35
-32 -32 -29 3 -33 7 -36 36 -3 31 -2 32 32 32 35 0 36 -1 36 -36z m210 1 c0
-33 -2 -35 -35 -35 -33 0 -35 2 -35 35 0 33 2 35 35 35 33 0 35 -2 35 -35z
m-350 -70 l0 -35 -65 0 -65 0 0 35 0 35 65 0 65 0 0 -35z m-1520 -340 l0 -35
-64 0 c-66 0 -77 7 -68 42 3 13 18 18 61 21 31 2 59 4 64 5 4 1 7 -14 7 -33z"/>
<path d="M2990 3725 c0 -33 2 -35 35 -35 33 0 35 2 35 35 0 33 -2 35 -35 35
-33 0 -35 -2 -35 -35z"/>
<path d="M2230 3515 c0 -33 2 -35 35 -35 33 0 35 2 35 35 0 33 -2 35 -35 35
-33 0 -35 -2 -35 -35z"/>
<path d="M2510 3280 l0 -70 -35 0 c-33 0 -35 -2 -35 -35 0 -33 -2 -35 -35 -35
-33 0 -35 -2 -35 -35 0 -33 2 -35 35 -35 33 0 35 2 35 35 0 33 2 35 35 35 33
0 35 2 35 35 0 33 2 35 35 35 33 0 35 2 35 35 0 32 2 35 29 35 32 0 47 23 35
54 -5 12 -20 16 -70 16 l-64 0 0 -70z"/>
<path d="M2850 3175 c0 -33 2 -35 35 -35 33 0 35 2 35 35 0 33 -2 35 -35 35
-33 0 -35 -2 -35 -35z"/>
<path d="M2230 3105 c0 -33 2 -35 35 -35 33 0 35 2 35 35 0 33 -2 35 -35 35
-33 0 -35 -2 -35 -35z"/>
<path d="M2710 3035 l0 -35 105 0 105 0 0 35 0 35 -105 0 -105 0 0 -35z"/>
<path d="M1884 2986 c-12 -31 1 -51 34 -54 31 -3 32 -2 32 32 0 33 -2 36 -30
36 -17 0 -33 -6 -36 -14z"/>
<path d="M2230 2965 c0 -33 2 -35 35 -35 33 0 35 2 35 35 0 33 -2 35 -35 35
-33 0 -35 -2 -35 -35z"/>
<path d="M2710 2895 c0 -33 2 -35 35 -35 33 0 35 2 35 35 0 33 -2 35 -35 35
-33 0 -35 -2 -35 -35z"/>
<path d="M2920 2895 c0 -33 2 -35 35 -35 33 0 35 -2 35 -35 0 -33 -2 -35 -35
-35 l-36 0 3 -67 3 -68 68 -3 c67 -3 67 -3 67 -32 0 -28 -3 -30 -35 -30 -33 0
-35 -2 -35 -35 0 -33 -2 -35 -35 -35 -33 0 -35 -2 -35 -35 0 -33 2 -35 35 -35
33 0 35 2 35 35 0 33 2 35 35 35 33 0 35 -2 35 -35 0 -33 2 -35 35 -35 l35 0
0 -70 0 -70 -35 0 c-33 0 -35 2 -35 35 l0 35 -70 0 -70 0 0 -35 c0 -33 -2 -35
-35 -35 l-35 0 0 -70 0 -70 -35 0 c-33 0 -35 -2 -35 -35 l0 -35 70 0 70 0 0
35 0 35 70 0 70 0 0 -35 c0 -33 -2 -35 -35 -35 -33 0 -35 -2 -35 -35 l0 -35
-70 0 -70 0 0 -35 c0 -33 -2 -35 -35 -35 -33 0 -35 -2 -35 -35 l0 -35 -70 0
-70 0 0 -65 0 -65 35 0 c32 0 35 3 35 29 0 29 14 41 51 41 15 0 19 -7 19 -35
0 -33 2 -35 35 -35 33 0 35 -2 35 -34 0 -32 -3 -35 -32 -38 -29 -3 -33 -7 -36
-35 -3 -32 -2 -33 32 -33 34 0 36 -2 36 -35 0 -33 2 -35 35 -35 33 0 35 2 35
35 0 33 -2 35 -35 35 -33 0 -35 2 -35 35 0 33 2 35 35 35 33 0 35 2 35 35 0
33 -2 35 -35 35 l-35 0 0 65 0 65 35 0 c33 0 35 2 35 35 0 33 2 35 35 35 33 0
35 -2 35 -35 0 -33 2 -35 34 -35 32 0 35 -3 38 -32 3 -29 6 -33 33 -33 26 0
30 -4 33 -32 l3 -32 102 -3 102 -3 0 -30 c0 -27 -4 -30 -32 -33 -30 -3 -33 -6
-33 -38 0 -32 2 -34 35 -34 33 0 35 -2 35 -35 0 -33 2 -35 35 -35 33 0 35 2
31 28 -2 15 -5 30 -5 35 -1 4 -14 7 -30 7 -25 0 -29 4 -33 35 -4 34 -3 35 29
35 33 0 38 -7 34 -52 -2 -14 5 -18 33 -18 l35 0 3 68 3 67 33 3 c29 3 32 6 32
38 0 32 -2 34 -35 34 l-35 0 0 100 0 100 35 0 c33 0 35 2 35 34 0 32 -3 35
-32 38 l-33 3 0 100 0 100 33 3 c29 3 32 6 32 38 0 32 -2 34 -36 34 -34 0 -35
1 -32 33 3 28 7 32 36 35 29 3 32 6 32 38 0 32 -2 34 -36 34 -34 0 -35 1 -32
33 3 28 7 32 36 35 28 3 32 7 32 33 0 28 -2 30 -32 27 -28 -2 -34 -8 -36 -30
-3 -24 -8 -28 -33 -28 -20 0 -29 -5 -30 -17 -1 -10 -3 -99 -4 -198 -1 -99 -3
-186 -4 -192 -1 -10 -28 -13 -101 -13 l-100 0 0 -35 c0 -33 -2 -35 -35 -35
l-35 0 0 70 0 70 70 0 70 0 0 35 c0 33 2 35 36 35 34 0 35 1 32 33 -3 28 -7
32 -35 35 l-33 3 0 69 0 69 33 3 32 3 0 64 0 64 -102 -2 -103 -2 0 105 0 106
-35 0 c-33 0 -35 2 -35 35 l0 35 -70 0 -70 0 0 -35z m140 -140 c0 -33 -2 -35
-35 -35 -33 0 -35 2 -35 35 0 33 2 35 35 35 33 0 35 -2 35 -35z m0 -480 c0
-33 -2 -35 -35 -35 -33 0 -35 2 -35 35 0 33 2 35 35 35 33 0 35 -2 35 -35z
m68 -242 l-3 -68 -32 -3 -33 -3 0 70 0 71 35 0 36 0 -3 -67z m276 -80 c-1 -43
-2 -90 -3 -104 l-1 -25 -100 0 -100 1 0 103 0 102 103 0 102 0 -1 -77z"/>
<path d="M3270 1924 c0 -34 1 -35 33 -32 28 3 32 7 35 36 3 31 2 32 -32 32
-35 0 -36 -1 -36 -36z"/>
<path d="M2230 2825 c0 -33 -2 -35 -35 -35 -33 0 -35 -2 -35 -35 0 -33 -2 -35
-36 -35 -34 0 -35 -1 -32 -32 3 -29 7 -33 36 -36 l32 -3 0 -64 0 -64 -32 -3
-33 -3 -3 -67 -3 -68 71 0 70 0 0 -35 0 -35 141 0 140 0 -3 33 c-3 28 -7 32
-35 35 -28 3 -32 7 -35 35 -3 28 -7 32 -35 35 -32 3 -33 2 -33 -32 l0 -36 -70
0 -70 0 0 35 c0 33 2 35 35 35 33 0 35 2 35 35 l0 35 71 0 70 0 -3 33 c-3 28
-7 32 -35 35 -27 3 -32 7 -35 34 l-3 31 -65 1 -65 1 -3 33 -3 32 70 0 71 0 0
35 c0 33 -2 35 -35 35 -33 0 -35 2 -35 35 0 33 -2 35 -35 35 -33 0 -35 -2 -35
-35z m68 -272 c3 -32 2 -33 -32 -33 -34 0 -36 2 -36 34 0 32 2 34 33 33 28 -2
32 -6 35 -34z"/>
<path d="M3340 2686 c0 -32 2 -35 30 -34 53 2 52 68 -1 68 -26 0 -29 -3 -29
-34z"/>
<path d="M2708 2618 l-3 -32 -97 3 -98 2 0 -35 c0 -32 3 -35 33 -38 28 -3 32
-7 35 -35 3 -30 6 -33 36 -33 30 0 32 2 32 33 l-1 32 68 3 67 3 0 64 0 65 -34
0 c-32 0 -35 -3 -38 -32z"/>
<path d="M2850 2620 c0 -28 3 -30 35 -30 32 0 35 2 35 30 0 28 -3 30 -35 30
-32 0 -35 -2 -35 -30z"/>
<path d="M2787 2443 c-4 -3 -7 -19 -7 -35 0 -25 3 -28 35 -28 33 0 35 2 35 35
0 32 -3 35 -28 35 -16 0 -32 -3 -35 -7z"/>
<path d="M1887 2373 c-4 -3 -7 -35 -7 -70 l0 -63 35 0 35 0 0 70 0 70 -28 0
c-16 0 -32 -3 -35 -7z"/>
<path d="M2646 2364 c-3 -9 -6 -24 -6 -35 0 -14 -7 -19 -30 -19 -28 0 -30 -3
-30 -35 l0 -35 65 0 65 0 0 70 0 70 -29 0 c-17 0 -31 -6 -35 -16z"/>
<path d="M3960 2345 c0 -33 -2 -35 -35 -35 -33 0 -35 -2 -35 -35 0 -33 -2 -35
-35 -35 -33 0 -35 -2 -35 -35 0 -33 2 -35 35 -35 33 0 35 2 35 35 0 33 2 35
35 35 33 0 35 -2 35 -35 0 -33 2 -35 35 -35 33 0 35 2 35 35 0 33 -2 35 -35
35 -33 0 -35 2 -35 35 0 33 2 35 35 35 33 0 35 2 35 35 0 33 -2 35 -35 35 -33
0 -35 -2 -35 -35z"/>
<path d="M3610 2205 l0 -35 70 0 70 0 0 35 0 35 -70 0 -70 0 0 -35z"/>
<path d="M3820 1924 c0 -34 1 -35 33 -32 28 3 32 7 35 36 3 31 2 32 -32 32
-35 0 -36 -1 -36 -36z"/>
<path d="M2517 1823 c-4 -3 -7 -35 -7 -70 l0 -64 33 3 c31 3 32 4 34 53 2 68
-4 85 -31 85 -12 0 -26 -3 -29 -7z"/>
<path d="M2996 1823 c-3 -4 -6 -19 -6 -35 0 -25 3 -28 36 -28 34 0 35 1 32 32
-2 27 -7 33 -30 35 -14 1 -29 -1 -32 -4z"/>
<path d="M2580 1655 c0 -32 2 -35 30 -35 28 0 30 3 30 35 0 32 -2 35 -30 35
-28 0 -30 -3 -30 -35z"/>
<path d="M2990 1655 c0 -33 2 -35 35 -35 33 0 35 -2 35 -35 0 -33 2 -35 35
-35 l35 0 0 70 0 70 -70 0 -70 0 0 -35z"/>
<path d="M2510 1585 c0 -33 -2 -35 -35 -35 -33 0 -35 -2 -35 -35 0 -33 2 -35
35 -35 l36 0 -3 -67 -3 -68 -102 -3 -102 -3 -3 -102 -3 -102 -100 0 -100 0 -3
33 c-3 31 -2 32 32 32 34 0 36 2 36 35 0 33 2 35 35 35 33 0 35 2 35 35 0 33
-2 35 -35 35 -33 0 -35 -2 -35 -35 0 -33 -2 -35 -35 -35 -33 0 -35 2 -35 35 0
33 -2 35 -35 35 -33 0 -35 -2 -35 -35 0 -33 -2 -35 -35 -35 -33 0 -35 -2 -35
-35 0 -33 2 -35 35 -35 33 0 35 -2 35 -35 0 -33 2 -35 34 -35 32 0 35 -3 38
-32 3 -29 7 -33 33 -33 26 -1 30 -4 33 -33 3 -29 6 -32 38 -32 31 0 34 2 34
30 0 32 -5 30 95 34 37 1 40 3 43 33 3 28 7 32 35 35 28 3 32 7 35 35 3 28 7
32 35 35 28 3 32 7 35 35 3 28 7 32 35 35 l32 3 3 68 c3 67 3 67 32 67 28 0
30 3 30 35 l0 35 -65 0 -65 0 0 35 c0 33 2 35 35 35 28 0 35 4 35 19 0 37 -12
51 -41 51 -26 0 -29 -3 -29 -35z m-420 -350 c0 -33 -2 -35 -35 -35 -33 0 -35
2 -35 35 0 33 2 35 35 35 33 0 35 -2 35 -35z m350 0 c0 -33 -2 -35 -35 -35
-33 0 -35 2 -35 35 0 33 2 35 35 35 33 0 35 -2 35 -35z"/>
<path d="M2300 1515 c0 -33 2 -35 35 -35 33 0 35 2 35 35 0 33 -2 35 -35 35
-33 0 -35 -2 -35 -35z"/>
<path d="M3470 1515 c0 -33 2 -35 35 -35 33 0 35 2 35 35 0 33 -2 35 -35 35
-33 0 -35 -2 -35 -35z"/>
<path d="M1887 3343 c-4 -3 -7 -19 -7 -35 0 -25 3 -28 35 -28 33 0 35 2 35 35
0 32 -3 35 -28 35 -16 0 -32 -3 -35 -7z"/>
<path d="M3270 3316 c0 -35 1 -36 36 -36 34 0 35 1 32 33 -3 28 -7 32 -35 35
-32 3 -33 2 -33 -32z"/>
<path d="M3547 3133 c-4 -3 -7 -19 -7 -35 0 -25 3 -28 35 -28 33 0 35 2 35 35
0 32 -3 35 -28 35 -16 0 -32 -3 -35 -7z"/>
<path d="M3750 3035 l0 -35 70 0 70 0 0 35 0 35 -70 0 -70 0 0 -35z"/>
<path d="M1884 1946 c-12 -31 1 -51 34 -54 31 -3 32 -2 32 32 0 33 -2 36 -30
36 -17 0 -33 -6 -36 -14z"/>
<path d="M4300 4555 l0 -34 -67 -3 c-71 -3 -70 -2 -64 -58 1 -5 15 -10 31 -10
28 0 30 -3 30 -35 l0 -35 70 0 70 0 0 35 c0 33 2 35 35 35 33 0 35 2 35 35 0
33 -2 35 -35 35 -33 0 -35 2 -35 35 0 33 -2 35 -35 35 -33 0 -35 -2 -35 -35z
m70 -71 c0 -34 -1 -35 -32 -32 -29 3 -33 7 -36 36 -3 31 -2 32 32 32 35 0 36
-1 36 -36z"/>
<path d="M2782 4453 l3 -68 33 -3 32 -3 0 70 0 71 -35 0 -36 0 3 -67z"/>
<path d="M3820 4415 c0 -33 2 -35 35 -35 33 0 35 2 35 35 0 33 -2 35 -35 35
-33 0 -35 -2 -35 -35z"/>
<path d="M2440 4175 l0 -65 35 0 35 0 0 65 0 65 -35 0 -35 0 0 -65z"/>
<path d="M1540 4108 l0 -68 35 0 35 0 0 68 0 69 -35 -1 -35 -1 0 -67z"/>
<path d="M4237 4103 c-4 -3 -7 -19 -7 -35 0 -25 3 -28 35 -28 33 0 35 2 35 35
0 32 -3 35 -28 35 -16 0 -32 -3 -35 -7z"/>
<path d="M710 3970 l0 -70 -35 0 c-33 0 -35 -2 -35 -35 0 -33 2 -35 35 -35 33
0 35 2 35 35 l0 35 70 0 70 0 0 -35 c0 -33 2 -35 35 -35 33 0 35 2 35 34 0 32
3 35 33 38 28 3 32 6 32 33 0 27 -4 30 -32 33 -32 3 -33 2 -33 -32 0 -34 -2
-36 -35 -36 -33 0 -35 2 -35 35 0 33 -2 35 -35 35 -33 0 -35 2 -35 35 0 33 -2
35 -35 35 l-35 0 0 -70z"/>
<path d="M1887 4033 c-4 -3 -7 -35 -7 -70 l0 -63 70 0 70 0 0 70 0 70 -63 0
c-35 0 -67 -3 -70 -7z"/>
<path d="M4030 3935 c0 -33 2 -35 35 -35 33 0 35 2 35 35 0 33 -2 35 -35 35
-33 0 -35 -2 -35 -35z"/>
<path d="M1260 3445 l0 -35 -57 4 c-72 5 -83 0 -83 -35 l0 -29 105 0 105 0 0
65 0 65 -35 0 c-33 0 -35 -2 -35 -35z"/>
<path d="M850 3211 l0 -71 -70 0 -70 0 0 -35 c0 -33 -2 -35 -35 -35 -33 0 -35
-2 -35 -35 l0 -35 70 0 70 0 0 35 c0 33 2 35 35 35 33 0 35 2 35 35 0 33 2 35
35 35 l36 0 -3 68 -3 67 -32 3 -33 3 0 -70z"/>
<path d="M4030 3246 c0 -35 1 -36 36 -36 34 0 35 1 32 33 -3 28 -7 32 -35 35
-32 3 -33 2 -33 -32z"/>
<path d="M4930 3035 c0 -32 2 -35 30 -35 28 0 30 3 30 35 0 32 -2 35 -30 35
-28 0 -30 -3 -30 -35z"/>
<path d="M4930 2896 c0 -34 -2 -36 -35 -36 -33 0 -35 -2 -35 -35 0 -33 2 -35
36 -35 34 0 35 1 32 33 -3 30 -1 32 32 37 30 4 34 8 34 35 0 26 -4 30 -32 33
-31 3 -32 2 -32 -32z"/>
<path d="M640 2825 c0 -33 2 -35 35 -35 33 0 35 -2 35 -36 0 -34 1 -35 33 -32
28 3 32 7 35 36 3 31 2 32 -32 32 -34 0 -36 2 -36 35 0 33 -2 35 -35 35 -33 0
-35 -2 -35 -35z"/>
<path d="M1190 2790 l0 -70 35 0 c32 0 35 -2 35 -30 0 -16 3 -31 8 -31 61 -10
62 -9 62 27 0 32 -2 34 -35 34 l-35 0 0 70 0 70 -35 0 -35 0 0 -70z"/>
<path d="M4580 2755 c0 -33 2 -35 35 -35 33 0 35 2 35 35 0 33 -2 35 -35 35
-33 0 -35 -2 -35 -35z"/>
<path d="M4860 2685 c0 -33 2 -35 35 -35 32 0 35 -2 35 -30 0 -27 3 -30 30
-30 27 0 30 3 30 30 0 27 -3 30 -30 30 -28 0 -30 3 -30 35 0 33 -2 35 -35 35
-33 0 -35 -2 -35 -35z"/>
<path d="M780 2623 c0 -36 1 -36 -87 -33 l-53 1 0 -35 0 -36 105 0 105 0 0 65
c0 45 -4 65 -12 66 -7 0 -23 2 -35 3 -20 2 -23 -2 -23 -31z"/>
<path d="M4305 2651 c-3 -2 -5 -17 -5 -32 0 -30 12 -38 48 -31 19 4 23 10 20
36 -3 26 -7 31 -31 31 -15 1 -30 -1 -32 -4z"/>
<path d="M3960 2621 c0 -24 5 -29 30 -33 36 -5 40 -3 40 34 0 25 -3 28 -35 28
-32 0 -35 -3 -35 -29z"/>
<path d="M920 2555 c0 -33 2 -35 36 -35 34 0 35 1 32 32 -3 29 -7 33 -35 35
-31 3 -33 1 -33 -32z"/>
<path d="M850 1924 c0 -34 1 -35 33 -32 28 3 32 7 35 36 3 31 2 32 -32 32 -35
0 -36 -1 -36 -36z"/>
<path d="M1262 1928 c2 -25 8 -33 23 -34 11 -1 26 -2 33 -3 6 -1 12 -14 12
-31 0 -17 -6 -31 -12 -31 -7 -1 -17 -2 -23 -4 -5 -1 -16 -3 -22 -3 -7 -1 -13
-15 -13 -32 l0 -30 70 0 70 0 0 65 0 65 -35 0 c-33 0 -35 2 -35 35 0 33 -2 35
-36 35 -34 0 -35 -1 -32 -32z"/>
<path d="M570 1305 c0 -33 -2 -35 -35 -35 -33 0 -35 -2 -35 -35 0 -33 2 -35
35 -35 33 0 35 2 35 35 0 33 2 35 35 35 33 0 35 2 35 35 0 33 -2 35 -35 35
-33 0 -35 -2 -35 -35z"/>
<path d="M710 1305 c0 -33 2 -35 35 -35 33 0 35 2 35 35 0 33 -2 35 -35 35
-33 0 -35 -2 -35 -35z"/>
<path d="M1332 1168 c3 -29 7 -33 36 -36 31 -3 32 -2 32 32 0 35 -1 36 -36 36
-34 0 -35 -1 -32 -32z"/>
<path d="M1612 1133 l3 -68 133 -2 132 -2 0 35 c0 31 -3 34 -29 34 -31 0 -43
16 -36 50 4 19 -1 20 -101 20 l-105 0 3 -67z"/>
<path d="M3610 1094 c0 -31 -3 -35 -22 -34 -47 4 -48 2 -48 -65 l0 -65 141 0
140 0 -3 33 c-3 28 -7 32 -35 35 l-33 3 0 65 0 64 -70 0 -70 0 0 -36z"/>
<path d="M4030 1065 c0 -67 -1 -69 -47 -65 -20 1 -23 -3 -23 -34 0 -34 -2 -36
-35 -36 -33 0 -35 -2 -35 -35 0 -33 2 -35 35 -35 33 0 35 -2 35 -35 0 -33 2
-35 35 -35 33 0 35 -2 35 -35 0 -33 2 -35 35 -35 33 0 35 2 35 35 0 33 2 35
35 35 19 0 34 3 34 8 -1 4 -1 19 0 35 1 27 2 27 66 27 l65 0 0 35 c0 33 2 35
35 35 33 0 35 2 35 34 0 31 -2 33 -32 32 -30 -1 -33 -4 -36 -33 l-3 -33 -135
0 -134 0 0 35 0 35 136 0 135 0 -3 31 -3 32 -97 -2 -98 -2 0 35 c0 34 -2 36
-35 36 l-35 0 0 -65z m0 -169 c0 -32 3 -35 33 -38 28 -3 32 -7 35 -35 3 -32 2
-33 -32 -33 -34 0 -36 2 -36 35 0 33 -2 35 -35 35 -33 0 -35 2 -35 35 0 33 2
35 35 35 33 0 35 -2 35 -34z"/>
<path d="M1680 931 l0 -71 35 0 36 0 -3 68 -3 67 -32 3 -33 3 0 -70z"/>
<path d="M1819 983 c0 -10 -2 -26 -4 -35 -3 -14 4 -18 31 -18 32 0 34 2 34 35
0 32 -2 35 -30 35 -22 0 -30 -5 -31 -17z"/>
<path d="M3477 853 c-4 -3 -7 -19 -7 -35 0 -25 3 -28 35 -28 l35 0 0 -105 0
-105 35 0 35 0 0 -105 0 -105 70 0 70 0 0 35 c0 33 -2 35 -35 35 -33 0 -35 2
-35 35 l0 35 70 0 70 0 0 -35 c0 -33 2 -35 35 -35 33 0 35 -2 35 -35 0 -33 2
-35 35 -35 l35 0 0 70 0 70 35 0 c33 0 35 -2 35 -36 0 -34 1 -35 33 -32 l32 3
3 68 3 67 64 0 65 0 0 -35 c0 -32 -2 -35 -30 -35 -16 0 -30 -4 -31 -10 -6 -56
-7 -55 64 -58 l67 -3 0 106 0 105 35 0 c33 0 35 2 35 35 0 33 -2 35 -35 35
-33 0 -35 -2 -35 -35 l0 -35 -205 0 -205 0 0 70 0 70 -35 0 c-33 0 -35 -2 -35
-35 0 -33 -2 -35 -35 -35 l-35 0 0 70 0 71 -67 -3 -68 -3 -3 -32 c-3 -30 -6
-33 -38 -33 -32 0 -34 2 -34 35 0 32 -3 35 -28 35 -16 0 -32 -3 -35 -7z m203
-98 c0 -33 -2 -35 -35 -35 -33 0 -35 2 -35 35 0 33 2 35 35 35 33 0 35 -2 35
-35z m210 -140 c0 -33 2 -35 35 -35 33 0 35 -2 35 -35 l0 -35 -70 0 -70 0 0
35 c0 33 -2 35 -35 35 -33 0 -35 2 -35 35 l0 35 70 0 70 0 0 -35z"/>
<path d="M1400 755 c0 -33 2 -35 35 -35 33 0 35 2 35 35 0 33 -2 35 -35 35
-33 0 -35 -2 -35 -35z"/>
<path d="M2230 685 c0 -33 2 -35 35 -35 33 0 35 2 35 35 0 33 -2 35 -35 35
-33 0 -35 -2 -35 -35z"/>
<path d="M1190 580 l0 -70 -36 0 c-34 0 -35 -1 -32 -32 3 -29 7 -33 36 -36 31
-3 32 -2 32 32 0 34 2 36 35 36 l35 0 0 70 0 70 -35 0 -35 0 0 -70z"/>
<path d="M1884 4716 c-12 -31 1 -51 34 -54 31 -3 32 -2 32 32 0 33 -2 36 -30
36 -17 0 -33 -6 -36 -14z"/>
<path d="M3270 4695 c0 -35 1 -36 33 -33 28 3 32 6 32 33 0 27 -4 30 -32 33
-32 3 -33 2 -33 -33z"/>
<path d="M507 3343 c-4 -3 -7 -19 -7 -35 0 -25 3 -28 35 -28 33 0 35 2 35 35
0 32 -3 35 -28 35 -16 0 -32 -3 -35 -7z"/>
<path d="M4650 3316 c0 -35 1 -36 36 -36 34 0 35 1 32 33 -3 28 -7 32 -35 35
-32 3 -33 2 -33 -32z"/>
<path d="M502 1928 c3 -29 7 -33 36 -36 31 -3 32 -2 32 32 0 35 -1 36 -36 36
-34 0 -35 -1 -32 -32z"/>
<path d="M4650 1924 c0 -34 1 -35 33 -32 28 3 32 7 35 36 3 31 2 32 -32 32
-35 0 -36 -1 -36 -36z"/>
<path d="M1884 566 c-12 -31 1 -51 34 -54 31 -3 32 -2 32 32 0 33 -2 36 -30
36 -17 0 -33 -6 -36 -14z"/>
<path d="M3270 545 c0 -35 1 -36 33 -33 28 3 32 6 32 33 0 27 -4 30 -32 33
-32 3 -33 2 -33 -33z"/>
<path d="M4650 545 c0 -33 2 -35 35 -35 33 0 35 2 35 35 0 33 -2 35 -35 35
-33 0 -35 -2 -35 -35z"/>
<path d="M1819 5123 c-1 -10 -2 -38 -3 -63 -1 -41 -3 -45 -33 -54 -27 -7 -33
-14 -33 -36 0 -35 6 -39 38 -31 21 6 27 14 27 34 -1 15 2 27 5 28 21 4 89 5
108 1 17 -3 22 -11 22 -33 0 -27 3 -29 36 -29 34 0 35 1 32 33 -3 29 -6 32
-35 29 -31 -2 -33 0 -33 32 0 32 -3 35 -32 38 -29 3 -33 7 -36 36 -3 28 -7 32
-33 32 -21 0 -29 -5 -30 -17z"/>
<path d="M3270 5105 c0 -32 3 -35 29 -35 29 0 41 14 41 51 0 15 -7 19 -35 19
-33 0 -35 -2 -35 -35z"/>
<path d="M4512 5108 c3 -29 7 -33 36 -36 31 -3 32 -2 32 32 0 35 -1 36 -36 36
-34 0 -35 -1 -32 -32z"/>
<path d="M4650 4900 l0 -240 240 0 240 0 0 240 0 240 -240 0 -240 0 0 -240z
m410 0 l0 -170 -170 0 -170 0 0 170 0 170 170 0 170 0 0 -170z"/>
<path d="M4790 4903 l0 -103 100 0 c59 0 100 4 101 10 1 6 1 19 1 30 0 11 0
53 -1 94 l-1 75 -100 -2 -100 -2 0 -102z"/>
<path d="M1680 5035 c0 -33 1 -35 33 -31 28 3 32 7 35 35 3 30 2 31 -32 31
-34 0 -36 -2 -36 -35z"/>
<path d="M3409 5068 c-10 -19 -3 -51 13 -59 29 -16 48 -4 48 31 0 27 -3 30
-30 30 -16 0 -31 -1 -31 -2z"/>
<path d="M4248 5003 c-12 -3 -18 -14 -18 -34 0 -27 3 -29 36 -29 34 0 35 1 32
32 -3 33 -15 41 -50 31z"/>
<path d="M2580 4835 c0 -32 2 -35 30 -35 28 0 30 3 30 35 0 32 -2 35 -30 35
-28 0 -30 -3 -30 -35z"/>
<path d="M230 4555 c0 -33 -2 -35 -35 -35 -33 0 -35 -2 -35 -35 0 -33 -2 -35
-35 -35 l-35 0 0 -106 0 -105 33 3 c28 3 32 7 35 36 3 28 7 32 31 32 30 0 41
18 33 53 -2 11 -13 17 -33 17 -26 0 -29 3 -29 34 0 32 3 35 33 38 28 3 32 7
35 36 l3 32 64 0 64 0 3 -32 c3 -29 7 -33 36 -36 l32 -3 0 70 0 71 -100 0
-100 0 0 -35z"/>
<path d="M500 4555 c0 -33 2 -35 35 -35 33 0 35 2 35 35 0 33 -2 35 -35 35
-33 0 -35 -2 -35 -35z"/>
<path d="M90 2929 l0 -70 33 3 32 3 3 68 3 67 -36 0 -35 0 0 -71z"/>
<path d="M230 2931 l0 -70 32 -3 c29 -3 32 -7 33 -33 0 -26 4 -30 33 -33 31
-3 32 -2 32 32 0 35 -1 36 -36 36 l-35 0 2 68 3 67 -32 3 -32 3 0 -70z"/>
<path d="M90 2755 l0 -36 68 3 67 3 0 30 0 30 -67 3 -68 3 0 -36z"/>
<path d="M290 2686 c0 -32 -3 -35 -32 -38 -29 -3 -33 -6 -30 -29 2 -19 -2 -28
-15 -31 -36 -8 -53 2 -53 33 0 27 -3 29 -35 29 -32 0 -35 -2 -35 -30 0 -28 3
-30 35 -30 33 0 35 -2 35 -34 0 -32 3 -35 33 -38 28 -3 32 -7 35 -36 3 -31 6
-33 35 -30 l31 3 1 65 0 65 68 3 67 3 0 33 c0 30 -2 32 -32 32 -30 -1 -33 2
-36 32 -3 29 -6 32 -38 32 -32 0 -34 -2 -34 -34z"/>
<path d="M160 1860 c0 -29 2 -31 33 -28 27 2 32 7 32 28 0 21 -5 26 -32 28
-31 3 -33 1 -33 -28z"/>
<path d="M90 685 c0 -33 2 -35 35 -35 33 0 35 2 35 35 0 33 -2 35 -35 35 -33
0 -35 -2 -35 -35z"/>
<path d="M500 685 c0 -33 2 -35 35 -35 33 0 35 2 35 35 0 33 -2 35 -35 35 -33
0 -35 -2 -35 -35z"/>
<path d="M90 340 l0 -240 240 0 240 0 0 240 0 240 -240 0 -240 0 0 -240z m410
0 l0 -170 -170 0 -170 0 0 170 0 170 170 0 170 0 0 -170z"/>
<path d="M229 418 c-10 -194 -15 -184 105 -180 l96 3 0 100 0 99 -100 0 c-97
0 -100 -1 -101 -22z"/>
<path d="M1756 302 c-7 -7 -8 -57 -1 -64 3 -2 18 -3 34 0 25 3 29 8 28 30 -2
19 -10 28 -29 33 -15 4 -29 4 -32 1z"/>
<path d="M4657 233 c-4 -3 -7 -19 -7 -34 0 -24 -4 -28 -32 -31 -29 -3 -33 -7
-36 -35 -3 -32 -2 -33 32 -33 34 0 36 2 36 35 0 33 2 35 35 35 32 0 35 3 35
29 0 17 -6 31 -16 35 -20 8 -39 8 -47 -1z"/>
<path d="M4860 206 c0 -35 1 -36 36 -36 34 0 35 1 32 33 -3 28 -7 32 -35 35
-32 3 -33 2 -33 -32z"/>
<path d="M1750 135 c0 -35 1 -36 33 -33 28 3 32 6 32 33 0 27 -4 30 -32 33
-32 3 -33 2 -33 -33z"/>
</g>
</svg>
